{"glyphs":{"0":{"ha":833,"x_min":93,"x_max":740,"o":"m 417 -17 q 180 103 267 -17 q 93 446 93 222 q 180 785 93 669 q 417 901 267 901 q 653 785 567 901 q 740 446 740 669 q 653 103 740 222 q 417 -17 567 -17 m 417 793 q 338 774 374 793 q 275 713 301 754 q 234 605 249 671 q 219 446 219 539 q 234 286 219 353 q 275 176 249 219 q 338 113 301 133 q 417 93 374 93 q 496 113 460 93 q 558 176 532 133 q 599 286 585 219 q 614 446 614 353 q 599 605 614 539 q 558 713 585 671 q 496 774 532 754 q 417 793 460 793 m 417 357 q 352 383 379 357 q 325 453 325 408 q 352 523 325 497 q 417 549 379 549 q 481 523 454 549 q 508 453 508 497 q 481 383 508 408 q 417 357 454 357 z "},"1":{"ha":833,"x_min":131,"x_max":736,"o":"m 736 113 l 736 0 l 131 0 l 131 113 l 376 113 l 376 729 l 189 729 l 189 815 q 314 844 261 826 q 411 885 367 861 l 514 885 l 514 113 l 736 113 z "},"2":{"ha":833,"x_min":89,"x_max":729,"o":"m 96 81 q 289 252 204 175 q 431 395 374 329 q 519 518 489 461 q 550 629 550 575 q 506 747 550 703 q 369 792 461 792 q 258 761 310 792 q 167 689 207 731 l 89 765 q 222 865 151 829 q 388 901 292 901 q 509 883 454 901 q 602 829 564 864 q 661 745 640 794 q 682 636 682 696 q 653 513 682 575 q 572 387 624 451 q 450 253 521 322 q 296 108 379 183 q 378 114 336 111 q 458 117 421 117 l 729 117 l 729 0 l 96 0 l 96 81 z "},"3":{"ha":833,"x_min":74,"x_max":725,"o":"m 142 197 q 247 126 186 157 q 386 96 307 96 q 465 106 429 96 q 528 136 501 117 q 571 183 556 156 q 586 244 586 210 q 569 310 586 281 q 517 362 553 340 q 422 395 481 383 q 278 407 363 407 l 278 510 q 406 522 353 510 q 492 553 458 533 q 540 601 525 574 q 556 663 556 629 q 509 757 556 722 q 386 792 463 792 q 274 767 326 792 q 178 704 222 743 l 106 790 q 235 870 164 839 q 392 901 306 901 q 513 886 457 901 q 608 842 568 871 q 672 769 649 813 q 694 672 694 726 q 644 544 694 594 q 510 465 593 493 l 510 460 q 592 431 553 450 q 661 383 632 411 q 708 319 690 356 q 725 238 725 282 q 699 131 725 178 q 628 51 672 83 q 523 1 583 18 q 396 -17 463 -17 q 201 20 281 -17 q 74 108 122 57 l 142 197 z "},"4":{"ha":833,"x_min":53,"x_max":763,"o":"m 501 344 l 501 586 q 504 669 503 624 q 508 753 506 714 l 501 753 q 457 685 481 718 q 410 618 433 651 l 197 344 l 501 344 m 763 236 l 631 236 l 631 0 l 501 0 l 501 236 l 53 236 l 53 329 l 476 886 l 631 886 l 631 344 l 763 344 l 763 236 z "},"5":{"ha":833,"x_min":74,"x_max":729,"o":"m 140 194 q 240 126 183 156 q 379 96 297 96 q 462 109 424 96 q 528 146 500 122 q 574 204 557 169 q 590 282 590 239 q 534 415 590 368 q 386 461 478 461 q 338 458 360 461 q 297 448 317 454 q 258 432 278 442 q 215 410 238 422 l 146 454 l 174 885 l 686 885 l 686 768 l 294 768 l 274 531 q 344 554 310 546 q 425 563 379 563 q 543 546 488 563 q 640 495 599 529 q 705 409 681 461 q 729 286 729 357 q 701 158 729 214 q 627 63 674 101 q 520 3 581 24 q 396 -17 460 -17 q 290 -6 338 -17 q 202 21 242 4 q 131 60 163 38 q 74 106 100 82 l 140 194 z "},"6":{"ha":833,"x_min":101,"x_max":746,"o":"m 443 90 q 510 103 479 90 q 565 138 542 115 q 603 195 589 161 q 617 271 617 229 q 572 399 617 356 q 443 443 526 443 q 340 418 394 443 q 233 332 286 393 q 302 149 247 208 q 443 90 357 90 m 656 719 q 577 770 622 751 q 483 789 532 789 q 388 770 433 789 q 308 710 343 751 q 252 600 274 668 q 229 433 231 532 q 345 515 282 486 q 471 544 408 544 q 581 528 531 544 q 669 476 632 511 q 726 390 706 442 q 746 271 746 339 q 722 153 746 206 q 656 63 697 100 q 559 4 614 25 q 444 -17 504 -17 q 311 9 374 -17 q 202 88 249 35 q 128 222 156 142 q 101 413 101 303 q 133 636 101 543 q 215 788 164 729 q 334 874 267 847 q 474 901 401 901 q 622 873 558 901 q 731 804 686 844 l 656 719 z "},"7":{"ha":833,"x_min":94,"x_max":742,"o":"m 301 0 q 325 223 307 122 q 376 414 343 324 q 462 590 410 504 q 588 768 514 676 l 94 768 l 94 885 l 742 885 l 742 800 q 599 613 654 701 q 511 432 544 525 q 463 235 478 339 q 443 0 449 131 l 301 0 l 301 0 z "},"8":{"ha":833,"x_min":92,"x_max":742,"o":"m 215 240 q 272 126 215 169 q 422 83 328 83 q 561 122 511 83 q 611 226 611 160 q 591 297 611 268 q 535 346 571 325 q 453 383 500 367 q 350 419 406 400 q 253 344 292 388 q 215 240 215 301 m 486 490 q 585 656 585 568 q 542 760 585 718 q 421 801 500 801 q 310 767 353 801 q 267 669 267 732 q 283 606 267 633 q 329 558 300 579 q 399 522 358 538 q 486 490 439 506 m 92 226 q 107 306 92 271 q 149 369 122 342 q 208 419 175 397 q 276 457 240 440 l 276 463 q 182 549 221 499 q 143 669 143 599 q 164 765 143 722 q 222 838 185 808 q 311 885 260 868 q 424 901 363 901 q 540 884 489 901 q 628 835 592 867 q 683 760 664 804 q 703 664 703 717 q 663 548 703 601 q 569 457 624 494 l 569 451 q 637 413 606 433 q 692 366 668 393 q 728 303 715 339 q 742 222 742 268 q 720 128 742 172 q 658 52 699 85 q 556 1 617 19 q 419 -17 496 -17 q 283 1 344 -17 q 180 51 222 19 q 115 128 138 83 q 92 226 92 174 z "},"9":{"ha":833,"x_min":88,"x_max":733,"o":"m 390 442 q 493 467 439 442 q 600 553 547 492 q 531 735 586 676 q 390 794 476 794 q 323 782 354 794 q 268 747 292 769 q 231 690 244 724 q 217 614 217 656 q 262 485 217 529 q 390 442 307 442 m 179 165 q 256 115 211 133 q 350 96 301 96 q 445 115 400 96 q 525 175 490 133 q 581 285 560 217 q 604 451 601 353 q 488 369 551 399 q 363 340 425 340 q 251 357 301 340 q 165 408 201 374 q 108 494 128 443 q 88 614 88 544 q 112 732 88 679 q 178 822 136 785 q 274 881 219 860 q 389 901 328 901 q 523 875 460 901 q 633 796 586 849 q 706 663 679 743 q 733 472 733 582 q 702 249 733 342 q 619 97 671 156 q 499 10 567 38 q 360 -17 432 -17 q 212 12 275 -17 q 104 81 149 40 l 179 165 z "},"\u0000":{"ha":0,"x_min":0,"x_max":0,"o":""},"\r":{"ha":833,"x_min":0,"x_max":0,"o":""}," ":{"ha":833,"x_min":0,"x_max":0,"o":""},"A":{"ha":833,"x_min":36,"x_max":797,"o":"m 540 371 l 503 496 q 459 647 481 571 q 417 799 438 722 l 411 799 q 370 646 392 721 q 326 496 349 571 l 289 371 l 540 371 m 572 261 l 256 261 l 178 0 l 36 0 l 336 910 l 497 910 l 797 0 l 650 0 l 572 261 z "},"B":{"ha":833,"x_min":136,"x_max":761,"o":"m 136 910 l 394 910 q 522 898 464 910 q 623 860 581 886 q 689 790 665 833 q 713 686 713 747 q 674 565 713 619 q 554 489 635 510 l 554 483 q 708 413 654 467 q 761 267 761 360 q 735 149 761 199 q 664 65 710 99 q 555 16 618 32 q 417 0 492 0 l 136 0 l 136 910 m 378 528 q 530 565 483 528 q 576 672 576 601 q 528 771 576 740 q 382 801 479 801 l 275 801 l 275 528 l 378 528 m 400 110 q 567 150 508 110 q 625 275 625 190 q 568 390 625 354 q 400 426 511 426 l 275 426 l 275 110 l 400 110 z "},"C":{"ha":833,"x_min":88,"x_max":775,"o":"m 88 453 q 119 651 88 564 q 205 800 150 739 q 335 894 260 861 q 501 926 411 926 q 649 892 585 926 q 754 814 714 858 l 676 726 q 599 784 642 763 q 501 806 557 806 q 390 781 440 806 q 305 712 340 757 q 250 602 269 667 q 231 457 231 538 q 250 310 231 375 q 306 199 269 244 q 392 128 342 153 q 504 104 442 104 q 609 129 563 104 q 697 200 656 154 l 775 115 q 651 17 719 51 q 496 -17 583 -17 q 335 15 410 -17 q 205 106 260 46 q 119 253 150 167 q 88 453 88 340 z "},"D":{"ha":833,"x_min":111,"x_max":765,"o":"m 111 910 l 340 910 q 655 796 544 910 q 765 458 765 682 q 656 118 765 236 q 346 0 546 0 l 111 0 l 111 910 m 331 113 q 548 200 474 113 q 622 458 622 288 q 548 713 622 629 q 331 797 474 797 l 250 797 l 250 113 l 331 113 z "},"E":{"ha":833,"x_min":153,"x_max":738,"o":"m 153 910 l 724 910 l 724 793 l 292 793 l 292 533 l 657 533 l 657 417 l 292 417 l 292 117 l 738 117 l 738 0 l 153 0 l 153 910 z "},"F":{"ha":833,"x_min":178,"x_max":744,"o":"m 178 910 l 744 910 l 744 793 l 315 793 l 315 511 l 679 511 l 679 393 l 315 393 l 315 0 l 178 0 l 178 910 z "},"G":{"ha":833,"x_min":71,"x_max":746,"o":"m 71 453 q 101 652 71 564 q 186 801 132 740 q 315 894 240 863 q 478 926 390 926 q 631 891 568 926 q 733 814 693 856 l 656 726 q 582 783 624 761 q 478 806 540 806 q 371 781 419 806 q 288 712 322 757 q 233 602 253 667 q 214 457 214 538 q 282 199 214 293 q 479 104 350 104 q 558 117 521 104 q 618 151 594 129 l 618 368 l 450 368 l 450 482 l 746 482 l 746 90 q 630 15 701 46 q 471 -17 558 -17 q 311 15 385 -17 q 184 106 238 46 q 101 253 131 167 q 71 453 71 340 z "},"H":{"ha":833,"x_min":104,"x_max":729,"o":"m 104 910 l 244 910 l 244 536 l 589 536 l 589 910 l 729 910 l 729 0 l 589 0 l 589 415 l 244 415 l 244 0 l 104 0 l 104 910 z "},"I":{"ha":833,"x_min":125,"x_max":708,"o":"m 125 117 l 347 117 l 347 793 l 125 793 l 125 910 l 708 910 l 708 793 l 486 793 l 486 117 l 708 117 l 708 0 l 125 0 l 125 117 z "},"J":{"ha":833,"x_min":104,"x_max":693,"o":"m 192 218 q 279 132 231 160 q 379 104 328 104 q 512 151 469 104 q 554 307 554 199 l 554 794 l 181 794 l 181 911 l 693 911 l 693 296 q 677 174 693 231 q 625 75 661 118 q 529 8 589 32 q 382 -17 469 -17 q 230 19 306 -17 q 104 135 154 54 l 192 218 z "},"K":{"ha":833,"x_min":125,"x_max":810,"o":"m 125 910 l 265 910 l 265 475 l 269 475 l 622 910 l 778 910 l 496 558 l 810 0 l 656 0 l 411 450 l 265 276 l 265 0 l 125 0 l 125 910 z "},"L":{"ha":833,"x_min":176,"x_max":751,"o":"m 176 910 l 314 910 l 314 117 l 751 117 l 751 0 l 176 0 l 176 910 z "},"M":{"ha":833,"x_min":107,"x_max":726,"o":"m 107 910 l 254 910 l 374 540 l 415 397 l 421 397 l 461 540 l 579 910 l 726 910 l 726 0 l 610 0 l 610 457 q 612 528 610 488 q 617 613 614 569 q 622 699 619 657 q 628 771 625 740 l 624 771 l 561 563 l 450 246 l 381 246 l 269 563 l 207 771 l 203 771 q 208 699 206 740 q 214 613 211 657 q 219 528 217 569 q 221 457 221 488 l 221 0 l 107 0 l 107 910 z "},"N":{"ha":833,"x_min":110,"x_max":724,"o":"m 110 910 l 250 910 l 519 367 l 607 178 l 611 178 q 599 325 607 247 q 592 476 592 403 l 592 910 l 724 910 l 724 0 l 583 0 l 314 543 l 226 732 l 222 732 q 234 586 226 661 q 242 436 242 511 l 242 0 l 110 0 l 110 910 z "},"O":{"ha":833,"x_min":63,"x_max":771,"o":"m 417 -17 q 274 17 339 -17 q 161 111 208 50 q 88 260 114 172 q 63 458 63 349 q 88 655 63 568 q 161 802 114 742 q 274 894 208 863 q 417 926 339 926 q 560 894 494 926 q 672 802 625 863 q 744 655 718 742 q 771 458 771 568 q 744 260 771 349 q 672 111 718 172 q 560 17 625 50 q 417 -17 494 -17 m 417 104 q 503 129 464 104 q 569 201 542 154 q 613 313 597 247 q 628 458 628 378 q 570 713 628 621 q 417 806 513 806 q 263 713 321 806 q 206 458 206 621 q 221 313 206 378 q 264 201 236 247 q 331 129 292 154 q 417 104 369 104 z "},"P":{"ha":833,"x_min":131,"x_max":765,"o":"m 131 910 l 424 910 q 561 896 499 910 q 669 849 624 882 q 740 765 715 817 q 765 636 765 713 q 740 508 765 563 q 668 417 714 453 q 560 365 622 382 q 424 347 497 347 l 269 347 l 269 0 l 131 0 l 131 910 m 410 460 q 574 502 521 460 q 628 636 628 544 q 573 763 628 728 q 410 799 518 799 l 269 799 l 269 460 l 410 460 z "},"Q":{"ha":833,"x_min":64,"x_max":778,"o":"m 206 458 q 220 313 206 378 q 262 201 235 247 q 327 128 289 154 q 414 103 365 103 q 501 128 463 103 q 566 201 539 154 q 608 313 593 247 q 622 458 622 378 q 608 603 622 539 q 566 713 593 668 q 501 783 539 758 q 414 807 463 807 q 327 783 365 807 q 262 713 289 758 q 220 603 235 668 q 206 458 206 539 m 778 -210 q 728 -226 756 -219 q 667 -232 700 -232 q 555 -215 606 -232 q 464 -169 504 -199 q 394 -99 424 -139 q 347 -10 365 -58 q 230 41 282 3 q 141 140 178 79 q 84 281 104 200 q 64 458 64 361 q 90 656 64 568 q 161 803 115 743 q 272 896 207 864 q 414 928 336 928 q 556 895 492 928 q 667 802 621 863 q 738 655 713 742 q 764 458 764 568 q 744 285 764 364 q 690 147 725 206 q 605 48 654 88 q 494 -7 556 8 q 567 -90 518 -64 q 683 -115 617 -115 q 753 -101 725 -115 l 778 -210 z "},"R":{"ha":833,"x_min":128,"x_max":779,"o":"m 267 482 l 404 482 q 557 523 504 482 q 610 647 610 564 q 557 765 610 731 q 404 799 504 799 l 267 799 l 267 482 m 622 0 l 415 369 l 267 369 l 267 0 l 128 0 l 128 910 l 421 910 q 551 897 492 910 q 655 852 611 883 q 723 771 699 821 q 747 647 747 721 q 695 478 747 542 q 556 388 643 414 l 779 0 l 622 0 z "},"S":{"ha":833,"x_min":88,"x_max":751,"o":"m 168 213 q 287 134 221 164 q 424 104 353 104 q 562 140 514 104 q 610 238 610 176 q 598 290 610 268 q 565 328 586 313 q 515 357 544 344 q 451 383 486 369 l 324 440 q 254 474 289 454 q 192 523 219 494 q 147 590 164 551 q 129 678 129 628 q 151 776 129 731 q 215 856 174 822 q 312 908 256 889 q 436 926 368 926 q 594 896 521 926 q 721 813 668 865 l 649 724 q 553 784 604 763 q 436 806 501 806 q 314 774 358 806 q 269 686 269 742 q 283 635 269 656 q 318 598 296 614 q 369 570 340 582 q 428 546 397 558 l 551 492 q 631 453 594 475 q 694 403 667 432 q 736 337 721 375 q 751 249 751 299 q 729 146 751 194 q 664 61 707 97 q 560 4 621 25 q 421 -17 499 -17 q 238 19 322 -17 q 88 118 153 54 l 168 213 z "},"T":{"ha":833,"x_min":54,"x_max":779,"o":"m 347 793 l 54 793 l 54 910 l 779 910 l 779 793 l 486 793 l 486 0 l 347 0 l 347 793 z "},"U":{"ha":833,"x_min":104,"x_max":729,"o":"m 104 910 l 244 910 l 244 338 q 292 158 244 213 q 418 104 340 104 q 545 158 496 104 q 594 338 594 213 l 594 910 l 729 910 l 729 346 q 707 181 729 250 q 644 69 685 113 q 547 4 604 25 q 418 -17 489 -17 q 290 4 347 -17 q 190 69 232 25 q 126 181 149 113 q 104 346 104 250 l 104 910 z "},"V":{"ha":833,"x_min":49,"x_max":785,"o":"m 49 910 l 196 910 l 333 436 q 375 287 357 357 q 417 138 393 217 l 422 138 q 465 287 447 217 q 507 436 483 357 l 643 910 l 785 910 l 499 0 l 336 0 l 49 910 z "},"W":{"ha":833,"x_min":13,"x_max":821,"o":"m 13 911 l 151 911 l 213 361 q 220 249 215 304 q 229 135 225 193 l 233 135 q 262 249 247 193 q 289 361 276 304 l 376 676 l 468 676 l 556 361 q 581 249 567 306 q 610 135 596 193 l 615 135 q 624 249 619 193 q 632 361 628 306 l 690 911 l 821 911 l 693 0 l 543 0 l 451 357 q 434 441 442 399 q 419 524 426 483 l 415 524 q 401 441 408 483 q 382 357 393 399 l 294 0 l 147 0 l 13 911 z "},"X":{"ha":833,"x_min":63,"x_max":771,"o":"m 332 469 l 79 910 l 233 910 l 351 693 q 385 629 368 661 q 422 557 401 597 l 428 557 q 462 629 447 597 q 493 693 476 661 l 607 910 l 754 910 l 501 463 l 771 0 l 618 0 l 490 229 q 452 299 471 264 q 413 376 433 335 l 407 376 q 369 299 388 335 q 333 229 351 264 l 208 0 l 63 0 l 332 469 z "},"Y":{"ha":833,"x_min":46,"x_max":788,"o":"m 347 319 l 46 910 l 193 910 l 318 653 q 367 548 343 600 q 417 442 390 496 l 422 442 q 474 548 449 496 q 524 653 499 600 l 644 910 l 788 910 l 486 319 l 486 0 l 347 0 l 347 319 z "},"Z":{"ha":833,"x_min":88,"x_max":751,"o":"m 88 83 l 575 794 l 131 794 l 131 911 l 744 911 l 744 826 l 257 117 l 751 117 l 751 0 l 88 0 l 88 83 z "},"a":{"ha":833,"x_min":106,"x_max":722,"o":"m 106 179 q 133 279 106 236 q 217 353 160 322 q 366 403 275 383 q 585 432 457 422 q 544 539 582 494 q 415 583 506 583 q 294 560 353 583 q 185 507 235 536 l 133 600 q 196 634 161 617 q 270 665 231 651 q 352 688 310 679 q 439 696 394 696 q 651 619 581 696 q 722 408 722 543 l 722 0 l 610 0 l 599 88 l 594 88 q 473 15 540 46 q 335 -17 406 -17 q 244 -3 286 -17 q 171 37 201 11 q 123 99 140 63 q 106 179 106 135 m 239 189 q 278 115 239 138 q 374 93 318 93 q 480 117 428 93 q 585 183 532 140 l 585 344 q 418 323 485 336 q 312 290 351 310 q 256 244 272 269 q 239 189 239 219 z "},"b":{"ha":833,"x_min":122,"x_max":756,"o":"m 122 985 l 260 985 l 260 724 l 256 599 q 359 669 301 643 q 475 696 417 696 q 594 672 542 696 q 683 602 647 647 q 737 493 718 557 q 756 350 756 429 q 731 194 756 263 q 663 80 706 126 q 566 8 621 33 q 451 -17 511 -17 q 348 7 403 -17 q 247 75 293 31 l 243 75 l 231 0 l 122 0 l 122 985 m 260 168 q 347 113 303 129 q 425 97 392 97 q 560 162 506 97 q 614 349 614 226 q 572 518 614 456 q 439 581 531 581 q 351 559 397 581 q 260 489 306 538 l 260 168 z "},"c":{"ha":833,"x_min":106,"x_max":751,"o":"m 106 339 q 136 490 106 424 q 219 603 167 557 q 341 672 272 649 q 488 696 410 696 q 633 667 571 696 q 738 599 696 639 l 671 511 q 588 563 631 544 q 494 582 544 582 q 394 565 440 582 q 316 515 349 547 q 265 438 283 483 q 247 339 247 393 q 265 240 247 285 q 315 163 282 194 q 392 113 347 131 q 490 96 436 96 q 603 119 553 96 q 693 176 653 143 l 751 88 q 624 10 693 38 q 479 -17 554 -17 q 331 7 400 -17 q 213 76 263 31 q 134 188 163 122 q 106 339 106 254 z "},"d":{"ha":833,"x_min":78,"x_max":711,"o":"m 78 339 q 103 488 78 422 q 172 600 129 554 q 269 671 214 646 q 382 696 324 696 q 490 674 444 696 q 579 611 535 651 l 574 732 l 574 985 l 711 985 l 711 0 l 599 0 l 588 83 l 583 83 q 488 13 543 43 q 371 -17 432 -17 q 251 7 304 -17 q 158 76 197 31 q 99 188 119 122 q 78 339 78 254 m 219 340 q 267 160 219 222 q 403 97 315 97 q 574 189 494 97 l 574 511 q 493 565 533 550 q 413 581 453 581 q 338 564 372 581 q 276 516 303 547 q 235 440 250 485 q 219 340 219 396 z "},"e":{"ha":833,"x_min":90,"x_max":750,"o":"m 90 339 q 119 488 90 422 q 197 601 149 554 q 308 672 246 647 q 438 696 371 696 q 570 672 513 696 q 668 606 628 649 q 729 505 708 564 q 750 375 750 446 q 748 335 750 354 q 743 304 746 317 l 232 304 q 306 148 239 204 q 476 92 374 92 q 580 107 532 92 q 674 150 628 122 l 722 63 q 603 6 669 29 q 458 -17 538 -17 q 315 8 382 -17 q 197 78 247 32 q 119 190 147 124 q 90 339 90 256 m 622 399 q 575 539 622 490 q 440 588 528 588 q 304 539 364 588 q 231 399 244 490 l 622 399 z "},"f":{"ha":833,"x_min":136,"x_max":806,"o":"m 775 861 q 701 885 736 878 q 622 892 665 892 q 500 849 538 892 q 463 729 463 807 l 463 679 l 733 679 l 733 568 l 463 568 l 463 0 l 326 0 l 326 568 l 136 568 l 136 672 l 326 679 l 326 726 q 343 838 326 788 q 394 925 360 889 q 482 981 429 961 q 607 1001 535 1001 q 806 963 708 1001 l 775 861 z "},"g":{"ha":833,"x_min":93,"x_max":788,"o":"m 210 -106 q 263 -184 210 -154 q 418 -214 317 -214 q 516 -203 472 -214 q 591 -176 560 -193 q 639 -136 622 -158 q 656 -89 656 -114 q 619 -30 656 -44 q 508 -15 582 -15 l 389 -15 q 332 -13 357 -15 q 285 -4 307 -11 q 226 -53 243 -28 q 210 -106 210 -78 m 93 -122 q 122 -44 93 -82 q 203 25 150 -6 l 203 31 q 154 73 175 46 q 133 143 133 100 q 155 210 133 176 q 215 271 176 244 l 215 276 q 154 347 179 303 q 129 451 129 390 q 151 553 129 508 q 211 631 174 599 q 298 679 249 663 q 403 696 347 696 q 506 679 460 696 l 785 679 l 785 575 l 615 575 q 653 520 636 553 q 669 447 669 488 q 649 349 669 392 q 592 276 628 306 q 507 231 556 246 q 403 215 458 215 q 349 221 378 215 q 293 238 321 226 q 246 167 246 207 q 281 113 246 129 q 381 96 315 96 l 525 96 q 723 58 658 96 q 788 -68 788 19 q 760 -160 788 -117 q 683 -235 733 -203 q 563 -287 633 -268 q 404 -306 492 -306 q 176 -259 260 -306 q 93 -122 93 -212 m 403 304 q 503 343 461 304 q 544 451 544 382 q 503 558 544 518 q 403 599 461 599 q 303 558 344 599 q 261 451 261 518 q 303 343 261 382 q 403 304 344 304 z "},"h":{"ha":833,"x_min":122,"x_max":732,"o":"m 122 985 l 260 985 l 260 724 l 251 571 q 363 660 303 624 q 501 696 422 696 q 676 625 621 696 q 732 421 732 554 l 732 0 l 594 0 l 594 403 q 563 534 594 492 q 453 576 531 576 q 356 549 399 576 q 260 468 313 522 l 260 0 l 122 0 l 122 985 z "},"i":{"ha":833,"x_min":121,"x_max":585,"o":"m 121 679 l 563 679 l 563 0 l 425 0 l 425 568 l 121 568 l 121 679 m 482 808 q 408 835 438 808 q 379 906 379 861 q 408 977 379 950 q 482 1004 438 1004 q 556 977 526 1004 q 585 906 585 950 q 556 835 585 861 q 482 808 526 808 z "},"j":{"ha":833,"x_min":72,"x_max":585,"o":"m 121 679 l 563 679 l 563 -1 q 549 -117 563 -64 q 501 -210 535 -171 q 410 -272 467 -250 q 269 -294 354 -294 q 163 -281 214 -294 q 72 -249 113 -268 l 115 -147 q 265 -183 192 -183 q 392 -138 358 -183 q 425 -10 425 -93 l 425 568 l 121 568 l 121 679 m 482 808 q 408 835 438 808 q 379 906 379 861 q 408 977 379 950 q 482 1004 438 1004 q 556 977 526 1004 q 585 906 585 950 q 556 835 585 861 q 482 808 526 808 z "},"k":{"ha":833,"x_min":136,"x_max":801,"o":"m 136 985 l 274 985 l 274 343 l 279 343 l 614 679 l 768 679 l 503 407 l 801 0 l 650 0 l 418 322 l 274 181 l 274 0 l 136 0 l 136 985 z "},"l":{"ha":833,"x_min":106,"x_max":749,"o":"m 106 985 l 465 985 l 465 229 q 501 127 465 158 q 593 96 536 96 q 650 103 621 96 q 715 125 679 110 l 749 22 q 703 7 725 14 q 660 -5 682 0 q 613 -13 638 -10 q 560 -17 589 -17 q 387 49 446 -17 q 328 238 328 114 l 328 875 l 106 875 l 106 985 z "},"m":{"ha":833,"x_min":75,"x_max":778,"o":"m 75 679 l 181 679 l 192 590 l 196 590 q 253 666 219 636 q 346 696 288 696 q 472 581 447 696 q 536 664 500 632 q 629 696 572 696 q 739 641 700 696 q 778 483 778 586 l 778 0 l 647 0 l 647 472 q 583 576 647 576 q 528 553 551 576 q 481 483 504 531 l 481 0 l 372 0 l 372 472 q 306 576 372 576 q 251 553 274 576 q 206 483 229 531 l 206 0 l 75 0 l 75 679 z "},"n":{"ha":833,"x_min":122,"x_max":732,"o":"m 122 679 l 235 679 l 246 569 l 251 569 q 363 659 303 622 q 501 696 422 696 q 676 625 621 696 q 732 421 732 554 l 732 0 l 594 0 l 594 403 q 563 534 594 492 q 453 576 531 576 q 356 549 399 576 q 260 468 313 522 l 260 0 l 122 0 l 122 679 z "},"o":{"ha":833,"x_min":78,"x_max":756,"o":"m 78 339 q 106 490 78 424 q 181 603 133 557 q 289 672 228 649 q 417 696 350 696 q 544 672 483 696 q 653 603 606 649 q 728 490 700 557 q 756 339 756 424 q 728 188 756 254 q 653 76 700 122 q 544 7 606 31 q 417 -17 483 -17 q 289 7 350 -17 q 181 76 228 31 q 106 188 133 122 q 78 339 78 254 m 219 339 q 272 163 219 229 q 417 96 325 96 q 561 163 508 96 q 614 339 614 229 q 561 515 614 449 q 417 582 508 582 q 272 515 325 582 q 219 339 219 449 z "},"p":{"ha":833,"x_min":122,"x_max":756,"o":"m 260 -56 l 260 -278 l 122 -278 l 122 679 l 235 679 l 246 596 l 250 596 q 356 668 296 640 q 476 696 415 696 q 595 672 543 696 q 683 602 647 647 q 737 493 718 557 q 756 350 756 429 q 731 194 756 263 q 663 80 706 126 q 565 8 621 33 q 450 -17 510 -17 q 351 5 403 -17 q 256 67 300 26 l 260 -56 m 260 168 q 347 113 303 129 q 424 97 392 97 q 560 162 506 97 q 614 349 614 226 q 572 518 614 456 q 439 581 531 581 q 351 559 397 581 q 260 489 306 538 l 260 168 z "},"q":{"ha":833,"x_min":78,"x_max":711,"o":"m 78 339 q 103 488 78 422 q 172 600 129 554 q 269 671 214 646 q 382 696 324 696 q 492 673 443 696 q 586 606 540 650 l 590 606 l 603 679 l 711 679 l 711 -278 l 574 -278 l 574 -37 l 581 81 q 484 11 539 39 q 371 -17 429 -17 q 251 7 304 -17 q 158 76 197 31 q 99 188 119 122 q 78 339 78 254 m 219 340 q 267 160 219 222 q 403 97 315 97 q 574 189 494 97 l 574 511 q 493 565 533 550 q 413 581 453 581 q 338 564 372 581 q 276 516 303 547 q 235 440 250 485 q 219 340 219 396 z "},"r":{"ha":833,"x_min":192,"x_max":750,"o":"m 192 679 l 306 679 l 317 521 l 321 521 q 449 650 374 604 q 617 696 525 696 q 688 690 657 696 q 750 668 718 683 l 719 550 q 660 567 685 561 q 596 572 635 572 q 454 531 522 572 q 329 386 386 489 l 329 0 l 192 0 l 192 679 z "},"s":{"ha":833,"x_min":93,"x_max":736,"o":"m 158 178 q 281 113 217 138 q 429 89 344 89 q 557 115 517 89 q 597 182 597 142 q 549 247 597 219 q 388 303 500 275 q 291 333 338 315 q 210 376 244 351 q 154 430 175 400 q 133 497 133 460 q 152 576 133 540 q 208 639 171 613 q 300 681 246 665 q 425 696 354 696 q 578 669 506 696 q 703 607 651 642 l 639 521 q 540 571 593 551 q 426 590 488 590 q 306 565 340 590 q 272 504 272 540 q 328 440 272 465 q 471 393 383 415 q 667 316 599 361 q 736 190 736 271 q 715 110 736 147 q 655 44 694 72 q 558 -1 615 15 q 425 -17 500 -17 q 242 15 328 -17 q 93 89 156 46 l 158 178 z "},"t":{"ha":833,"x_min":89,"x_max":760,"o":"m 275 568 l 89 568 l 89 672 l 281 679 l 299 867 l 413 867 l 413 679 l 733 679 l 733 568 l 413 568 l 413 268 q 448 138 413 181 q 576 94 483 94 q 659 102 621 94 q 732 124 697 110 l 760 22 q 658 -5 714 7 q 544 -17 603 -17 q 417 4 469 -17 q 334 63 365 25 q 289 152 303 100 q 275 268 275 204 l 275 568 z "},"u":{"ha":833,"x_min":101,"x_max":708,"o":"m 708 0 l 596 0 l 585 113 l 579 113 q 470 19 529 54 q 333 -17 411 -17 q 157 53 213 -17 q 101 258 101 124 l 101 679 l 239 679 l 239 276 q 271 144 239 186 q 381 101 303 101 q 477 127 433 101 q 571 214 521 153 l 571 679 l 708 679 l 708 0 z "},"v":{"ha":833,"x_min":64,"x_max":769,"o":"m 64 679 l 203 679 l 346 310 q 383 208 365 258 q 418 108 400 158 l 424 108 q 458 208 442 158 q 494 310 475 258 l 638 679 l 769 679 l 497 0 l 342 0 l 64 679 z "},"w":{"ha":833,"x_min":10,"x_max":824,"o":"m 10 679 l 147 679 l 219 307 q 236 210 229 258 q 250 114 243 163 l 256 114 q 293 307 272 208 l 365 625 l 474 625 l 549 307 q 569 210 560 258 q 588 114 578 163 l 593 114 q 609 210 603 163 q 624 307 615 258 l 696 679 l 824 679 l 688 0 l 524 0 l 454 313 q 437 409 444 361 q 419 510 429 457 l 414 510 q 399 421 407 468 q 381 311 392 374 l 313 0 l 151 0 l 10 679 z "},"x":{"ha":833,"x_min":79,"x_max":753,"o":"m 332 353 l 97 679 l 247 679 l 346 540 q 383 483 364 513 q 422 425 403 453 l 428 425 q 465 483 446 453 q 500 542 483 514 l 590 679 l 736 679 l 500 339 l 753 0 l 603 0 l 494 144 q 453 206 475 174 q 408 267 431 238 l 403 267 q 364 206 383 236 q 325 144 344 176 l 225 0 l 79 0 l 332 353 z "},"y":{"ha":833,"x_min":63,"x_max":772,"o":"m 121 -164 q 149 -171 133 -168 q 179 -174 164 -174 q 289 -137 247 -174 q 354 -43 331 -100 l 372 4 l 63 679 l 200 679 l 353 325 q 392 228 372 279 q 432 126 411 176 l 438 126 q 472 226 454 175 q 507 325 490 278 l 642 679 l 772 679 l 482 -43 q 435 -142 461 -97 q 373 -218 408 -186 q 292 -267 338 -250 q 186 -285 246 -285 q 137 -281 161 -285 q 93 -271 113 -278 l 121 -164 l 121 -164 z "},"z":{"ha":833,"x_min":99,"x_max":742,"o":"m 99 74 l 535 568 l 149 568 l 149 679 l 729 679 l 729 606 l 292 111 l 742 111 l 742 0 l 99 0 l 99 74 z "},"À":{"ha":833,"x_min":36,"x_max":797,"o":"m 540 371 l 503 496 q 459 647 481 571 q 417 799 438 722 l 411 799 q 370 646 392 721 q 326 496 349 571 l 289 371 l 540 371 m 572 261 l 256 261 l 178 0 l 36 0 l 336 910 l 497 910 l 797 0 l 650 0 l 572 261 m 224 1138 l 376 1138 l 496 979 l 383 979 l 224 1138 z "},"Á":{"ha":833,"x_min":36,"x_max":797,"o":"m 540 371 l 503 496 q 459 647 481 571 q 417 799 438 722 l 411 799 q 370 646 392 721 q 326 496 349 571 l 289 371 l 540 371 m 572 261 l 256 261 l 178 0 l 36 0 l 336 910 l 497 910 l 797 0 l 650 0 l 572 261 m 450 979 l 338 979 l 457 1138 l 610 1138 l 450 979 z "},"Â":{"ha":833,"x_min":36,"x_max":797,"o":"m 540 371 l 503 496 q 459 647 481 571 q 417 799 438 722 l 411 799 q 370 646 392 721 q 326 496 349 571 l 289 371 l 540 371 m 572 261 l 256 261 l 178 0 l 36 0 l 336 910 l 497 910 l 797 0 l 650 0 l 572 261 m 217 979 l 350 1138 l 483 1138 l 617 979 l 507 979 l 419 1071 l 414 1071 l 326 979 l 217 979 z "},"Ã":{"ha":833,"x_min":36,"x_max":797,"o":"m 540 371 l 503 496 q 459 647 481 571 q 417 799 438 722 l 411 799 q 370 646 392 721 q 326 496 349 571 l 289 371 l 540 371 m 572 261 l 256 261 l 178 0 l 36 0 l 336 910 l 497 910 l 797 0 l 650 0 l 572 261 m 501 985 q 451 996 474 985 q 410 1019 429 1007 q 372 1043 390 1032 q 336 1054 354 1054 q 281 985 293 1054 l 207 985 q 247 1101 214 1057 q 332 1144 281 1144 q 382 1133 360 1144 q 424 1110 404 1122 q 461 1086 443 1097 q 497 1075 479 1075 q 553 1144 540 1075 l 626 1144 q 586 1028 619 1072 q 501 985 553 985 z "},"Ä":{"ha":833,"x_min":36,"x_max":797,"o":"m 540 371 l 503 496 q 459 647 481 571 q 417 799 438 722 l 411 799 q 370 646 392 721 q 326 496 349 571 l 289 371 l 540 371 m 572 261 l 256 261 l 178 0 l 36 0 l 336 910 l 497 910 l 797 0 l 650 0 l 572 261 m 292 988 q 238 1009 260 988 q 217 1064 217 1031 q 238 1117 217 1096 q 292 1139 260 1139 q 347 1117 325 1139 q 368 1064 368 1096 q 347 1009 368 1031 q 292 988 325 988 m 542 988 q 487 1009 508 988 q 465 1064 465 1031 q 487 1117 465 1096 q 542 1139 508 1139 q 595 1117 574 1139 q 617 1064 617 1096 q 595 1009 617 1031 q 542 988 574 988 z "},"Ā":{"ha":833,"x_min":36,"x_max":797,"o":"m 540 371 l 503 496 q 459 647 481 571 q 417 799 438 722 l 411 799 q 370 646 392 721 q 326 496 349 571 l 289 371 l 540 371 m 572 261 l 256 261 l 178 0 l 36 0 l 336 910 l 497 910 l 797 0 l 650 0 l 572 261 m 239 1101 l 594 1101 l 594 1008 l 239 1008 l 239 1101 z "},"Ă":{"ha":833,"x_min":36,"x_max":797,"o":"m 540 371 l 503 496 q 459 647 481 571 q 417 799 438 722 l 411 799 q 370 646 392 721 q 326 496 349 571 l 289 371 l 540 371 m 572 261 l 256 261 l 178 0 l 36 0 l 336 910 l 497 910 l 797 0 l 650 0 l 572 261 m 417 981 q 342 993 374 981 q 290 1028 311 1006 q 256 1078 268 1050 q 240 1138 244 1106 l 321 1138 q 350 1081 328 1106 q 417 1056 372 1056 q 483 1081 461 1056 q 513 1138 506 1106 l 593 1138 q 577 1078 589 1106 q 544 1028 565 1050 q 491 993 522 1006 q 417 981 460 981 z "},"Å":{"ha":833,"x_min":36,"x_max":797,"o":"m 540 371 l 503 496 q 459 647 481 571 q 417 799 438 722 l 411 799 q 370 646 392 721 q 326 496 349 571 l 289 371 l 540 371 m 572 261 l 256 261 l 178 0 l 36 0 l 336 910 l 497 910 l 797 0 l 650 0 l 572 261 m 417 969 q 318 1003 356 969 q 281 1096 281 1038 q 318 1188 281 1154 q 417 1221 356 1221 q 515 1188 476 1221 q 553 1096 553 1154 q 515 1003 553 1038 q 417 969 476 969 m 417 1026 q 461 1045 443 1026 q 479 1096 479 1064 q 461 1146 479 1128 q 417 1164 443 1164 q 371 1146 389 1164 q 353 1096 353 1128 q 371 1045 353 1064 q 417 1026 389 1026 z "},"Ǎ":{"ha":833,"x_min":36,"x_max":797,"o":"m 540 371 l 503 496 q 459 647 481 571 q 417 799 438 722 l 411 799 q 370 646 392 721 q 326 496 349 571 l 289 371 l 540 371 m 572 261 l 256 261 l 178 0 l 36 0 l 336 910 l 497 910 l 797 0 l 650 0 l 572 261 m 617 1138 l 483 979 l 350 979 l 217 1138 l 326 1138 l 414 1046 l 419 1046 l 507 1138 l 617 1138 z "},"Ạ":{"ha":833,"x_min":36,"x_max":797,"o":"m 540 371 l 503 496 q 459 647 481 571 q 417 799 438 722 l 411 799 q 370 646 392 721 q 326 496 349 571 l 289 371 l 540 371 m 572 261 l 256 261 l 178 0 l 36 0 l 336 910 l 497 910 l 797 0 l 650 0 l 572 261 m 417 -324 q 343 -297 372 -324 q 314 -226 314 -271 q 343 -155 314 -182 q 417 -128 372 -128 q 490 -155 461 -128 q 519 -226 519 -182 q 490 -297 519 -271 q 417 -324 461 -324 z "},"Ả":{"ha":833,"x_min":36,"x_max":797,"o":"m 540 371 l 503 496 q 459 647 481 571 q 417 799 438 722 l 411 799 q 370 646 392 721 q 326 496 349 571 l 289 371 l 540 371 m 572 261 l 256 261 l 178 0 l 36 0 l 336 910 l 497 910 l 797 0 l 650 0 l 572 261 m 361 1028 q 415 1048 393 1035 q 436 1085 436 1061 q 322 1140 436 1135 l 336 1217 q 539 1100 539 1210 q 526 1045 539 1068 q 490 1006 513 1022 q 438 981 467 990 q 375 967 408 971 l 361 1028 z "},"Ấ":{"ha":833,"x_min":36,"x_max":797,"o":"m 540 371 l 503 496 q 459 647 481 571 q 417 799 438 722 l 411 799 q 370 646 392 721 q 326 496 349 571 l 289 371 l 540 371 m 572 261 l 256 261 l 178 0 l 36 0 l 336 910 l 497 910 l 797 0 l 650 0 l 572 261 m 649 1228 l 764 1228 l 635 1069 l 551 1069 l 649 1228 m 357 1129 l 476 1129 l 606 979 l 503 979 l 419 1063 l 414 1063 l 331 979 l 228 979 l 357 1129 z "},"Ầ":{"ha":833,"x_min":36,"x_max":797,"o":"m 540 371 l 503 496 q 459 647 481 571 q 417 799 438 722 l 411 799 q 370 646 392 721 q 326 496 349 571 l 289 371 l 540 371 m 572 261 l 256 261 l 178 0 l 36 0 l 336 910 l 497 910 l 797 0 l 650 0 l 572 261 m 692 1069 l 608 1069 l 479 1228 l 594 1228 l 692 1069 m 357 1129 l 476 1129 l 606 979 l 503 979 l 419 1063 l 414 1063 l 331 979 l 228 979 l 357 1129 z "},"Ẩ":{"ha":833,"x_min":36,"x_max":797,"o":"m 540 371 l 503 496 q 459 647 481 571 q 417 799 438 722 l 411 799 q 370 646 392 721 q 326 496 349 571 l 289 371 l 540 371 m 572 261 l 256 261 l 178 0 l 36 0 l 336 910 l 497 910 l 797 0 l 650 0 l 572 261 m 569 1099 q 610 1115 593 1104 q 626 1146 626 1125 q 605 1183 626 1171 q 531 1197 583 1194 l 544 1263 q 721 1158 721 1257 q 710 1111 721 1131 q 680 1078 699 1092 q 636 1058 661 1065 q 585 1046 611 1050 l 569 1099 m 357 1129 l 476 1129 l 606 979 l 503 979 l 419 1063 l 414 1063 l 331 979 l 228 979 l 357 1129 z "},"Ẫ":{"ha":833,"x_min":36,"x_max":797,"o":"m 540 371 l 503 496 q 459 647 481 571 q 417 799 438 722 l 411 799 q 370 646 392 721 q 326 496 349 571 l 289 371 l 540 371 m 572 261 l 256 261 l 178 0 l 36 0 l 336 910 l 497 910 l 797 0 l 650 0 l 572 261 m 357 1129 l 476 1129 l 606 979 l 503 979 l 419 1063 l 414 1063 l 331 979 l 228 979 l 357 1129 m 228 1179 q 263 1277 233 1242 q 340 1313 293 1313 q 387 1303 367 1313 q 424 1284 407 1294 q 456 1265 442 1274 q 488 1256 471 1256 q 540 1313 531 1256 l 606 1313 q 570 1215 600 1250 q 493 1179 540 1179 q 447 1188 467 1179 q 409 1208 426 1197 q 377 1227 392 1218 q 346 1236 363 1236 q 293 1179 303 1236 l 228 1179 z "},"Ậ":{"ha":833,"x_min":36,"x_max":797,"o":"m 540 371 l 503 496 q 459 647 481 571 q 417 799 438 722 l 411 799 q 370 646 392 721 q 326 496 349 571 l 289 371 l 540 371 m 572 261 l 256 261 l 178 0 l 36 0 l 336 910 l 497 910 l 797 0 l 650 0 l 572 261 m 217 979 l 350 1138 l 483 1138 l 617 979 l 507 979 l 419 1071 l 414 1071 l 326 979 l 217 979 m 417 -324 q 343 -297 372 -324 q 314 -226 314 -271 q 343 -155 314 -182 q 417 -128 372 -128 q 490 -155 461 -128 q 519 -226 519 -182 q 490 -297 519 -271 q 417 -324 461 -324 z "},"Ắ":{"ha":833,"x_min":36,"x_max":797,"o":"m 540 371 l 503 496 q 459 647 481 571 q 417 799 438 722 l 411 799 q 370 646 392 721 q 326 496 349 571 l 289 371 l 540 371 m 572 261 l 256 261 l 178 0 l 36 0 l 336 910 l 497 910 l 797 0 l 650 0 l 572 261 m 460 1267 l 574 1267 l 438 1117 l 361 1117 l 460 1267 m 417 981 q 291 1026 333 981 q 242 1135 249 1072 l 313 1135 q 344 1074 321 1100 q 417 1049 368 1049 q 489 1074 465 1049 q 521 1135 513 1100 l 592 1135 q 542 1026 585 1072 q 417 981 500 981 z "},"Ằ":{"ha":833,"x_min":36,"x_max":797,"o":"m 540 371 l 503 496 q 459 647 481 571 q 417 799 438 722 l 411 799 q 370 646 392 721 q 326 496 349 571 l 289 371 l 540 371 m 572 261 l 256 261 l 178 0 l 36 0 l 336 910 l 497 910 l 797 0 l 650 0 l 572 261 m 472 1117 l 396 1117 l 260 1267 l 374 1267 l 472 1117 m 417 981 q 291 1026 333 981 q 242 1135 249 1072 l 313 1135 q 344 1074 321 1100 q 417 1049 368 1049 q 489 1074 465 1049 q 521 1135 513 1100 l 592 1135 q 542 1026 585 1072 q 417 981 500 981 z "},"Ẳ":{"ha":833,"x_min":36,"x_max":797,"o":"m 540 371 l 503 496 q 459 647 481 571 q 417 799 438 722 l 411 799 q 370 646 392 721 q 326 496 349 571 l 289 371 l 540 371 m 572 261 l 256 261 l 178 0 l 36 0 l 336 910 l 497 910 l 797 0 l 650 0 l 572 261 m 367 1165 q 407 1183 390 1172 q 424 1214 424 1193 q 402 1251 424 1239 q 328 1265 381 1263 l 342 1329 q 518 1226 518 1324 q 507 1179 518 1199 q 477 1147 496 1160 q 433 1126 458 1133 q 382 1114 408 1118 l 367 1165 m 417 981 q 291 1026 333 981 q 242 1135 249 1072 l 313 1135 q 344 1074 321 1100 q 417 1049 368 1049 q 489 1074 465 1049 q 521 1135 513 1100 l 592 1135 q 542 1026 585 1072 q 417 981 500 981 z "},"Ẵ":{"ha":833,"x_min":36,"x_max":797,"o":"m 540 371 l 503 496 q 459 647 481 571 q 417 799 438 722 l 411 799 q 370 646 392 721 q 326 496 349 571 l 289 371 l 540 371 m 572 261 l 256 261 l 178 0 l 36 0 l 336 910 l 497 910 l 797 0 l 650 0 l 572 261 m 417 981 q 291 1026 333 981 q 242 1135 249 1072 l 313 1135 q 344 1074 321 1100 q 417 1049 368 1049 q 489 1074 465 1049 q 521 1135 513 1100 l 592 1135 q 542 1026 585 1072 q 417 981 500 981 m 225 1178 q 261 1277 231 1240 q 339 1314 292 1314 q 382 1305 363 1314 q 419 1284 401 1296 q 451 1263 436 1272 q 483 1254 467 1254 q 538 1314 526 1254 l 604 1314 q 568 1215 599 1251 q 490 1178 538 1178 q 446 1187 465 1178 q 410 1208 426 1196 q 378 1228 393 1219 q 346 1238 363 1238 q 311 1222 326 1238 q 292 1178 296 1206 l 225 1178 z "},"Ặ":{"ha":833,"x_min":36,"x_max":797,"o":"m 540 371 l 503 496 q 459 647 481 571 q 417 799 438 722 l 411 799 q 370 646 392 721 q 326 496 349 571 l 289 371 l 540 371 m 572 261 l 256 261 l 178 0 l 36 0 l 336 910 l 497 910 l 797 0 l 650 0 l 572 261 m 417 981 q 342 993 374 981 q 290 1028 311 1006 q 256 1078 268 1050 q 240 1138 244 1106 l 321 1138 q 350 1081 328 1106 q 417 1056 372 1056 q 483 1081 461 1056 q 513 1138 506 1106 l 593 1138 q 577 1078 589 1106 q 544 1028 565 1050 q 491 993 522 1006 q 417 981 460 981 m 417 -324 q 343 -297 372 -324 q 314 -226 314 -271 q 343 -155 314 -182 q 417 -128 372 -128 q 490 -155 461 -128 q 519 -226 519 -182 q 490 -297 519 -271 q 417 -324 461 -324 z "},"Ą":{"ha":833,"x_min":36,"x_max":838,"o":"m 540 371 l 503 496 q 458 647 479 571 q 417 799 438 722 l 411 799 q 371 646 392 721 q 326 496 350 571 l 289 371 l 540 371 m 838 -257 q 781 -287 815 -275 q 717 -299 747 -299 q 618 -267 658 -299 q 578 -175 578 -236 q 588 -119 578 -146 q 613 -70 597 -93 q 648 -29 629 -47 q 685 0 667 -11 l 650 0 l 572 261 l 256 261 l 178 0 l 36 0 l 336 910 l 497 910 l 797 0 q 751 -23 772 -8 q 715 -57 731 -37 q 692 -99 700 -76 q 683 -143 683 -121 q 702 -189 683 -174 q 744 -204 721 -204 q 775 -199 761 -204 q 801 -185 789 -193 l 838 -257 z "},"Æ":{"ha":833,"x_min":-3,"x_max":822,"o":"m 439 360 l 439 803 l 433 803 q 382 658 408 728 q 329 517 356 588 l 272 360 l 439 360 m 822 117 l 822 0 l 439 0 l 439 250 l 232 250 l 142 0 l -3 0 l 342 910 l 810 910 l 810 793 l 564 793 l 564 535 l 757 535 l 757 418 l 564 418 l 564 117 l 822 117 z "},"Ƀ":{"ha":833,"x_min":32,"x_max":771,"o":"m 410 103 q 578 147 518 103 q 638 282 638 190 q 579 406 638 367 q 410 446 521 446 l 276 446 l 276 318 l 461 318 l 461 244 l 276 244 l 276 103 l 410 103 m 276 533 l 388 533 q 540 570 493 533 q 586 678 586 607 q 538 777 586 747 q 392 807 489 807 l 276 807 l 276 533 m 563 497 q 717 424 663 479 q 771 274 771 369 q 745 153 771 204 q 674 67 719 101 q 565 17 628 33 q 426 0 501 0 l 138 0 l 138 244 l 32 244 l 32 311 l 138 318 l 138 910 l 404 910 q 532 898 474 910 q 632 860 590 886 q 697 792 674 833 q 721 690 721 750 q 683 574 721 626 q 563 503 644 522 l 563 497 z "},"Ç":{"ha":833,"x_min":88,"x_max":775,"o":"m 88 453 q 119 651 88 564 q 205 800 150 739 q 335 894 260 861 q 501 926 411 926 q 649 892 585 926 q 754 814 714 858 l 676 726 q 599 784 642 763 q 501 806 557 806 q 390 781 440 806 q 305 712 340 757 q 250 602 269 667 q 231 457 231 538 q 250 310 231 375 q 306 199 269 244 q 392 128 342 153 q 504 104 442 104 q 609 129 563 104 q 697 200 656 154 l 775 115 q 651 17 719 51 q 496 -17 583 -17 q 335 15 410 -17 q 205 106 260 46 q 119 253 150 167 q 88 453 88 340 m 442 4 l 528 4 l 494 -67 q 553 -101 529 -78 q 576 -167 576 -124 q 559 -222 576 -199 q 513 -262 542 -246 q 444 -287 483 -278 q 364 -299 406 -296 l 351 -235 q 440 -212 406 -228 q 474 -169 474 -197 q 452 -131 474 -146 q 386 -104 431 -115 l 442 4 z "},"Ć":{"ha":833,"x_min":88,"x_max":775,"o":"m 88 453 q 119 651 88 564 q 205 800 150 739 q 335 894 260 861 q 501 926 411 926 q 649 892 585 926 q 754 814 714 858 l 676 726 q 599 784 642 763 q 501 806 557 806 q 390 781 440 806 q 305 712 340 757 q 250 602 269 667 q 231 457 231 538 q 250 310 231 375 q 306 199 269 244 q 392 128 342 153 q 504 104 442 104 q 609 129 563 104 q 697 200 656 154 l 775 115 q 651 17 719 51 q 496 -17 583 -17 q 335 15 410 -17 q 205 106 260 46 q 119 253 150 167 q 88 453 88 340 m 518 979 l 406 979 l 525 1138 l 678 1138 l 518 979 z "},"Ĉ":{"ha":833,"x_min":88,"x_max":775,"o":"m 88 453 q 119 651 88 564 q 205 800 150 739 q 335 894 260 861 q 501 926 411 926 q 649 892 585 926 q 754 814 714 858 l 676 726 q 599 784 642 763 q 501 806 557 806 q 390 781 440 806 q 305 712 340 757 q 250 602 269 667 q 231 457 231 538 q 250 310 231 375 q 306 199 269 244 q 392 128 342 153 q 504 104 442 104 q 609 129 563 104 q 697 200 656 154 l 775 115 q 651 17 719 51 q 496 -17 583 -17 q 335 15 410 -17 q 205 106 260 46 q 119 253 150 167 q 88 453 88 340 m 285 979 l 418 1138 l 551 1138 l 685 979 l 575 979 l 488 1071 l 482 1071 l 394 979 l 285 979 z "},"Č":{"ha":833,"x_min":88,"x_max":775,"o":"m 88 453 q 119 651 88 564 q 205 800 150 739 q 335 894 260 861 q 501 926 411 926 q 649 892 585 926 q 754 814 714 858 l 676 726 q 599 784 642 763 q 501 806 557 806 q 390 781 440 806 q 305 712 340 757 q 250 602 269 667 q 231 457 231 538 q 250 310 231 375 q 306 199 269 244 q 392 128 342 153 q 504 104 442 104 q 609 129 563 104 q 697 200 656 154 l 775 115 q 651 17 719 51 q 496 -17 583 -17 q 335 15 410 -17 q 205 106 260 46 q 119 253 150 167 q 88 453 88 340 m 685 1138 l 551 979 l 418 979 l 285 1138 l 394 1138 l 482 1046 l 488 1046 l 575 1138 l 685 1138 z "},"Ċ":{"ha":833,"x_min":88,"x_max":775,"o":"m 88 453 q 119 651 88 564 q 205 800 150 739 q 335 894 260 861 q 501 926 411 926 q 649 892 585 926 q 754 814 714 858 l 676 726 q 599 784 642 763 q 501 806 557 806 q 390 781 440 806 q 305 712 340 757 q 250 602 269 667 q 231 457 231 538 q 250 310 231 375 q 306 199 269 244 q 392 128 342 153 q 504 104 442 104 q 609 129 563 104 q 697 200 656 154 l 775 115 q 651 17 719 51 q 496 -17 583 -17 q 335 15 410 -17 q 205 106 260 46 q 119 253 150 167 q 88 453 88 340 m 485 986 q 422 1010 447 986 q 396 1071 396 1033 q 422 1130 396 1107 q 485 1153 447 1153 q 548 1130 522 1153 q 574 1071 574 1107 q 548 1010 574 1033 q 485 986 522 986 z "},"Ď":{"ha":833,"x_min":111,"x_max":765,"o":"m 111 910 l 340 910 q 655 796 544 910 q 765 458 765 682 q 656 118 765 236 q 346 0 546 0 l 111 0 l 111 910 m 331 113 q 548 200 474 113 q 622 458 622 288 q 548 713 622 629 q 331 797 474 797 l 250 797 l 250 113 l 331 113 m 615 1138 l 482 979 l 349 979 l 215 1138 l 325 1138 l 413 1046 l 418 1046 l 506 1138 l 615 1138 z "},"Ḍ":{"ha":833,"x_min":111,"x_max":765,"o":"m 111 910 l 340 910 q 655 796 544 910 q 765 458 765 682 q 656 118 765 236 q 346 0 546 0 l 111 0 l 111 910 m 331 113 q 548 200 474 113 q 622 458 622 288 q 548 713 622 629 q 331 797 474 797 l 250 797 l 250 113 l 331 113 m 404 -324 q 331 -297 360 -324 q 301 -226 301 -271 q 331 -155 301 -182 q 404 -128 360 -128 q 478 -155 449 -128 q 507 -226 507 -182 q 478 -297 507 -271 q 404 -324 449 -324 z "},"Ḏ":{"ha":833,"x_min":111,"x_max":765,"o":"m 111 910 l 340 910 q 655 796 544 910 q 765 458 765 682 q 656 118 765 236 q 346 0 546 0 l 111 0 l 111 910 m 331 113 q 548 200 474 113 q 622 458 622 288 q 548 713 622 629 q 331 797 474 797 l 250 797 l 250 113 l 331 113 m 581 -243 l 226 -243 l 226 -151 l 581 -151 l 581 -243 z "},"Đ":{"ha":833,"x_min":17,"x_max":774,"o":"m 119 439 l 17 439 l 17 506 l 119 513 l 119 910 l 349 910 q 663 796 551 910 q 774 458 774 682 q 664 118 774 236 q 356 0 554 0 l 119 0 l 119 439 m 339 113 q 556 200 482 113 q 631 458 631 288 q 556 713 631 629 q 339 797 482 797 l 258 797 l 258 513 l 444 513 l 444 439 l 258 439 l 258 113 l 339 113 z "},"È":{"ha":833,"x_min":153,"x_max":738,"o":"m 153 910 l 724 910 l 724 793 l 292 793 l 292 533 l 657 533 l 657 417 l 292 417 l 292 117 l 738 117 l 738 0 l 153 0 l 153 910 m 263 1138 l 415 1138 l 535 979 l 422 979 l 263 1138 z "},"É":{"ha":833,"x_min":153,"x_max":738,"o":"m 153 910 l 724 910 l 724 793 l 292 793 l 292 533 l 657 533 l 657 417 l 292 417 l 292 117 l 738 117 l 738 0 l 153 0 l 153 910 m 489 979 l 376 979 l 496 1138 l 649 1138 l 489 979 z "},"Ê":{"ha":833,"x_min":153,"x_max":738,"o":"m 153 910 l 724 910 l 724 793 l 292 793 l 292 533 l 657 533 l 657 417 l 292 417 l 292 117 l 738 117 l 738 0 l 153 0 l 153 910 m 256 979 l 389 1138 l 522 1138 l 656 979 l 546 979 l 458 1071 l 453 1071 l 365 979 l 256 979 z "},"Ě":{"ha":833,"x_min":153,"x_max":738,"o":"m 153 910 l 724 910 l 724 793 l 292 793 l 292 533 l 657 533 l 657 417 l 292 417 l 292 117 l 738 117 l 738 0 l 153 0 l 153 910 m 656 1138 l 522 979 l 389 979 l 256 1138 l 365 1138 l 453 1046 l 458 1046 l 546 1138 l 656 1138 z "},"Ë":{"ha":833,"x_min":153,"x_max":738,"o":"m 153 910 l 724 910 l 724 793 l 292 793 l 292 533 l 657 533 l 657 417 l 292 417 l 292 117 l 738 117 l 738 0 l 153 0 l 153 910 m 331 988 q 277 1009 299 988 q 256 1064 256 1031 q 277 1117 256 1096 q 331 1139 299 1139 q 385 1117 364 1139 q 407 1064 407 1096 q 385 1009 407 1031 q 331 988 364 988 m 581 988 q 526 1009 547 988 q 504 1064 504 1031 q 526 1117 504 1096 q 581 1139 547 1139 q 634 1117 613 1139 q 656 1064 656 1096 q 634 1009 656 1031 q 581 988 613 988 z "},"Ē":{"ha":833,"x_min":153,"x_max":738,"o":"m 153 910 l 724 910 l 724 793 l 292 793 l 292 533 l 657 533 l 657 417 l 292 417 l 292 117 l 738 117 l 738 0 l 153 0 l 153 910 m 278 1101 l 633 1101 l 633 1008 l 278 1008 l 278 1101 z "},"Ĕ":{"ha":833,"x_min":153,"x_max":738,"o":"m 153 910 l 724 910 l 724 793 l 292 793 l 292 533 l 657 533 l 657 417 l 292 417 l 292 117 l 738 117 l 738 0 l 153 0 l 153 910 m 456 981 q 381 993 413 981 q 328 1028 350 1006 q 295 1078 307 1050 q 279 1138 283 1106 l 360 1138 q 389 1081 367 1106 q 456 1056 411 1056 q 522 1081 500 1056 q 551 1138 544 1106 l 632 1138 q 616 1078 628 1106 q 583 1028 604 1050 q 530 993 561 1006 q 456 981 499 981 z "},"Ė":{"ha":833,"x_min":153,"x_max":738,"o":"m 153 910 l 724 910 l 724 793 l 292 793 l 292 533 l 657 533 l 657 417 l 292 417 l 292 117 l 738 117 l 738 0 l 153 0 l 153 910 m 456 986 q 392 1010 418 986 q 367 1071 367 1033 q 392 1130 367 1107 q 456 1153 418 1153 q 519 1130 493 1153 q 544 1071 544 1107 q 519 1010 544 1033 q 456 986 493 986 z "},"Ẹ":{"ha":833,"x_min":153,"x_max":738,"o":"m 153 910 l 724 910 l 724 793 l 292 793 l 292 533 l 657 533 l 657 417 l 292 417 l 292 117 l 738 117 l 738 0 l 153 0 l 153 910 m 457 -324 q 383 -297 413 -324 q 354 -226 354 -271 q 383 -155 354 -182 q 457 -128 413 -128 q 531 -155 501 -128 q 560 -226 560 -182 q 531 -297 560 -271 q 457 -324 501 -324 z "},"Ẻ":{"ha":833,"x_min":153,"x_max":738,"o":"m 153 910 l 724 910 l 724 793 l 292 793 l 292 533 l 657 533 l 657 417 l 292 417 l 292 117 l 738 117 l 738 0 l 153 0 l 153 910 m 400 1028 q 453 1048 432 1035 q 475 1085 475 1061 q 361 1140 475 1135 l 375 1217 q 578 1100 578 1210 q 565 1045 578 1068 q 528 1006 551 1022 q 476 981 506 990 q 414 967 447 971 l 400 1028 z "},"Ẽ":{"ha":833,"x_min":153,"x_max":738,"o":"m 153 910 l 724 910 l 724 793 l 292 793 l 292 533 l 657 533 l 657 417 l 292 417 l 292 117 l 738 117 l 738 0 l 153 0 l 153 910 m 540 985 q 490 996 513 985 q 449 1019 468 1007 q 411 1043 429 1032 q 375 1054 393 1054 q 319 985 332 1054 l 246 985 q 286 1101 253 1057 q 371 1144 319 1144 q 421 1133 399 1144 q 463 1110 443 1122 q 500 1086 482 1097 q 536 1075 518 1075 q 592 1144 579 1075 l 665 1144 q 625 1028 658 1072 q 540 985 592 985 z "},"Ế":{"ha":833,"x_min":153,"x_max":803,"o":"m 153 910 l 724 910 l 724 793 l 292 793 l 292 533 l 657 533 l 657 417 l 292 417 l 292 117 l 738 117 l 738 0 l 153 0 l 153 910 m 688 1228 l 803 1228 l 674 1069 l 590 1069 l 688 1228 m 396 1129 l 515 1129 l 644 979 l 542 979 l 458 1063 l 453 1063 l 369 979 l 267 979 l 396 1129 z "},"Ề":{"ha":833,"x_min":153,"x_max":738,"o":"m 153 910 l 724 910 l 724 793 l 292 793 l 292 533 l 657 533 l 657 417 l 292 417 l 292 117 l 738 117 l 738 0 l 153 0 l 153 910 m 731 1069 l 647 1069 l 518 1228 l 633 1228 l 731 1069 m 396 1129 l 515 1129 l 644 979 l 542 979 l 458 1063 l 453 1063 l 369 979 l 267 979 l 396 1129 z "},"Ể":{"ha":833,"x_min":153,"x_max":760,"o":"m 153 910 l 724 910 l 724 793 l 292 793 l 292 533 l 657 533 l 657 417 l 292 417 l 292 117 l 738 117 l 738 0 l 153 0 l 153 910 m 608 1099 q 649 1115 632 1104 q 665 1146 665 1125 q 644 1183 665 1171 q 569 1197 622 1194 l 583 1263 q 760 1158 760 1257 q 749 1111 760 1131 q 719 1078 738 1092 q 675 1058 700 1065 q 624 1046 650 1050 l 608 1099 m 396 1129 l 515 1129 l 644 979 l 542 979 l 458 1063 l 453 1063 l 369 979 l 267 979 l 396 1129 z "},"Ễ":{"ha":833,"x_min":153,"x_max":738,"o":"m 153 910 l 724 910 l 724 793 l 292 793 l 292 533 l 657 533 l 657 417 l 292 417 l 292 117 l 738 117 l 738 0 l 153 0 l 153 910 m 396 1129 l 515 1129 l 644 979 l 542 979 l 458 1063 l 453 1063 l 369 979 l 267 979 l 396 1129 m 267 1179 q 302 1277 272 1242 q 379 1313 332 1313 q 426 1303 406 1313 q 463 1284 446 1294 q 495 1265 481 1274 q 526 1256 510 1256 q 579 1313 569 1256 l 644 1313 q 609 1215 639 1250 q 532 1179 579 1179 q 485 1188 506 1179 q 448 1208 465 1197 q 416 1227 431 1218 q 385 1236 401 1236 q 332 1179 342 1236 l 267 1179 z "},"Ệ":{"ha":833,"x_min":153,"x_max":738,"o":"m 153 910 l 724 910 l 724 793 l 292 793 l 292 533 l 657 533 l 657 417 l 292 417 l 292 117 l 738 117 l 738 0 l 153 0 l 153 910 m 256 979 l 389 1138 l 522 1138 l 656 979 l 546 979 l 458 1071 l 453 1071 l 365 979 l 256 979 m 457 -324 q 383 -297 413 -324 q 354 -226 354 -271 q 383 -155 354 -182 q 457 -128 413 -128 q 531 -155 501 -128 q 560 -226 560 -182 q 531 -297 560 -271 q 457 -324 501 -324 z "},"Ę":{"ha":833,"x_min":153,"x_max":761,"o":"m 153 910 l 724 910 l 724 793 l 292 793 l 292 533 l 657 533 l 657 417 l 292 417 l 292 117 l 738 117 l 738 0 l 732 0 q 685 -15 708 -3 q 645 -47 663 -28 q 617 -92 628 -67 q 607 -143 607 -117 q 627 -190 607 -175 q 671 -204 647 -204 q 699 -199 686 -204 q 725 -185 713 -193 l 761 -257 q 705 -287 739 -275 q 640 -299 671 -299 q 542 -267 582 -299 q 501 -175 501 -236 q 535 -70 501 -117 q 607 0 568 -24 l 153 0 l 153 910 z "},"Ĝ":{"ha":833,"x_min":71,"x_max":746,"o":"m 71 453 q 101 652 71 564 q 186 801 132 740 q 315 894 240 863 q 478 926 390 926 q 631 891 568 926 q 733 814 693 856 l 656 726 q 582 783 624 761 q 478 806 540 806 q 371 781 419 806 q 288 712 322 757 q 233 602 253 667 q 214 457 214 538 q 282 199 214 293 q 479 104 350 104 q 558 117 521 104 q 618 151 594 129 l 618 368 l 450 368 l 450 482 l 746 482 l 746 90 q 630 15 701 46 q 471 -17 558 -17 q 311 15 385 -17 q 184 106 238 46 q 101 253 131 167 q 71 453 71 340 m 260 979 l 393 1138 l 526 1138 l 660 979 l 550 979 l 463 1071 l 457 1071 l 369 979 l 260 979 z "},"Ğ":{"ha":833,"x_min":71,"x_max":746,"o":"m 71 453 q 101 652 71 564 q 186 801 132 740 q 315 894 240 863 q 478 926 390 926 q 631 891 568 926 q 733 814 693 856 l 656 726 q 582 783 624 761 q 478 806 540 806 q 371 781 419 806 q 288 712 322 757 q 233 602 253 667 q 214 457 214 538 q 282 199 214 293 q 479 104 350 104 q 558 117 521 104 q 618 151 594 129 l 618 368 l 450 368 l 450 482 l 746 482 l 746 90 q 630 15 701 46 q 471 -17 558 -17 q 311 15 385 -17 q 184 106 238 46 q 101 253 131 167 q 71 453 71 340 m 460 981 q 385 993 417 981 q 333 1028 354 1006 q 299 1078 311 1050 q 283 1138 288 1106 l 364 1138 q 393 1081 371 1106 q 460 1056 415 1056 q 526 1081 504 1056 q 556 1138 549 1106 l 636 1138 q 620 1078 632 1106 q 587 1028 608 1050 q 534 993 565 1006 q 460 981 503 981 z "},"Ġ":{"ha":833,"x_min":71,"x_max":746,"o":"m 71 453 q 101 652 71 564 q 186 801 132 740 q 315 894 240 863 q 478 926 390 926 q 631 891 568 926 q 733 814 693 856 l 656 726 q 582 783 624 761 q 478 806 540 806 q 371 781 419 806 q 288 712 322 757 q 233 602 253 667 q 214 457 214 538 q 282 199 214 293 q 479 104 350 104 q 558 117 521 104 q 618 151 594 129 l 618 368 l 450 368 l 450 482 l 746 482 l 746 90 q 630 15 701 46 q 471 -17 558 -17 q 311 15 385 -17 q 184 106 238 46 q 101 253 131 167 q 71 453 71 340 m 460 986 q 397 1010 422 986 q 371 1071 371 1033 q 397 1130 371 1107 q 460 1153 422 1153 q 523 1130 497 1153 q 549 1071 549 1107 q 523 1010 549 1033 q 460 986 497 986 z "},"Ģ":{"ha":833,"x_min":71,"x_max":746,"o":"m 71 453 q 101 652 71 564 q 186 801 132 740 q 315 894 240 863 q 478 926 390 926 q 631 891 568 926 q 733 814 693 856 l 656 726 q 582 783 624 761 q 478 806 540 806 q 371 781 419 806 q 288 712 322 757 q 233 602 253 667 q 214 457 214 538 q 282 199 214 293 q 479 104 350 104 q 558 117 521 104 q 618 151 594 129 l 618 368 l 450 368 l 450 482 l 746 482 l 746 90 q 630 15 701 46 q 471 -17 558 -17 q 311 15 385 -17 q 184 106 238 46 q 101 253 131 167 q 71 453 71 340 m 422 -64 q 533 -100 500 -75 q 565 -174 565 -125 q 548 -229 565 -206 q 501 -269 531 -253 q 433 -294 472 -285 q 353 -306 394 -303 l 342 -242 q 428 -222 394 -235 q 463 -182 463 -208 q 443 -144 463 -157 q 394 -124 424 -131 l 422 -64 l 422 -64 z "},"Ǧ":{"ha":833,"x_min":71,"x_max":746,"o":"m 71 453 q 101 652 71 564 q 186 801 132 740 q 315 894 240 863 q 478 926 390 926 q 631 891 568 926 q 733 814 693 856 l 656 726 q 582 783 624 761 q 478 806 540 806 q 371 781 419 806 q 288 712 322 757 q 233 602 253 667 q 214 457 214 538 q 282 199 214 293 q 479 104 350 104 q 558 117 521 104 q 618 151 594 129 l 618 368 l 450 368 l 450 482 l 746 482 l 746 90 q 630 15 701 46 q 471 -17 558 -17 q 311 15 385 -17 q 184 106 238 46 q 101 253 131 167 q 71 453 71 340 m 660 1138 l 526 979 l 393 979 l 260 1138 l 369 1138 l 457 1046 l 463 1046 l 550 1138 l 660 1138 z "},"Ḡ":{"ha":833,"x_min":71,"x_max":746,"o":"m 71 453 q 101 652 71 564 q 186 801 132 740 q 315 894 240 863 q 478 926 390 926 q 631 891 568 926 q 733 814 693 856 l 656 726 q 582 783 624 761 q 478 806 540 806 q 371 781 419 806 q 288 712 322 757 q 233 602 253 667 q 214 457 214 538 q 282 199 214 293 q 479 104 350 104 q 558 117 521 104 q 618 151 594 129 l 618 368 l 450 368 l 450 482 l 746 482 l 746 90 q 630 15 701 46 q 471 -17 558 -17 q 311 15 385 -17 q 184 106 238 46 q 101 253 131 167 q 71 453 71 340 m 282 1101 l 638 1101 l 638 1008 l 282 1008 l 282 1101 z "},"Ĥ":{"ha":833,"x_min":104,"x_max":729,"o":"m 104 910 l 244 910 l 244 536 l 589 536 l 589 910 l 729 910 l 729 0 l 589 0 l 589 415 l 244 415 l 244 0 l 104 0 l 104 910 m 217 979 l 350 1138 l 483 1138 l 617 979 l 507 979 l 419 1071 l 414 1071 l 326 979 l 217 979 z "},"Ḥ":{"ha":833,"x_min":104,"x_max":729,"o":"m 104 910 l 244 910 l 244 536 l 589 536 l 589 910 l 729 910 l 729 0 l 589 0 l 589 415 l 244 415 l 244 0 l 104 0 l 104 910 m 417 -324 q 343 -297 372 -324 q 314 -226 314 -271 q 343 -155 314 -182 q 417 -128 372 -128 q 490 -155 461 -128 q 519 -226 519 -182 q 490 -297 519 -271 q 417 -324 461 -324 z "},"Ḫ":{"ha":833,"x_min":104,"x_max":729,"o":"m 104 910 l 244 910 l 244 536 l 589 536 l 589 910 l 729 910 l 729 0 l 589 0 l 589 415 l 244 415 l 244 0 l 104 0 l 104 910 m 417 -287 q 338 -272 371 -287 q 283 -230 304 -256 q 249 -172 261 -204 q 236 -107 238 -140 l 318 -107 q 347 -176 324 -146 q 417 -207 371 -207 q 486 -176 463 -207 q 515 -107 510 -146 l 597 -107 q 583 -172 594 -140 q 551 -230 572 -204 q 496 -272 529 -256 q 417 -287 463 -287 z "},"Ħ":{"ha":833,"x_min":11,"x_max":822,"o":"m 589 681 l 244 681 l 244 536 l 589 536 l 589 681 m 822 681 l 729 681 l 729 0 l 589 0 l 589 415 l 244 415 l 244 0 l 104 0 l 104 681 l 11 681 l 11 747 l 104 754 l 104 910 l 244 910 l 244 754 l 589 754 l 589 910 l 729 910 l 729 754 l 822 754 l 822 681 z "},"Ì":{"ha":833,"x_min":125,"x_max":708,"o":"m 125 117 l 347 117 l 347 793 l 125 793 l 125 910 l 708 910 l 708 793 l 486 793 l 486 117 l 708 117 l 708 0 l 125 0 l 125 117 m 224 1138 l 376 1138 l 496 979 l 383 979 l 224 1138 z "},"Í":{"ha":833,"x_min":125,"x_max":708,"o":"m 125 117 l 347 117 l 347 793 l 125 793 l 125 910 l 708 910 l 708 793 l 486 793 l 486 117 l 708 117 l 708 0 l 125 0 l 125 117 m 450 979 l 338 979 l 457 1138 l 610 1138 l 450 979 z "},"Î":{"ha":833,"x_min":125,"x_max":708,"o":"m 125 117 l 347 117 l 347 793 l 125 793 l 125 910 l 708 910 l 708 793 l 486 793 l 486 117 l 708 117 l 708 0 l 125 0 l 125 117 m 217 979 l 350 1138 l 483 1138 l 617 979 l 507 979 l 419 1071 l 414 1071 l 326 979 l 217 979 z "},"Ĩ":{"ha":833,"x_min":125,"x_max":708,"o":"m 125 117 l 347 117 l 347 793 l 125 793 l 125 910 l 708 910 l 708 793 l 486 793 l 486 117 l 708 117 l 708 0 l 125 0 l 125 117 m 501 985 q 451 996 474 985 q 410 1019 429 1007 q 372 1043 390 1032 q 336 1054 354 1054 q 281 985 293 1054 l 207 985 q 247 1101 214 1057 q 332 1144 281 1144 q 382 1133 360 1144 q 424 1110 404 1122 q 461 1086 443 1097 q 497 1075 479 1075 q 553 1144 540 1075 l 626 1144 q 586 1028 619 1072 q 501 985 553 985 z "},"Ï":{"ha":833,"x_min":125,"x_max":708,"o":"m 125 117 l 347 117 l 347 793 l 125 793 l 125 910 l 708 910 l 708 793 l 486 793 l 486 117 l 708 117 l 708 0 l 125 0 l 125 117 m 292 988 q 238 1009 260 988 q 217 1064 217 1031 q 238 1117 217 1096 q 292 1139 260 1139 q 347 1117 325 1139 q 368 1064 368 1096 q 347 1009 368 1031 q 292 988 325 988 m 542 988 q 487 1009 508 988 q 465 1064 465 1031 q 487 1117 465 1096 q 542 1139 508 1139 q 595 1117 574 1139 q 617 1064 617 1096 q 595 1009 617 1031 q 542 988 574 988 z "},"Ī":{"ha":833,"x_min":125,"x_max":708,"o":"m 125 117 l 347 117 l 347 793 l 125 793 l 125 910 l 708 910 l 708 793 l 486 793 l 486 117 l 708 117 l 708 0 l 125 0 l 125 117 m 239 1101 l 594 1101 l 594 1008 l 239 1008 l 239 1101 z "},"Ĭ":{"ha":833,"x_min":125,"x_max":708,"o":"m 125 117 l 347 117 l 347 793 l 125 793 l 125 910 l 708 910 l 708 793 l 486 793 l 486 117 l 708 117 l 708 0 l 125 0 l 125 117 m 417 981 q 342 993 374 981 q 290 1028 311 1006 q 256 1078 268 1050 q 240 1138 244 1106 l 321 1138 q 350 1081 328 1106 q 417 1056 372 1056 q 483 1081 461 1056 q 513 1138 506 1106 l 593 1138 q 577 1078 589 1106 q 544 1028 565 1050 q 491 993 522 1006 q 417 981 460 981 z "},"İ":{"ha":833,"x_min":125,"x_max":708,"o":"m 125 117 l 347 117 l 347 793 l 125 793 l 125 910 l 708 910 l 708 793 l 486 793 l 486 117 l 708 117 l 708 0 l 125 0 l 125 117 m 417 986 q 353 1010 379 986 q 328 1071 328 1033 q 353 1130 328 1107 q 417 1153 379 1153 q 480 1130 454 1153 q 506 1071 506 1107 q 480 1010 506 1033 q 417 986 454 986 z "},"Ǐ":{"ha":833,"x_min":125,"x_max":708,"o":"m 125 117 l 347 117 l 347 793 l 125 793 l 125 910 l 708 910 l 708 793 l 486 793 l 486 117 l 708 117 l 708 0 l 125 0 l 125 117 m 617 1138 l 483 979 l 350 979 l 217 1138 l 326 1138 l 414 1046 l 419 1046 l 507 1138 l 617 1138 z "},"Ỉ":{"ha":833,"x_min":125,"x_max":708,"o":"m 125 117 l 347 117 l 347 793 l 125 793 l 125 910 l 708 910 l 708 793 l 486 793 l 486 117 l 708 117 l 708 0 l 125 0 l 125 117 m 361 1028 q 415 1048 393 1035 q 436 1085 436 1061 q 322 1140 436 1135 l 336 1217 q 539 1100 539 1210 q 526 1045 539 1068 q 490 1006 513 1022 q 438 981 467 990 q 375 967 408 971 l 361 1028 z "},"Ị":{"ha":833,"x_min":125,"x_max":708,"o":"m 125 117 l 347 117 l 347 793 l 125 793 l 125 910 l 708 910 l 708 793 l 486 793 l 486 117 l 708 117 l 708 0 l 125 0 l 125 117 m 418 -324 q 344 -297 374 -324 q 315 -226 315 -271 q 344 -155 315 -182 q 418 -128 374 -128 q 492 -155 463 -128 q 521 -226 521 -182 q 492 -297 521 -271 q 418 -324 463 -324 z "},"Į":{"ha":833,"x_min":125,"x_max":708,"o":"m 125 117 l 347 117 l 347 793 l 125 793 l 125 910 l 708 910 l 708 793 l 486 793 l 486 117 l 708 117 l 708 0 l 486 0 q 392 -143 392 -61 q 412 -190 392 -175 q 456 -204 432 -204 q 486 -199 472 -204 q 511 -185 500 -193 l 546 -257 q 490 -287 524 -275 q 426 -299 457 -299 q 328 -267 368 -299 q 288 -175 288 -236 q 297 -119 288 -144 q 319 -71 306 -93 q 349 -31 332 -49 q 382 0 365 -14 l 125 0 l 125 117 z "},"Ĵ":{"ha":833,"x_min":104,"x_max":693,"o":"m 192 218 q 279 132 231 160 q 379 104 328 104 q 512 151 469 104 q 554 307 554 199 l 554 794 l 181 794 l 181 911 l 693 911 l 693 296 q 677 174 693 231 q 625 75 661 118 q 529 8 589 32 q 382 -17 469 -17 q 230 19 306 -17 q 104 135 154 54 l 192 218 m 246 979 l 379 1138 l 513 1138 l 646 979 l 536 979 l 449 1071 l 443 1071 l 356 979 l 246 979 z "},"Ķ":{"ha":833,"x_min":125,"x_max":810,"o":"m 125 910 l 265 910 l 265 475 l 269 475 l 622 910 l 778 910 l 496 558 l 810 0 l 656 0 l 411 450 l 265 276 l 265 0 l 125 0 l 125 910 m 421 -64 q 531 -100 499 -75 q 564 -174 564 -125 q 547 -229 564 -206 q 500 -269 529 -253 q 432 -294 471 -285 q 351 -306 393 -303 l 340 -242 q 427 -222 393 -235 q 461 -182 461 -208 q 442 -144 461 -157 q 393 -124 422 -131 l 421 -64 l 421 -64 z "},"Ĺ":{"ha":833,"x_min":176,"x_max":751,"o":"m 176 910 l 314 910 l 314 117 l 751 117 l 751 0 l 176 0 l 176 910 m 300 979 l 188 979 l 307 1138 l 460 1138 l 300 979 z "},"Ľ":{"ha":833,"x_min":176,"x_max":751,"o":"m 176 910 l 314 910 l 314 117 l 751 117 l 751 0 l 176 0 l 176 910 m 540 714 l 535 1013 l 629 1013 l 628 928 l 604 714 l 540 714 z "},"Ļ":{"ha":833,"x_min":176,"x_max":751,"o":"m 176 910 l 314 910 l 314 117 l 751 117 l 751 0 l 176 0 l 176 910 m 432 -64 q 542 -100 510 -75 q 575 -174 575 -125 q 558 -229 575 -206 q 511 -269 540 -253 q 443 -294 482 -285 q 363 -306 404 -303 l 351 -242 q 438 -222 404 -235 q 472 -182 472 -208 q 453 -144 472 -157 q 404 -124 433 -131 l 432 -64 l 432 -64 z "},"Ŀ":{"ha":833,"x_min":176,"x_max":751,"o":"m 176 910 l 314 910 l 314 117 l 751 117 l 751 0 l 176 0 l 176 910 m 606 389 q 532 415 561 389 q 503 486 503 442 q 532 558 503 531 q 606 585 561 585 q 679 558 650 585 q 708 486 708 531 q 679 415 708 442 q 606 389 650 389 z "},"Ḷ":{"ha":833,"x_min":176,"x_max":751,"o":"m 176 910 l 314 910 l 314 117 l 751 117 l 751 0 l 176 0 l 176 910 m 475 -324 q 401 -297 431 -324 q 372 -226 372 -271 q 401 -155 372 -182 q 475 -128 431 -128 q 549 -155 519 -128 q 578 -226 578 -182 q 549 -297 578 -271 q 475 -324 519 -324 z "},"Ḹ":{"ha":833,"x_min":89,"x_max":751,"o":"m 176 910 l 314 910 l 314 117 l 751 117 l 751 0 l 176 0 l 176 910 m 89 1101 l 444 1101 l 444 1008 l 89 1008 l 89 1101 m 475 -324 q 401 -297 431 -324 q 372 -226 372 -271 q 401 -155 372 -182 q 475 -128 431 -128 q 549 -155 519 -128 q 578 -226 578 -182 q 549 -297 578 -271 q 475 -324 519 -324 z "},"Ḻ":{"ha":833,"x_min":176,"x_max":751,"o":"m 176 910 l 314 910 l 314 117 l 751 117 l 751 0 l 176 0 l 176 910 m 651 -243 l 297 -243 l 297 -151 l 651 -151 l 651 -243 z "},"Ł":{"ha":833,"x_min":67,"x_max":751,"o":"m 751 117 l 751 0 l 176 0 l 176 306 l 67 246 l 67 356 l 176 415 l 176 910 l 314 910 l 314 482 l 619 647 l 619 536 l 314 372 l 314 117 l 751 117 z "},"Ṃ":{"ha":833,"x_min":107,"x_max":726,"o":"m 107 910 l 254 910 l 374 540 l 415 397 l 421 397 l 461 540 l 579 910 l 726 910 l 726 0 l 610 0 l 610 457 q 612 528 610 488 q 617 613 614 569 q 622 699 619 657 q 628 771 625 740 l 624 771 l 561 563 l 450 246 l 381 246 l 269 563 l 207 771 l 203 771 q 208 699 206 740 q 214 613 211 657 q 219 528 217 569 q 221 457 221 488 l 221 0 l 107 0 l 107 910 m 417 -324 q 343 -297 372 -324 q 314 -226 314 -271 q 343 -155 314 -182 q 417 -128 372 -128 q 490 -155 461 -128 q 519 -226 519 -182 q 490 -297 519 -271 q 417 -324 461 -324 z "},"Ń":{"ha":833,"x_min":110,"x_max":724,"o":"m 110 910 l 250 910 l 519 367 l 607 178 l 611 178 q 599 325 607 247 q 592 476 592 403 l 592 910 l 724 910 l 724 0 l 583 0 l 314 543 l 226 732 l 222 732 q 234 586 226 661 q 242 436 242 511 l 242 0 l 110 0 l 110 910 m 458 979 l 346 979 l 465 1138 l 618 1138 l 458 979 z "},"Ň":{"ha":833,"x_min":110,"x_max":724,"o":"m 110 910 l 250 910 l 519 367 l 607 178 l 611 178 q 599 325 607 247 q 592 476 592 403 l 592 910 l 724 910 l 724 0 l 583 0 l 314 543 l 226 732 l 222 732 q 234 586 226 661 q 242 436 242 511 l 242 0 l 110 0 l 110 910 m 625 1138 l 492 979 l 358 979 l 225 1138 l 335 1138 l 422 1046 l 428 1046 l 515 1138 l 625 1138 z "},"Ñ":{"ha":833,"x_min":110,"x_max":724,"o":"m 110 910 l 250 910 l 519 367 l 607 178 l 611 178 q 599 325 607 247 q 592 476 592 403 l 592 910 l 724 910 l 724 0 l 583 0 l 314 543 l 226 732 l 222 732 q 234 586 226 661 q 242 436 242 511 l 242 0 l 110 0 l 110 910 m 510 985 q 460 996 482 985 q 418 1019 438 1007 q 381 1043 399 1032 q 344 1054 363 1054 q 289 985 301 1054 l 215 985 q 256 1101 222 1057 q 340 1144 289 1144 q 390 1133 368 1144 q 432 1110 413 1122 q 469 1086 451 1097 q 506 1075 488 1075 q 561 1144 549 1075 l 635 1144 q 594 1028 628 1072 q 510 985 561 985 z "},"Ņ":{"ha":833,"x_min":110,"x_max":724,"o":"m 110 910 l 250 910 l 519 367 l 607 178 l 611 178 q 599 325 607 247 q 592 476 592 403 l 592 910 l 724 910 l 724 0 l 583 0 l 314 543 l 226 732 l 222 732 q 234 586 226 661 q 242 436 242 511 l 242 0 l 110 0 l 110 910 m 374 -64 q 484 -100 451 -75 q 517 -174 517 -125 q 499 -229 517 -206 q 453 -269 482 -253 q 385 -294 424 -285 q 304 -306 346 -303 l 293 -242 q 380 -222 346 -235 q 414 -182 414 -208 q 394 -144 414 -157 q 346 -124 375 -131 l 374 -64 l 374 -64 z "},"Ṅ":{"ha":833,"x_min":110,"x_max":724,"o":"m 110 910 l 250 910 l 519 367 l 607 178 l 611 178 q 599 325 607 247 q 592 476 592 403 l 592 910 l 724 910 l 724 0 l 583 0 l 314 543 l 226 732 l 222 732 q 234 586 226 661 q 242 436 242 511 l 242 0 l 110 0 l 110 910 m 425 986 q 362 1010 388 986 q 336 1071 336 1033 q 362 1130 336 1107 q 425 1153 388 1153 q 488 1130 463 1153 q 514 1071 514 1107 q 488 1010 514 1033 q 425 986 463 986 z "},"Ṇ":{"ha":833,"x_min":110,"x_max":724,"o":"m 110 910 l 250 910 l 519 367 l 607 178 l 611 178 q 599 325 607 247 q 592 476 592 403 l 592 910 l 724 910 l 724 0 l 583 0 l 314 543 l 226 732 l 222 732 q 234 586 226 661 q 242 436 242 511 l 242 0 l 110 0 l 110 910 m 417 -324 q 343 -297 372 -324 q 314 -226 314 -271 q 343 -155 314 -182 q 417 -128 372 -128 q 490 -155 461 -128 q 519 -226 519 -182 q 490 -297 519 -271 q 417 -324 461 -324 z "},"Ṉ":{"ha":833,"x_min":110,"x_max":724,"o":"m 110 910 l 250 910 l 519 367 l 607 178 l 611 178 q 599 325 607 247 q 592 476 592 403 l 592 910 l 724 910 l 724 0 l 583 0 l 314 543 l 226 732 l 222 732 q 234 586 226 661 q 242 436 242 511 l 242 0 l 110 0 l 110 910 m 593 -243 l 239 -243 l 239 -151 l 593 -151 l 593 -243 z "},"Ò":{"ha":833,"x_min":63,"x_max":771,"o":"m 417 -17 q 274 17 339 -17 q 161 111 208 50 q 88 260 114 172 q 63 458 63 349 q 88 655 63 568 q 161 802 114 742 q 274 894 208 863 q 417 926 339 926 q 560 894 494 926 q 672 802 625 863 q 744 655 718 742 q 771 458 771 568 q 744 260 771 349 q 672 111 718 172 q 560 17 625 50 q 417 -17 494 -17 m 417 104 q 503 129 464 104 q 569 201 542 154 q 613 313 597 247 q 628 458 628 378 q 570 713 628 621 q 417 806 513 806 q 263 713 321 806 q 206 458 206 621 q 221 313 206 378 q 264 201 236 247 q 331 129 292 154 q 417 104 369 104 m 224 1138 l 376 1138 l 496 979 l 383 979 l 224 1138 z "},"Ó":{"ha":833,"x_min":63,"x_max":771,"o":"m 417 -17 q 274 17 339 -17 q 161 111 208 50 q 88 260 114 172 q 63 458 63 349 q 88 655 63 568 q 161 802 114 742 q 274 894 208 863 q 417 926 339 926 q 560 894 494 926 q 672 802 625 863 q 744 655 718 742 q 771 458 771 568 q 744 260 771 349 q 672 111 718 172 q 560 17 625 50 q 417 -17 494 -17 m 417 104 q 503 129 464 104 q 569 201 542 154 q 613 313 597 247 q 628 458 628 378 q 570 713 628 621 q 417 806 513 806 q 263 713 321 806 q 206 458 206 621 q 221 313 206 378 q 264 201 236 247 q 331 129 292 154 q 417 104 369 104 m 450 979 l 338 979 l 457 1138 l 610 1138 l 450 979 z "},"Ô":{"ha":833,"x_min":63,"x_max":771,"o":"m 417 -17 q 274 17 339 -17 q 161 111 208 50 q 88 260 114 172 q 63 458 63 349 q 88 655 63 568 q 161 802 114 742 q 274 894 208 863 q 417 926 339 926 q 560 894 494 926 q 672 802 625 863 q 744 655 718 742 q 771 458 771 568 q 744 260 771 349 q 672 111 718 172 q 560 17 625 50 q 417 -17 494 -17 m 417 104 q 503 129 464 104 q 569 201 542 154 q 613 313 597 247 q 628 458 628 378 q 570 713 628 621 q 417 806 513 806 q 263 713 321 806 q 206 458 206 621 q 221 313 206 378 q 264 201 236 247 q 331 129 292 154 q 417 104 369 104 m 217 979 l 350 1138 l 483 1138 l 617 979 l 507 979 l 419 1071 l 414 1071 l 326 979 l 217 979 z "},"Õ":{"ha":833,"x_min":63,"x_max":771,"o":"m 417 -17 q 274 17 339 -17 q 161 111 208 50 q 88 260 114 172 q 63 458 63 349 q 88 655 63 568 q 161 802 114 742 q 274 894 208 863 q 417 926 339 926 q 560 894 494 926 q 672 802 625 863 q 744 655 718 742 q 771 458 771 568 q 744 260 771 349 q 672 111 718 172 q 560 17 625 50 q 417 -17 494 -17 m 417 104 q 503 129 464 104 q 569 201 542 154 q 613 313 597 247 q 628 458 628 378 q 570 713 628 621 q 417 806 513 806 q 263 713 321 806 q 206 458 206 621 q 221 313 206 378 q 264 201 236 247 q 331 129 292 154 q 417 104 369 104 m 501 985 q 451 996 474 985 q 410 1019 429 1007 q 372 1043 390 1032 q 336 1054 354 1054 q 281 985 293 1054 l 207 985 q 247 1101 214 1057 q 332 1144 281 1144 q 382 1133 360 1144 q 424 1110 404 1122 q 461 1086 443 1097 q 497 1075 479 1075 q 553 1144 540 1075 l 626 1144 q 586 1028 619 1072 q 501 985 553 985 z "},"Ö":{"ha":833,"x_min":63,"x_max":771,"o":"m 417 -17 q 274 17 339 -17 q 161 111 208 50 q 88 260 114 172 q 63 458 63 349 q 88 655 63 568 q 161 802 114 742 q 274 894 208 863 q 417 926 339 926 q 560 894 494 926 q 672 802 625 863 q 744 655 718 742 q 771 458 771 568 q 744 260 771 349 q 672 111 718 172 q 560 17 625 50 q 417 -17 494 -17 m 417 104 q 503 129 464 104 q 569 201 542 154 q 613 313 597 247 q 628 458 628 378 q 570 713 628 621 q 417 806 513 806 q 263 713 321 806 q 206 458 206 621 q 221 313 206 378 q 264 201 236 247 q 331 129 292 154 q 417 104 369 104 m 292 988 q 238 1009 260 988 q 217 1064 217 1031 q 238 1117 217 1096 q 292 1139 260 1139 q 347 1117 325 1139 q 368 1064 368 1096 q 347 1009 368 1031 q 292 988 325 988 m 542 988 q 487 1009 508 988 q 465 1064 465 1031 q 487 1117 465 1096 q 542 1139 508 1139 q 595 1117 574 1139 q 617 1064 617 1096 q 595 1009 617 1031 q 542 988 574 988 z "},"Ō":{"ha":833,"x_min":63,"x_max":771,"o":"m 417 -17 q 274 17 339 -17 q 161 111 208 50 q 88 260 114 172 q 63 458 63 349 q 88 655 63 568 q 161 802 114 742 q 274 894 208 863 q 417 926 339 926 q 560 894 494 926 q 672 802 625 863 q 744 655 718 742 q 771 458 771 568 q 744 260 771 349 q 672 111 718 172 q 560 17 625 50 q 417 -17 494 -17 m 417 104 q 503 129 464 104 q 569 201 542 154 q 613 313 597 247 q 628 458 628 378 q 570 713 628 621 q 417 806 513 806 q 263 713 321 806 q 206 458 206 621 q 221 313 206 378 q 264 201 236 247 q 331 129 292 154 q 417 104 369 104 m 239 1101 l 594 1101 l 594 1008 l 239 1008 l 239 1101 z "},"Ŏ":{"ha":833,"x_min":63,"x_max":771,"o":"m 417 -17 q 274 17 339 -17 q 161 111 208 50 q 88 260 114 172 q 63 458 63 349 q 88 655 63 568 q 161 802 114 742 q 274 894 208 863 q 417 926 339 926 q 560 894 494 926 q 672 802 625 863 q 744 655 718 742 q 771 458 771 568 q 744 260 771 349 q 672 111 718 172 q 560 17 625 50 q 417 -17 494 -17 m 417 104 q 503 129 464 104 q 569 201 542 154 q 613 313 597 247 q 628 458 628 378 q 570 713 628 621 q 417 806 513 806 q 263 713 321 806 q 206 458 206 621 q 221 313 206 378 q 264 201 236 247 q 331 129 292 154 q 417 104 369 104 m 417 981 q 342 993 374 981 q 290 1028 311 1006 q 256 1078 268 1050 q 240 1138 244 1106 l 321 1138 q 350 1081 328 1106 q 417 1056 372 1056 q 483 1081 461 1056 q 513 1138 506 1106 l 593 1138 q 577 1078 589 1106 q 544 1028 565 1050 q 491 993 522 1006 q 417 981 460 981 z "},"Ő":{"ha":833,"x_min":63,"x_max":771,"o":"m 417 -17 q 274 17 339 -17 q 161 111 208 50 q 88 260 114 172 q 63 458 63 349 q 88 655 63 568 q 161 802 114 742 q 274 894 208 863 q 417 926 339 926 q 560 894 494 926 q 672 802 625 863 q 744 655 718 742 q 771 458 771 568 q 744 260 771 349 q 672 111 718 172 q 560 17 625 50 q 417 -17 494 -17 m 417 104 q 503 129 464 104 q 569 201 542 154 q 613 313 597 247 q 628 458 628 378 q 570 713 628 621 q 417 806 513 806 q 263 713 321 806 q 206 458 206 621 q 221 313 206 378 q 264 201 236 247 q 331 129 292 154 q 417 104 369 104 m 256 979 l 346 1138 l 469 1138 l 353 979 l 256 979 m 572 1138 l 697 1138 l 579 979 l 482 979 l 572 1138 z "},"Ǒ":{"ha":833,"x_min":63,"x_max":771,"o":"m 417 -17 q 274 17 339 -17 q 161 111 208 50 q 88 260 114 172 q 63 458 63 349 q 88 655 63 568 q 161 802 114 742 q 274 894 208 863 q 417 926 339 926 q 560 894 494 926 q 672 802 625 863 q 744 655 718 742 q 771 458 771 568 q 744 260 771 349 q 672 111 718 172 q 560 17 625 50 q 417 -17 494 -17 m 417 104 q 503 129 464 104 q 569 201 542 154 q 613 313 597 247 q 628 458 628 378 q 570 713 628 621 q 417 806 513 806 q 263 713 321 806 q 206 458 206 621 q 221 313 206 378 q 264 201 236 247 q 331 129 292 154 q 417 104 369 104 m 617 1138 l 483 979 l 350 979 l 217 1138 l 326 1138 l 414 1046 l 419 1046 l 507 1138 l 617 1138 z "},"Ọ":{"ha":833,"x_min":63,"x_max":771,"o":"m 417 -17 q 274 17 339 -17 q 161 111 208 50 q 88 260 114 172 q 63 458 63 349 q 88 655 63 568 q 161 802 114 742 q 274 894 208 863 q 417 926 339 926 q 560 894 494 926 q 672 802 625 863 q 744 655 718 742 q 771 458 771 568 q 744 260 771 349 q 672 111 718 172 q 560 17 625 50 q 417 -17 494 -17 m 417 104 q 503 129 464 104 q 569 201 542 154 q 613 313 597 247 q 628 458 628 378 q 570 713 628 621 q 417 806 513 806 q 263 713 321 806 q 206 458 206 621 q 221 313 206 378 q 264 201 236 247 q 331 129 292 154 q 417 104 369 104 m 417 -324 q 343 -297 372 -324 q 314 -226 314 -271 q 343 -155 314 -182 q 417 -128 372 -128 q 490 -155 461 -128 q 519 -226 519 -182 q 490 -297 519 -271 q 417 -324 461 -324 z "},"Ỏ":{"ha":833,"x_min":63,"x_max":771,"o":"m 417 -17 q 274 17 339 -17 q 161 111 208 50 q 88 260 114 172 q 63 458 63 349 q 88 655 63 568 q 161 802 114 742 q 274 894 208 863 q 417 926 339 926 q 560 894 494 926 q 672 802 625 863 q 744 655 718 742 q 771 458 771 568 q 744 260 771 349 q 672 111 718 172 q 560 17 625 50 q 417 -17 494 -17 m 417 104 q 503 129 464 104 q 569 201 542 154 q 613 313 597 247 q 628 458 628 378 q 570 713 628 621 q 417 806 513 806 q 263 713 321 806 q 206 458 206 621 q 221 313 206 378 q 264 201 236 247 q 331 129 292 154 q 417 104 369 104 m 361 1028 q 415 1048 393 1035 q 436 1085 436 1061 q 322 1140 436 1135 l 336 1217 q 539 1100 539 1210 q 526 1045 539 1068 q 490 1006 513 1022 q 438 981 467 990 q 375 967 408 971 l 361 1028 z "},"Ố":{"ha":833,"x_min":63,"x_max":771,"o":"m 417 -17 q 274 17 339 -17 q 161 111 208 50 q 88 260 114 172 q 63 458 63 349 q 88 655 63 568 q 161 802 114 742 q 274 894 208 863 q 417 926 339 926 q 560 894 494 926 q 672 802 625 863 q 744 655 718 742 q 771 458 771 568 q 744 260 771 349 q 672 111 718 172 q 560 17 625 50 q 417 -17 494 -17 m 417 104 q 503 129 464 104 q 569 201 542 154 q 613 313 597 247 q 628 458 628 378 q 570 713 628 621 q 417 806 513 806 q 263 713 321 806 q 206 458 206 621 q 221 313 206 378 q 264 201 236 247 q 331 129 292 154 q 417 104 369 104 m 649 1228 l 764 1228 l 635 1069 l 551 1069 l 649 1228 m 357 1129 l 476 1129 l 606 979 l 503 979 l 419 1063 l 414 1063 l 331 979 l 228 979 l 357 1129 z "},"Ồ":{"ha":833,"x_min":63,"x_max":771,"o":"m 417 -17 q 274 17 339 -17 q 161 111 208 50 q 88 260 114 172 q 63 458 63 349 q 88 655 63 568 q 161 802 114 742 q 274 894 208 863 q 417 926 339 926 q 560 894 494 926 q 672 802 625 863 q 744 655 718 742 q 771 458 771 568 q 744 260 771 349 q 672 111 718 172 q 560 17 625 50 q 417 -17 494 -17 m 417 104 q 503 129 464 104 q 569 201 542 154 q 613 313 597 247 q 628 458 628 378 q 570 713 628 621 q 417 806 513 806 q 263 713 321 806 q 206 458 206 621 q 221 313 206 378 q 264 201 236 247 q 331 129 292 154 q 417 104 369 104 m 692 1069 l 608 1069 l 479 1228 l 594 1228 l 692 1069 m 357 1129 l 476 1129 l 606 979 l 503 979 l 419 1063 l 414 1063 l 331 979 l 228 979 l 357 1129 z "},"Ổ":{"ha":833,"x_min":63,"x_max":771,"o":"m 417 -17 q 274 17 339 -17 q 161 111 208 50 q 88 260 114 172 q 63 458 63 349 q 88 655 63 568 q 161 802 114 742 q 274 894 208 863 q 417 926 339 926 q 560 894 494 926 q 672 802 625 863 q 744 655 718 742 q 771 458 771 568 q 744 260 771 349 q 672 111 718 172 q 560 17 625 50 q 417 -17 494 -17 m 417 104 q 503 129 464 104 q 569 201 542 154 q 613 313 597 247 q 628 458 628 378 q 570 713 628 621 q 417 806 513 806 q 263 713 321 806 q 206 458 206 621 q 221 313 206 378 q 264 201 236 247 q 331 129 292 154 q 417 104 369 104 m 569 1099 q 610 1115 593 1104 q 626 1146 626 1125 q 605 1183 626 1171 q 531 1197 583 1194 l 544 1263 q 721 1158 721 1257 q 710 1111 721 1131 q 680 1078 699 1092 q 636 1058 661 1065 q 585 1046 611 1050 l 569 1099 m 357 1129 l 476 1129 l 606 979 l 503 979 l 419 1063 l 414 1063 l 331 979 l 228 979 l 357 1129 z "},"Ỗ":{"ha":833,"x_min":63,"x_max":771,"o":"m 417 -17 q 274 17 339 -17 q 161 111 208 50 q 88 260 114 172 q 63 458 63 349 q 88 655 63 568 q 161 802 114 742 q 274 894 208 863 q 417 926 339 926 q 560 894 494 926 q 672 802 625 863 q 744 655 718 742 q 771 458 771 568 q 744 260 771 349 q 672 111 718 172 q 560 17 625 50 q 417 -17 494 -17 m 417 104 q 503 129 464 104 q 569 201 542 154 q 613 313 597 247 q 628 458 628 378 q 570 713 628 621 q 417 806 513 806 q 263 713 321 806 q 206 458 206 621 q 221 313 206 378 q 264 201 236 247 q 331 129 292 154 q 417 104 369 104 m 357 1129 l 476 1129 l 606 979 l 503 979 l 419 1063 l 414 1063 l 331 979 l 228 979 l 357 1129 m 228 1179 q 263 1277 233 1242 q 340 1313 293 1313 q 387 1303 367 1313 q 424 1284 407 1294 q 456 1265 442 1274 q 488 1256 471 1256 q 540 1313 531 1256 l 606 1313 q 570 1215 600 1250 q 493 1179 540 1179 q 447 1188 467 1179 q 409 1208 426 1197 q 377 1227 392 1218 q 346 1236 363 1236 q 293 1179 303 1236 l 228 1179 z "},"Ộ":{"ha":833,"x_min":63,"x_max":771,"o":"m 417 -17 q 274 17 339 -17 q 161 111 208 50 q 88 260 114 172 q 63 458 63 349 q 88 655 63 568 q 161 802 114 742 q 274 894 208 863 q 417 926 339 926 q 560 894 494 926 q 672 802 625 863 q 744 655 718 742 q 771 458 771 568 q 744 260 771 349 q 672 111 718 172 q 560 17 625 50 q 417 -17 494 -17 m 417 104 q 503 129 464 104 q 569 201 542 154 q 613 313 597 247 q 628 458 628 378 q 570 713 628 621 q 417 806 513 806 q 263 713 321 806 q 206 458 206 621 q 221 313 206 378 q 264 201 236 247 q 331 129 292 154 q 417 104 369 104 m 217 979 l 350 1138 l 483 1138 l 617 979 l 507 979 l 419 1071 l 414 1071 l 326 979 l 217 979 m 417 -324 q 343 -297 372 -324 q 314 -226 314 -271 q 343 -155 314 -182 q 417 -128 372 -128 q 490 -155 461 -128 q 519 -226 519 -182 q 490 -297 519 -271 q 417 -324 461 -324 z "},"Ø":{"ha":833,"x_min":57,"x_max":781,"o":"m 283 172 q 417 104 336 104 q 503 129 464 104 q 569 201 542 154 q 613 313 597 247 q 628 458 628 378 q 621 557 628 511 q 601 642 614 603 l 283 172 m 554 735 q 417 806 499 806 q 263 713 321 806 q 206 458 206 621 q 233 265 206 349 l 554 735 m 692 774 q 750 635 729 714 q 771 458 771 556 q 744 260 771 349 q 672 111 718 172 q 560 17 625 50 q 417 -17 494 -17 q 207 61 297 -17 l 135 -46 l 57 6 l 144 135 q 84 277 106 196 q 63 458 63 358 q 88 655 63 568 q 161 802 114 742 q 274 894 208 863 q 417 926 339 926 q 631 847 540 926 l 704 956 l 781 904 l 692 774 z "},"Œ":{"ha":833,"x_min":40,"x_max":822,"o":"m 40 458 q 67 654 40 569 q 142 796 93 739 q 259 882 190 853 q 414 911 328 911 l 808 911 l 808 794 l 551 794 l 551 533 l 747 533 l 747 417 l 551 417 l 551 117 l 822 117 l 822 0 l 408 0 q 256 30 324 0 q 140 118 188 60 q 66 262 92 176 q 40 458 40 347 m 183 458 q 237 199 183 286 q 397 113 290 113 l 425 113 l 425 797 l 397 797 q 237 715 290 797 q 183 458 183 632 z "},"Ơ":{"ha":833,"x_min":63,"x_max":793,"o":"m 417 104 q 503 129 464 104 q 569 201 542 154 q 613 313 597 247 q 628 458 628 378 q 570 713 628 621 q 417 806 513 806 q 263 713 321 806 q 206 458 206 621 q 221 313 206 378 q 264 201 236 247 q 331 129 292 154 q 417 104 369 104 m 758 1078 q 783 1034 774 1058 q 793 982 793 1010 q 753 881 793 917 q 649 829 713 844 q 739 675 707 768 q 771 458 771 582 q 744 260 771 349 q 672 111 718 172 q 560 17 625 50 q 417 -17 494 -17 q 274 17 339 -17 q 161 111 208 50 q 88 260 114 172 q 63 458 63 349 q 88 655 63 568 q 161 802 114 742 q 274 894 208 863 q 417 926 339 926 q 581 883 506 926 q 656 912 629 892 q 682 972 682 932 q 661 1032 682 1004 l 758 1078 z "},"Ớ":{"ha":833,"x_min":63,"x_max":793,"o":"m 417 104 q 503 129 464 104 q 569 201 542 154 q 613 313 597 247 q 628 458 628 378 q 570 713 628 621 q 417 806 513 806 q 263 713 321 806 q 206 458 206 621 q 221 313 206 378 q 264 201 236 247 q 331 129 292 154 q 417 104 369 104 m 758 1078 q 783 1034 774 1058 q 793 982 793 1010 q 753 881 793 917 q 649 829 713 844 q 739 675 707 768 q 771 458 771 582 q 744 260 771 349 q 672 111 718 172 q 560 17 625 50 q 417 -17 494 -17 q 274 17 339 -17 q 161 111 208 50 q 88 260 114 172 q 63 458 63 349 q 88 655 63 568 q 161 802 114 742 q 274 894 208 863 q 417 926 339 926 q 581 883 506 926 q 656 912 629 892 q 682 972 682 932 q 661 1032 682 1004 l 758 1078 m 450 979 l 338 979 l 457 1138 l 610 1138 l 450 979 z "},"Ờ":{"ha":833,"x_min":63,"x_max":793,"o":"m 417 104 q 503 129 464 104 q 569 201 542 154 q 613 313 597 247 q 628 458 628 378 q 570 713 628 621 q 417 806 513 806 q 263 713 321 806 q 206 458 206 621 q 221 313 206 378 q 264 201 236 247 q 331 129 292 154 q 417 104 369 104 m 758 1078 q 783 1034 774 1058 q 793 982 793 1010 q 753 881 793 917 q 649 829 713 844 q 739 675 707 768 q 771 458 771 582 q 744 260 771 349 q 672 111 718 172 q 560 17 625 50 q 417 -17 494 -17 q 274 17 339 -17 q 161 111 208 50 q 88 260 114 172 q 63 458 63 349 q 88 655 63 568 q 161 802 114 742 q 274 894 208 863 q 417 926 339 926 q 581 883 506 926 q 656 912 629 892 q 682 972 682 932 q 661 1032 682 1004 l 758 1078 m 224 1138 l 376 1138 l 496 979 l 383 979 l 224 1138 z "},"Ở":{"ha":833,"x_min":63,"x_max":793,"o":"m 417 104 q 503 129 464 104 q 569 201 542 154 q 613 313 597 247 q 628 458 628 378 q 570 713 628 621 q 417 806 513 806 q 263 713 321 806 q 206 458 206 621 q 221 313 206 378 q 264 201 236 247 q 331 129 292 154 q 417 104 369 104 m 758 1078 q 783 1034 774 1058 q 793 982 793 1010 q 753 881 793 917 q 649 829 713 844 q 739 675 707 768 q 771 458 771 582 q 744 260 771 349 q 672 111 718 172 q 560 17 625 50 q 417 -17 494 -17 q 274 17 339 -17 q 161 111 208 50 q 88 260 114 172 q 63 458 63 349 q 88 655 63 568 q 161 802 114 742 q 274 894 208 863 q 417 926 339 926 q 581 883 506 926 q 656 912 629 892 q 682 972 682 932 q 661 1032 682 1004 l 758 1078 m 361 1028 q 415 1048 393 1035 q 436 1085 436 1061 q 322 1140 436 1135 l 336 1217 q 539 1100 539 1210 q 526 1045 539 1068 q 490 1006 513 1022 q 438 981 467 990 q 375 967 408 971 l 361 1028 z "},"Ỡ":{"ha":833,"x_min":63,"x_max":793,"o":"m 417 104 q 503 129 464 104 q 569 201 542 154 q 613 313 597 247 q 628 458 628 378 q 570 713 628 621 q 417 806 513 806 q 263 713 321 806 q 206 458 206 621 q 221 313 206 378 q 264 201 236 247 q 331 129 292 154 q 417 104 369 104 m 758 1078 q 783 1034 774 1058 q 793 982 793 1010 q 753 881 793 917 q 649 829 713 844 q 739 675 707 768 q 771 458 771 582 q 744 260 771 349 q 672 111 718 172 q 560 17 625 50 q 417 -17 494 -17 q 274 17 339 -17 q 161 111 208 50 q 88 260 114 172 q 63 458 63 349 q 88 655 63 568 q 161 802 114 742 q 274 894 208 863 q 417 926 339 926 q 581 883 506 926 q 656 912 629 892 q 682 972 682 932 q 661 1032 682 1004 l 758 1078 m 501 985 q 451 996 474 985 q 410 1019 429 1007 q 372 1043 390 1032 q 336 1054 354 1054 q 281 985 293 1054 l 207 985 q 247 1101 214 1057 q 332 1144 281 1144 q 382 1133 360 1144 q 424 1110 404 1122 q 461 1086 443 1097 q 497 1075 479 1075 q 553 1144 540 1075 l 626 1144 q 586 1028 619 1072 q 501 985 553 985 z "},"Ợ":{"ha":833,"x_min":63,"x_max":793,"o":"m 417 104 q 503 129 464 104 q 569 201 542 154 q 613 313 597 247 q 628 458 628 378 q 570 713 628 621 q 417 806 513 806 q 263 713 321 806 q 206 458 206 621 q 221 313 206 378 q 264 201 236 247 q 331 129 292 154 q 417 104 369 104 m 758 1078 q 783 1034 774 1058 q 793 982 793 1010 q 753 881 793 917 q 649 829 713 844 q 739 675 707 768 q 771 458 771 582 q 744 260 771 349 q 672 111 718 172 q 560 17 625 50 q 417 -17 494 -17 q 274 17 339 -17 q 161 111 208 50 q 88 260 114 172 q 63 458 63 349 q 88 655 63 568 q 161 802 114 742 q 274 894 208 863 q 417 926 339 926 q 581 883 506 926 q 656 912 629 892 q 682 972 682 932 q 661 1032 682 1004 l 758 1078 m 417 -324 q 343 -297 372 -324 q 314 -226 314 -271 q 343 -155 314 -182 q 417 -128 372 -128 q 490 -155 461 -128 q 519 -226 519 -182 q 490 -297 519 -271 q 417 -324 461 -324 z "},"Ǫ":{"ha":833,"x_min":63,"x_max":771,"o":"m 576 -257 q 520 -287 554 -275 q 457 -299 486 -299 q 358 -267 399 -299 q 317 -175 317 -236 q 342 -85 317 -126 q 403 -15 368 -44 q 251 30 315 -11 q 144 136 186 71 q 83 285 103 201 q 63 458 63 368 q 88 655 63 568 q 161 802 114 742 q 274 894 208 863 q 417 926 339 926 q 560 894 494 926 q 672 802 625 863 q 744 655 718 742 q 771 458 771 568 q 704 161 771 274 q 528 1 638 49 q 447 -65 472 -22 q 422 -143 422 -107 q 442 -190 422 -175 q 486 -204 463 -204 q 515 -199 501 -204 q 540 -185 529 -193 l 576 -257 m 417 104 q 503 129 464 104 q 569 201 542 154 q 613 313 597 247 q 628 458 628 378 q 570 713 628 621 q 417 806 513 806 q 263 713 321 806 q 206 458 206 621 q 221 313 206 378 q 264 201 236 247 q 331 129 292 154 q 417 104 369 104 z "},"Ŕ":{"ha":833,"x_min":128,"x_max":779,"o":"m 267 482 l 404 482 q 557 523 504 482 q 610 647 610 564 q 557 765 610 731 q 404 799 504 799 l 267 799 l 267 482 m 622 0 l 415 369 l 267 369 l 267 0 l 128 0 l 128 910 l 421 910 q 551 897 492 910 q 655 852 611 883 q 723 771 699 821 q 747 647 747 721 q 695 478 747 542 q 556 388 643 414 l 779 0 l 622 0 m 456 979 l 343 979 l 463 1138 l 615 1138 l 456 979 z "},"Ř":{"ha":833,"x_min":128,"x_max":779,"o":"m 267 482 l 404 482 q 557 523 504 482 q 610 647 610 564 q 557 765 610 731 q 404 799 504 799 l 267 799 l 267 482 m 622 0 l 415 369 l 267 369 l 267 0 l 128 0 l 128 910 l 421 910 q 551 897 492 910 q 655 852 611 883 q 723 771 699 821 q 747 647 747 721 q 695 478 747 542 q 556 388 643 414 l 779 0 l 622 0 m 622 1138 l 489 979 l 356 979 l 222 1138 l 332 1138 l 419 1046 l 425 1046 l 513 1138 l 622 1138 z "},"Ŗ":{"ha":833,"x_min":128,"x_max":779,"o":"m 267 482 l 404 482 q 557 523 504 482 q 610 647 610 564 q 557 765 610 731 q 404 799 504 799 l 267 799 l 267 482 m 622 0 l 415 369 l 267 369 l 267 0 l 128 0 l 128 910 l 421 910 q 551 897 492 910 q 655 852 611 883 q 723 771 699 821 q 747 647 747 721 q 695 478 747 542 q 556 388 643 414 l 779 0 l 622 0 m 401 -64 q 512 -100 479 -75 q 544 -174 544 -125 q 527 -229 544 -206 q 481 -269 510 -253 q 413 -294 451 -285 q 332 -306 374 -303 l 321 -242 q 408 -222 374 -235 q 442 -182 442 -208 q 422 -144 442 -157 q 374 -124 403 -131 l 401 -64 l 401 -64 z "},"Ṛ":{"ha":833,"x_min":128,"x_max":779,"o":"m 267 482 l 404 482 q 557 523 504 482 q 610 647 610 564 q 557 765 610 731 q 404 799 504 799 l 267 799 l 267 482 m 622 0 l 415 369 l 267 369 l 267 0 l 128 0 l 128 910 l 421 910 q 551 897 492 910 q 655 852 611 883 q 723 771 699 821 q 747 647 747 721 q 695 478 747 542 q 556 388 643 414 l 779 0 l 622 0 m 444 -324 q 371 -297 400 -324 q 342 -226 342 -271 q 371 -155 342 -182 q 444 -128 400 -128 q 518 -155 489 -128 q 547 -226 547 -182 q 518 -297 547 -271 q 444 -324 489 -324 z "},"Ṝ":{"ha":833,"x_min":128,"x_max":779,"o":"m 267 482 l 404 482 q 557 523 504 482 q 610 647 610 564 q 557 765 610 731 q 404 799 504 799 l 267 799 l 267 482 m 622 0 l 415 369 l 267 369 l 267 0 l 128 0 l 128 910 l 421 910 q 551 897 492 910 q 655 852 611 883 q 723 771 699 821 q 747 647 747 721 q 695 478 747 542 q 556 388 643 414 l 779 0 l 622 0 m 244 1101 l 600 1101 l 600 1008 l 244 1008 l 244 1101 m 444 -324 q 371 -297 400 -324 q 342 -226 342 -271 q 371 -155 342 -182 q 444 -128 400 -128 q 518 -155 489 -128 q 547 -226 547 -182 q 518 -297 547 -271 q 444 -324 489 -324 z "},"Ṟ":{"ha":833,"x_min":128,"x_max":779,"o":"m 267 482 l 404 482 q 557 523 504 482 q 610 647 610 564 q 557 765 610 731 q 404 799 504 799 l 267 799 l 267 482 m 622 0 l 415 369 l 267 369 l 267 0 l 128 0 l 128 910 l 421 910 q 551 897 492 910 q 655 852 611 883 q 723 771 699 821 q 747 647 747 721 q 695 478 747 542 q 556 388 643 414 l 779 0 l 622 0 m 621 -243 l 267 -243 l 267 -151 l 621 -151 l 621 -243 z "},"Ś":{"ha":833,"x_min":88,"x_max":751,"o":"m 168 213 q 287 134 221 164 q 424 104 353 104 q 562 140 514 104 q 610 238 610 176 q 598 290 610 268 q 565 328 586 313 q 515 357 544 344 q 451 383 486 369 l 324 440 q 254 474 289 454 q 192 523 219 494 q 147 590 164 551 q 129 678 129 628 q 151 776 129 731 q 215 856 174 822 q 312 908 256 889 q 436 926 368 926 q 594 896 521 926 q 721 813 668 865 l 649 724 q 553 784 604 763 q 436 806 501 806 q 314 774 358 806 q 269 686 269 742 q 283 635 269 656 q 318 598 296 614 q 369 570 340 582 q 428 546 397 558 l 551 492 q 631 453 594 475 q 694 403 667 432 q 736 337 721 375 q 751 249 751 299 q 729 146 751 194 q 664 61 707 97 q 560 4 621 25 q 421 -17 499 -17 q 238 19 322 -17 q 88 118 153 54 l 168 213 m 464 979 l 351 979 l 471 1138 l 624 1138 l 464 979 z "},"Ŝ":{"ha":833,"x_min":88,"x_max":751,"o":"m 168 213 q 287 134 221 164 q 424 104 353 104 q 562 140 514 104 q 610 238 610 176 q 598 290 610 268 q 565 328 586 313 q 515 357 544 344 q 451 383 486 369 l 324 440 q 254 474 289 454 q 192 523 219 494 q 147 590 164 551 q 129 678 129 628 q 151 776 129 731 q 215 856 174 822 q 312 908 256 889 q 436 926 368 926 q 594 896 521 926 q 721 813 668 865 l 649 724 q 553 784 604 763 q 436 806 501 806 q 314 774 358 806 q 269 686 269 742 q 283 635 269 656 q 318 598 296 614 q 369 570 340 582 q 428 546 397 558 l 551 492 q 631 453 594 475 q 694 403 667 432 q 736 337 721 375 q 751 249 751 299 q 729 146 751 194 q 664 61 707 97 q 560 4 621 25 q 421 -17 499 -17 q 238 19 322 -17 q 88 118 153 54 l 168 213 m 231 979 l 364 1138 l 497 1138 l 631 979 l 521 979 l 433 1071 l 428 1071 l 340 979 l 231 979 z "},"Š":{"ha":833,"x_min":88,"x_max":751,"o":"m 168 213 q 287 134 221 164 q 424 104 353 104 q 562 140 514 104 q 610 238 610 176 q 598 290 610 268 q 565 328 586 313 q 515 357 544 344 q 451 383 486 369 l 324 440 q 254 474 289 454 q 192 523 219 494 q 147 590 164 551 q 129 678 129 628 q 151 776 129 731 q 215 856 174 822 q 312 908 256 889 q 436 926 368 926 q 594 896 521 926 q 721 813 668 865 l 649 724 q 553 784 604 763 q 436 806 501 806 q 314 774 358 806 q 269 686 269 742 q 283 635 269 656 q 318 598 296 614 q 369 570 340 582 q 428 546 397 558 l 551 492 q 631 453 594 475 q 694 403 667 432 q 736 337 721 375 q 751 249 751 299 q 729 146 751 194 q 664 61 707 97 q 560 4 621 25 q 421 -17 499 -17 q 238 19 322 -17 q 88 118 153 54 l 168 213 m 631 1138 l 497 979 l 364 979 l 231 1138 l 340 1138 l 428 1046 l 433 1046 l 521 1138 l 631 1138 z "},"Ş":{"ha":833,"x_min":88,"x_max":751,"o":"m 168 213 q 287 134 221 164 q 424 104 353 104 q 562 140 514 104 q 610 238 610 176 q 598 290 610 268 q 565 328 586 313 q 515 357 544 344 q 451 383 486 369 l 324 440 q 254 474 289 454 q 192 523 219 494 q 147 590 164 551 q 129 678 129 628 q 151 776 129 731 q 215 856 174 822 q 312 908 256 889 q 436 926 368 926 q 594 896 521 926 q 721 813 668 865 l 649 724 q 553 784 604 763 q 436 806 501 806 q 314 774 358 806 q 269 686 269 742 q 283 635 269 656 q 318 598 296 614 q 369 570 340 582 q 428 546 397 558 l 551 492 q 631 453 594 475 q 694 403 667 432 q 736 337 721 375 q 751 249 751 299 q 729 146 751 194 q 664 61 707 97 q 560 4 621 25 q 421 -17 499 -17 q 238 19 322 -17 q 88 118 153 54 l 168 213 m 390 4 l 476 4 l 443 -67 q 501 -101 478 -78 q 525 -167 525 -124 q 508 -222 525 -199 q 461 -262 490 -246 q 393 -287 432 -278 q 313 -299 354 -296 l 300 -235 q 388 -212 354 -228 q 422 -169 422 -197 q 401 -131 422 -146 q 335 -104 379 -115 l 390 4 z "},"Ș":{"ha":833,"x_min":88,"x_max":751,"o":"m 168 213 q 287 134 221 164 q 424 104 353 104 q 562 140 514 104 q 610 238 610 176 q 598 290 610 268 q 565 328 586 313 q 515 357 544 344 q 451 383 486 369 l 324 440 q 254 474 289 454 q 192 523 219 494 q 147 590 164 551 q 129 678 129 628 q 151 776 129 731 q 215 856 174 822 q 312 908 256 889 q 436 926 368 926 q 594 896 521 926 q 721 813 668 865 l 649 724 q 553 784 604 763 q 436 806 501 806 q 314 774 358 806 q 269 686 269 742 q 283 635 269 656 q 318 598 296 614 q 369 570 340 582 q 428 546 397 558 l 551 492 q 631 453 594 475 q 694 403 667 432 q 736 337 721 375 q 751 249 751 299 q 729 146 751 194 q 664 61 707 97 q 560 4 621 25 q 421 -17 499 -17 q 238 19 322 -17 q 88 118 153 54 l 168 213 m 388 -64 q 498 -100 465 -75 q 531 -174 531 -125 q 513 -229 531 -206 q 467 -269 496 -253 q 399 -294 438 -285 q 318 -306 360 -303 l 307 -242 q 394 -222 360 -235 q 428 -182 428 -208 q 408 -144 428 -157 q 360 -124 389 -131 l 388 -64 l 388 -64 z "},"Ṡ":{"ha":833,"x_min":88,"x_max":751,"o":"m 168 213 q 287 134 221 164 q 424 104 353 104 q 562 140 514 104 q 610 238 610 176 q 598 290 610 268 q 565 328 586 313 q 515 357 544 344 q 451 383 486 369 l 324 440 q 254 474 289 454 q 192 523 219 494 q 147 590 164 551 q 129 678 129 628 q 151 776 129 731 q 215 856 174 822 q 312 908 256 889 q 436 926 368 926 q 594 896 521 926 q 721 813 668 865 l 649 724 q 553 784 604 763 q 436 806 501 806 q 314 774 358 806 q 269 686 269 742 q 283 635 269 656 q 318 598 296 614 q 369 570 340 582 q 428 546 397 558 l 551 492 q 631 453 594 475 q 694 403 667 432 q 736 337 721 375 q 751 249 751 299 q 729 146 751 194 q 664 61 707 97 q 560 4 621 25 q 421 -17 499 -17 q 238 19 322 -17 q 88 118 153 54 l 168 213 m 431 986 q 367 1010 393 986 q 342 1071 342 1033 q 367 1130 342 1107 q 431 1153 393 1153 q 494 1130 468 1153 q 519 1071 519 1107 q 494 1010 519 1033 q 431 986 468 986 z "},"Ṣ":{"ha":833,"x_min":88,"x_max":751,"o":"m 168 213 q 287 134 221 164 q 424 104 353 104 q 562 140 514 104 q 610 238 610 176 q 598 290 610 268 q 565 328 586 313 q 515 357 544 344 q 451 383 486 369 l 324 440 q 254 474 289 454 q 192 523 219 494 q 147 590 164 551 q 129 678 129 628 q 151 776 129 731 q 215 856 174 822 q 312 908 256 889 q 436 926 368 926 q 594 896 521 926 q 721 813 668 865 l 649 724 q 553 784 604 763 q 436 806 501 806 q 314 774 358 806 q 269 686 269 742 q 283 635 269 656 q 318 598 296 614 q 369 570 340 582 q 428 546 397 558 l 551 492 q 631 453 594 475 q 694 403 667 432 q 736 337 721 375 q 751 249 751 299 q 729 146 751 194 q 664 61 707 97 q 560 4 621 25 q 421 -17 499 -17 q 238 19 322 -17 q 88 118 153 54 l 168 213 m 431 -324 q 357 -297 386 -324 q 328 -226 328 -271 q 357 -155 328 -182 q 431 -128 386 -128 q 504 -155 475 -128 q 533 -226 533 -182 q 504 -297 533 -271 q 431 -324 475 -324 z "},"ẞ":{"ha":833,"x_min":104,"x_max":782,"o":"m 104 604 q 124 731 104 672 q 183 833 143 790 q 284 901 222 876 q 429 926 346 926 q 611 865 540 926 q 713 701 682 804 l 565 501 q 727 406 672 471 q 782 240 782 340 q 766 139 782 186 q 719 57 750 92 q 644 3 689 22 q 543 -17 600 -17 q 414 10 469 -17 q 322 81 358 38 l 399 168 q 529 97 461 97 q 608 138 579 97 q 636 240 636 178 q 626 296 636 269 q 592 345 617 322 q 528 387 568 368 q 431 418 489 406 l 421 504 l 569 707 q 516 781 551 750 q 425 813 481 813 q 292 756 339 813 q 246 581 246 700 l 246 0 l 104 0 l 104 604 z "},"Ť":{"ha":833,"x_min":54,"x_max":779,"o":"m 347 793 l 54 793 l 54 910 l 779 910 l 779 793 l 486 793 l 486 0 l 347 0 l 347 793 m 617 1138 l 483 979 l 350 979 l 217 1138 l 326 1138 l 414 1046 l 419 1046 l 507 1138 l 617 1138 z "},"Ţ":{"ha":833,"x_min":54,"x_max":779,"o":"m 347 793 l 54 793 l 54 910 l 779 910 l 779 793 l 486 793 l 486 0 l 347 0 l 347 793 m 376 4 l 463 4 l 429 -67 q 488 -101 464 -78 q 511 -167 511 -124 q 494 -222 511 -199 q 447 -262 476 -246 q 379 -287 418 -278 q 299 -299 340 -296 l 286 -235 q 374 -212 340 -228 q 408 -169 408 -197 q 387 -131 408 -146 q 321 -104 365 -115 l 376 4 z "},"Ț":{"ha":833,"x_min":54,"x_max":779,"o":"m 347 793 l 54 793 l 54 910 l 779 910 l 779 793 l 486 793 l 486 0 l 347 0 l 347 793 m 375 -64 q 485 -100 453 -75 q 518 -174 518 -125 q 501 -229 518 -206 q 454 -269 483 -253 q 386 -294 425 -285 q 306 -306 347 -303 l 294 -242 q 381 -222 347 -235 q 415 -182 415 -208 q 396 -144 415 -157 q 347 -124 376 -131 l 375 -64 l 375 -64 z "},"Ṭ":{"ha":833,"x_min":54,"x_max":779,"o":"m 347 793 l 54 793 l 54 910 l 779 910 l 779 793 l 486 793 l 486 0 l 347 0 l 347 793 m 418 -324 q 344 -297 374 -324 q 315 -226 315 -271 q 344 -155 315 -182 q 418 -128 374 -128 q 492 -155 463 -128 q 521 -226 521 -182 q 492 -297 521 -271 q 418 -324 463 -324 z "},"Ṯ":{"ha":833,"x_min":54,"x_max":779,"o":"m 347 793 l 54 793 l 54 910 l 779 910 l 779 793 l 486 793 l 486 0 l 347 0 l 347 793 m 594 -243 l 240 -243 l 240 -151 l 594 -151 l 594 -243 z "},"Ù":{"ha":833,"x_min":104,"x_max":729,"o":"m 104 910 l 244 910 l 244 338 q 292 158 244 213 q 418 104 340 104 q 545 158 496 104 q 594 338 594 213 l 594 910 l 729 910 l 729 346 q 707 181 729 250 q 644 69 685 113 q 547 4 604 25 q 418 -17 489 -17 q 290 4 347 -17 q 190 69 232 25 q 126 181 149 113 q 104 346 104 250 l 104 910 m 224 1138 l 376 1138 l 496 979 l 383 979 l 224 1138 z "},"Ú":{"ha":833,"x_min":104,"x_max":729,"o":"m 104 910 l 244 910 l 244 338 q 292 158 244 213 q 418 104 340 104 q 545 158 496 104 q 594 338 594 213 l 594 910 l 729 910 l 729 346 q 707 181 729 250 q 644 69 685 113 q 547 4 604 25 q 418 -17 489 -17 q 290 4 347 -17 q 190 69 232 25 q 126 181 149 113 q 104 346 104 250 l 104 910 m 450 979 l 338 979 l 457 1138 l 610 1138 l 450 979 z "},"Û":{"ha":833,"x_min":104,"x_max":729,"o":"m 104 910 l 244 910 l 244 338 q 292 158 244 213 q 418 104 340 104 q 545 158 496 104 q 594 338 594 213 l 594 910 l 729 910 l 729 346 q 707 181 729 250 q 644 69 685 113 q 547 4 604 25 q 418 -17 489 -17 q 290 4 347 -17 q 190 69 232 25 q 126 181 149 113 q 104 346 104 250 l 104 910 m 217 979 l 350 1138 l 483 1138 l 617 979 l 507 979 l 419 1071 l 414 1071 l 326 979 l 217 979 z "},"Ũ":{"ha":833,"x_min":104,"x_max":729,"o":"m 104 910 l 244 910 l 244 338 q 292 158 244 213 q 418 104 340 104 q 545 158 496 104 q 594 338 594 213 l 594 910 l 729 910 l 729 346 q 707 181 729 250 q 644 69 685 113 q 547 4 604 25 q 418 -17 489 -17 q 290 4 347 -17 q 190 69 232 25 q 126 181 149 113 q 104 346 104 250 l 104 910 m 501 985 q 451 996 474 985 q 410 1019 429 1007 q 372 1043 390 1032 q 336 1054 354 1054 q 281 985 293 1054 l 207 985 q 247 1101 214 1057 q 332 1144 281 1144 q 382 1133 360 1144 q 424 1110 404 1122 q 461 1086 443 1097 q 497 1075 479 1075 q 553 1144 540 1075 l 626 1144 q 586 1028 619 1072 q 501 985 553 985 z "},"Ü":{"ha":833,"x_min":104,"x_max":729,"o":"m 104 910 l 244 910 l 244 338 q 292 158 244 213 q 418 104 340 104 q 545 158 496 104 q 594 338 594 213 l 594 910 l 729 910 l 729 346 q 707 181 729 250 q 644 69 685 113 q 547 4 604 25 q 418 -17 489 -17 q 290 4 347 -17 q 190 69 232 25 q 126 181 149 113 q 104 346 104 250 l 104 910 m 292 988 q 238 1009 260 988 q 217 1064 217 1031 q 238 1117 217 1096 q 292 1139 260 1139 q 347 1117 325 1139 q 368 1064 368 1096 q 347 1009 368 1031 q 292 988 325 988 m 542 988 q 487 1009 508 988 q 465 1064 465 1031 q 487 1117 465 1096 q 542 1139 508 1139 q 595 1117 574 1139 q 617 1064 617 1096 q 595 1009 617 1031 q 542 988 574 988 z "},"Ū":{"ha":833,"x_min":104,"x_max":729,"o":"m 104 910 l 244 910 l 244 338 q 292 158 244 213 q 418 104 340 104 q 545 158 496 104 q 594 338 594 213 l 594 910 l 729 910 l 729 346 q 707 181 729 250 q 644 69 685 113 q 547 4 604 25 q 418 -17 489 -17 q 290 4 347 -17 q 190 69 232 25 q 126 181 149 113 q 104 346 104 250 l 104 910 m 239 1101 l 594 1101 l 594 1008 l 239 1008 l 239 1101 z "},"Ŭ":{"ha":833,"x_min":104,"x_max":729,"o":"m 104 910 l 244 910 l 244 338 q 292 158 244 213 q 418 104 340 104 q 545 158 496 104 q 594 338 594 213 l 594 910 l 729 910 l 729 346 q 707 181 729 250 q 644 69 685 113 q 547 4 604 25 q 418 -17 489 -17 q 290 4 347 -17 q 190 69 232 25 q 126 181 149 113 q 104 346 104 250 l 104 910 m 417 981 q 342 993 374 981 q 290 1028 311 1006 q 256 1078 268 1050 q 240 1138 244 1106 l 321 1138 q 350 1081 328 1106 q 417 1056 372 1056 q 483 1081 461 1056 q 513 1138 506 1106 l 593 1138 q 577 1078 589 1106 q 544 1028 565 1050 q 491 993 522 1006 q 417 981 460 981 z "},"Ů":{"ha":833,"x_min":104,"x_max":729,"o":"m 104 910 l 244 910 l 244 338 q 292 158 244 213 q 418 104 340 104 q 545 158 496 104 q 594 338 594 213 l 594 910 l 729 910 l 729 346 q 707 181 729 250 q 644 69 685 113 q 547 4 604 25 q 418 -17 489 -17 q 290 4 347 -17 q 190 69 232 25 q 126 181 149 113 q 104 346 104 250 l 104 910 m 417 969 q 318 1003 356 969 q 281 1096 281 1038 q 318 1188 281 1154 q 417 1221 356 1221 q 515 1188 476 1221 q 553 1096 553 1154 q 515 1003 553 1038 q 417 969 476 969 m 417 1026 q 461 1045 443 1026 q 479 1096 479 1064 q 461 1146 479 1128 q 417 1164 443 1164 q 371 1146 389 1164 q 353 1096 353 1128 q 371 1045 353 1064 q 417 1026 389 1026 z "},"Ű":{"ha":833,"x_min":104,"x_max":729,"o":"m 104 910 l 244 910 l 244 338 q 292 158 244 213 q 418 104 340 104 q 545 158 496 104 q 594 338 594 213 l 594 910 l 729 910 l 729 346 q 707 181 729 250 q 644 69 685 113 q 547 4 604 25 q 418 -17 489 -17 q 290 4 347 -17 q 190 69 232 25 q 126 181 149 113 q 104 346 104 250 l 104 910 m 256 979 l 346 1138 l 469 1138 l 353 979 l 256 979 m 572 1138 l 697 1138 l 579 979 l 482 979 l 572 1138 z "},"Ǔ":{"ha":833,"x_min":104,"x_max":729,"o":"m 104 910 l 244 910 l 244 338 q 292 158 244 213 q 418 104 340 104 q 545 158 496 104 q 594 338 594 213 l 594 910 l 729 910 l 729 346 q 707 181 729 250 q 644 69 685 113 q 547 4 604 25 q 418 -17 489 -17 q 290 4 347 -17 q 190 69 232 25 q 126 181 149 113 q 104 346 104 250 l 104 910 m 617 1138 l 483 979 l 350 979 l 217 1138 l 326 1138 l 414 1046 l 419 1046 l 507 1138 l 617 1138 z "},"Ǖ":{"ha":833,"x_min":104,"x_max":729,"o":"m 104 910 l 244 910 l 244 338 q 292 158 244 213 q 418 104 340 104 q 545 158 496 104 q 594 338 594 213 l 594 910 l 729 910 l 729 346 q 707 181 729 250 q 644 69 685 113 q 547 4 604 25 q 418 -17 489 -17 q 290 4 347 -17 q 190 69 232 25 q 126 181 149 113 q 104 346 104 250 l 104 910 m 239 1272 l 594 1272 l 594 1200 l 239 1200 l 239 1272 m 292 988 q 243 1007 263 988 q 224 1057 224 1026 q 243 1106 224 1088 q 292 1125 263 1125 q 342 1106 322 1125 q 361 1057 361 1088 q 342 1007 361 1026 q 292 988 322 988 m 542 988 q 492 1007 511 988 q 472 1057 472 1026 q 492 1106 472 1088 q 542 1125 511 1125 q 590 1106 571 1125 q 610 1057 610 1088 q 590 1007 610 1026 q 542 988 571 988 z "},"Ǘ":{"ha":833,"x_min":104,"x_max":729,"o":"m 104 910 l 244 910 l 244 338 q 292 158 244 213 q 418 104 340 104 q 545 158 496 104 q 594 338 594 213 l 594 910 l 729 910 l 729 346 q 707 181 729 250 q 644 69 685 113 q 547 4 604 25 q 418 -17 489 -17 q 290 4 347 -17 q 190 69 232 25 q 126 181 149 113 q 104 346 104 250 l 104 910 m 458 1328 l 607 1328 l 449 1171 l 338 1171 l 458 1328 m 292 988 q 243 1007 263 988 q 224 1057 224 1026 q 243 1106 224 1088 q 292 1125 263 1125 q 342 1106 322 1125 q 361 1057 361 1088 q 342 1007 361 1026 q 292 988 322 988 m 542 988 q 492 1007 511 988 q 472 1057 472 1026 q 492 1106 472 1088 q 542 1125 511 1125 q 590 1106 571 1125 q 610 1057 610 1088 q 590 1007 610 1026 q 542 988 571 988 z "},"Ǚ":{"ha":833,"x_min":104,"x_max":729,"o":"m 104 910 l 244 910 l 244 338 q 292 158 244 213 q 418 104 340 104 q 545 158 496 104 q 594 338 594 213 l 594 910 l 729 910 l 729 346 q 707 181 729 250 q 644 69 685 113 q 547 4 604 25 q 418 -17 489 -17 q 290 4 347 -17 q 190 69 232 25 q 126 181 149 113 q 104 346 104 250 l 104 910 m 292 988 q 243 1007 263 988 q 224 1057 224 1026 q 243 1106 224 1088 q 292 1125 263 1125 q 342 1106 322 1125 q 361 1057 361 1088 q 342 1007 361 1026 q 292 988 322 988 m 542 988 q 492 1007 511 988 q 472 1057 472 1026 q 492 1106 472 1088 q 542 1125 511 1125 q 590 1106 571 1125 q 610 1057 610 1088 q 590 1007 610 1026 q 542 988 571 988 m 617 1328 l 483 1171 l 350 1171 l 217 1328 l 326 1328 l 414 1236 l 419 1236 l 507 1328 l 617 1328 z "},"Ǜ":{"ha":833,"x_min":104,"x_max":729,"o":"m 104 910 l 244 910 l 244 338 q 292 158 244 213 q 418 104 340 104 q 545 158 496 104 q 594 338 594 213 l 594 910 l 729 910 l 729 346 q 707 181 729 250 q 644 69 685 113 q 547 4 604 25 q 418 -17 489 -17 q 290 4 347 -17 q 190 69 232 25 q 126 181 149 113 q 104 346 104 250 l 104 910 m 496 1171 l 385 1171 l 226 1328 l 375 1328 l 496 1171 m 542 988 q 492 1007 511 988 q 472 1057 472 1026 q 492 1106 472 1088 q 542 1125 511 1125 q 590 1106 571 1125 q 610 1057 610 1088 q 590 1007 610 1026 q 542 988 571 988 m 292 988 q 243 1007 263 988 q 224 1057 224 1026 q 243 1106 224 1088 q 292 1125 263 1125 q 342 1106 322 1125 q 361 1057 361 1088 q 342 1007 361 1026 q 292 988 322 988 z "},"Ụ":{"ha":833,"x_min":104,"x_max":729,"o":"m 104 910 l 244 910 l 244 338 q 292 158 244 213 q 418 104 340 104 q 545 158 496 104 q 594 338 594 213 l 594 910 l 729 910 l 729 346 q 707 181 729 250 q 644 69 685 113 q 547 4 604 25 q 418 -17 489 -17 q 290 4 347 -17 q 190 69 232 25 q 126 181 149 113 q 104 346 104 250 l 104 910 m 417 -324 q 343 -297 372 -324 q 314 -226 314 -271 q 343 -155 314 -182 q 417 -128 372 -128 q 490 -155 461 -128 q 519 -226 519 -182 q 490 -297 519 -271 q 417 -324 461 -324 z "},"Ủ":{"ha":833,"x_min":104,"x_max":729,"o":"m 104 910 l 244 910 l 244 338 q 292 158 244 213 q 418 104 340 104 q 545 158 496 104 q 594 338 594 213 l 594 910 l 729 910 l 729 346 q 707 181 729 250 q 644 69 685 113 q 547 4 604 25 q 418 -17 489 -17 q 290 4 347 -17 q 190 69 232 25 q 126 181 149 113 q 104 346 104 250 l 104 910 m 361 1028 q 415 1048 393 1035 q 436 1085 436 1061 q 322 1140 436 1135 l 336 1217 q 539 1100 539 1210 q 526 1045 539 1068 q 490 1006 513 1022 q 438 981 467 990 q 375 967 408 971 l 361 1028 z "},"Ų":{"ha":833,"x_min":104,"x_max":729,"o":"m 104 910 l 244 910 l 244 338 q 292 158 244 213 q 417 104 339 104 q 544 158 494 104 q 594 338 594 213 l 594 910 l 729 910 l 729 346 q 683 126 729 207 q 557 8 636 44 q 450 -67 482 -26 q 418 -143 418 -107 q 438 -190 418 -175 q 482 -204 458 -204 q 512 -199 499 -204 q 538 -185 525 -193 l 572 -257 q 517 -287 550 -275 q 453 -299 483 -299 q 354 -267 394 -299 q 314 -175 314 -236 q 324 -122 314 -146 q 347 -77 333 -97 q 376 -42 360 -57 q 404 -15 392 -26 q 178 82 253 -11 q 104 346 104 175 l 104 910 z "},"Ư":{"ha":833,"x_min":104,"x_max":886,"o":"m 851 1106 q 876 1062 867 1086 q 886 1010 886 1038 q 874 947 886 974 q 840 902 861 921 q 790 872 818 883 q 729 853 761 860 l 729 346 q 707 181 729 250 q 644 69 685 113 q 547 4 604 25 q 418 -17 489 -17 q 290 4 347 -17 q 190 69 232 25 q 126 181 149 113 q 104 346 104 250 l 104 910 l 244 910 l 244 338 q 292 158 244 213 q 418 104 340 104 q 545 158 496 104 q 594 338 594 213 l 594 910 l 656 910 q 742 933 708 915 q 776 1000 776 951 q 770 1032 776 1017 q 756 1060 764 1047 l 851 1106 z "},"Ứ":{"ha":833,"x_min":104,"x_max":886,"o":"m 851 1106 q 876 1062 867 1086 q 886 1010 886 1038 q 874 947 886 974 q 840 902 861 921 q 790 872 818 883 q 729 853 761 860 l 729 346 q 707 181 729 250 q 644 69 685 113 q 547 4 604 25 q 418 -17 489 -17 q 290 4 347 -17 q 190 69 232 25 q 126 181 149 113 q 104 346 104 250 l 104 910 l 244 910 l 244 338 q 292 158 244 213 q 418 104 340 104 q 545 158 496 104 q 594 338 594 213 l 594 910 l 656 910 q 742 933 708 915 q 776 1000 776 951 q 770 1032 776 1017 q 756 1060 764 1047 l 851 1106 m 450 979 l 338 979 l 457 1138 l 610 1138 l 450 979 z "},"Ừ":{"ha":833,"x_min":104,"x_max":886,"o":"m 851 1106 q 876 1062 867 1086 q 886 1010 886 1038 q 874 947 886 974 q 840 902 861 921 q 790 872 818 883 q 729 853 761 860 l 729 346 q 707 181 729 250 q 644 69 685 113 q 547 4 604 25 q 418 -17 489 -17 q 290 4 347 -17 q 190 69 232 25 q 126 181 149 113 q 104 346 104 250 l 104 910 l 244 910 l 244 338 q 292 158 244 213 q 418 104 340 104 q 545 158 496 104 q 594 338 594 213 l 594 910 l 656 910 q 742 933 708 915 q 776 1000 776 951 q 770 1032 776 1017 q 756 1060 764 1047 l 851 1106 m 224 1138 l 376 1138 l 496 979 l 383 979 l 224 1138 z "},"Ử":{"ha":833,"x_min":104,"x_max":886,"o":"m 851 1106 q 876 1062 867 1086 q 886 1010 886 1038 q 874 947 886 974 q 840 902 861 921 q 790 872 818 883 q 729 853 761 860 l 729 346 q 707 181 729 250 q 644 69 685 113 q 547 4 604 25 q 418 -17 489 -17 q 290 4 347 -17 q 190 69 232 25 q 126 181 149 113 q 104 346 104 250 l 104 910 l 244 910 l 244 338 q 292 158 244 213 q 418 104 340 104 q 545 158 496 104 q 594 338 594 213 l 594 910 l 656 910 q 742 933 708 915 q 776 1000 776 951 q 770 1032 776 1017 q 756 1060 764 1047 l 851 1106 m 361 1028 q 415 1048 393 1035 q 436 1085 436 1061 q 322 1140 436 1135 l 336 1217 q 539 1100 539 1210 q 526 1045 539 1068 q 490 1006 513 1022 q 438 981 467 990 q 375 967 408 971 l 361 1028 z "},"Ữ":{"ha":833,"x_min":104,"x_max":886,"o":"m 851 1106 q 876 1062 867 1086 q 886 1010 886 1038 q 874 947 886 974 q 840 902 861 921 q 790 872 818 883 q 729 853 761 860 l 729 346 q 707 181 729 250 q 644 69 685 113 q 547 4 604 25 q 418 -17 489 -17 q 290 4 347 -17 q 190 69 232 25 q 126 181 149 113 q 104 346 104 250 l 104 910 l 244 910 l 244 338 q 292 158 244 213 q 418 104 340 104 q 545 158 496 104 q 594 338 594 213 l 594 910 l 656 910 q 742 933 708 915 q 776 1000 776 951 q 770 1032 776 1017 q 756 1060 764 1047 l 851 1106 m 501 985 q 451 996 474 985 q 410 1019 429 1007 q 372 1043 390 1032 q 336 1054 354 1054 q 281 985 293 1054 l 207 985 q 247 1101 214 1057 q 332 1144 281 1144 q 382 1133 360 1144 q 424 1110 404 1122 q 461 1086 443 1097 q 497 1075 479 1075 q 553 1144 540 1075 l 626 1144 q 586 1028 619 1072 q 501 985 553 985 z "},"Ự":{"ha":833,"x_min":104,"x_max":886,"o":"m 851 1106 q 876 1062 867 1086 q 886 1010 886 1038 q 874 947 886 974 q 840 902 861 921 q 790 872 818 883 q 729 853 761 860 l 729 346 q 707 181 729 250 q 644 69 685 113 q 547 4 604 25 q 418 -17 489 -17 q 290 4 347 -17 q 190 69 232 25 q 126 181 149 113 q 104 346 104 250 l 104 910 l 244 910 l 244 338 q 292 158 244 213 q 418 104 340 104 q 545 158 496 104 q 594 338 594 213 l 594 910 l 656 910 q 742 933 708 915 q 776 1000 776 951 q 770 1032 776 1017 q 756 1060 764 1047 l 851 1106 m 417 -324 q 343 -297 372 -324 q 314 -226 314 -271 q 343 -155 314 -182 q 417 -128 372 -128 q 490 -155 461 -128 q 519 -226 519 -182 q 490 -297 519 -271 q 417 -324 461 -324 z "},"Ẁ":{"ha":833,"x_min":13,"x_max":821,"o":"m 13 911 l 151 911 l 213 361 q 220 249 215 304 q 229 135 225 193 l 233 135 q 262 249 247 193 q 289 361 276 304 l 376 676 l 468 676 l 556 361 q 581 249 567 306 q 610 135 596 193 l 615 135 q 624 249 619 193 q 632 361 628 306 l 690 911 l 821 911 l 693 0 l 543 0 l 451 357 q 434 441 442 399 q 419 524 426 483 l 415 524 q 401 441 408 483 q 382 357 393 399 l 294 0 l 147 0 l 13 911 m 224 1138 l 376 1138 l 496 979 l 383 979 l 224 1138 z "},"Ẃ":{"ha":833,"x_min":13,"x_max":821,"o":"m 13 911 l 151 911 l 213 361 q 220 249 215 304 q 229 135 225 193 l 233 135 q 262 249 247 193 q 289 361 276 304 l 376 676 l 468 676 l 556 361 q 581 249 567 306 q 610 135 596 193 l 615 135 q 624 249 619 193 q 632 361 628 306 l 690 911 l 821 911 l 693 0 l 543 0 l 451 357 q 434 441 442 399 q 419 524 426 483 l 415 524 q 401 441 408 483 q 382 357 393 399 l 294 0 l 147 0 l 13 911 m 450 979 l 338 979 l 457 1138 l 610 1138 l 450 979 z "},"Ŵ":{"ha":833,"x_min":13,"x_max":821,"o":"m 13 911 l 151 911 l 213 361 q 220 249 215 304 q 229 135 225 193 l 233 135 q 262 249 247 193 q 289 361 276 304 l 376 676 l 468 676 l 556 361 q 581 249 567 306 q 610 135 596 193 l 615 135 q 624 249 619 193 q 632 361 628 306 l 690 911 l 821 911 l 693 0 l 543 0 l 451 357 q 434 441 442 399 q 419 524 426 483 l 415 524 q 401 441 408 483 q 382 357 393 399 l 294 0 l 147 0 l 13 911 m 217 979 l 350 1138 l 483 1138 l 617 979 l 507 979 l 419 1071 l 414 1071 l 326 979 l 217 979 z "},"Ẅ":{"ha":833,"x_min":13,"x_max":821,"o":"m 13 911 l 151 911 l 213 361 q 220 249 215 304 q 229 135 225 193 l 233 135 q 262 249 247 193 q 289 361 276 304 l 376 676 l 468 676 l 556 361 q 581 249 567 306 q 610 135 596 193 l 615 135 q 624 249 619 193 q 632 361 628 306 l 690 911 l 821 911 l 693 0 l 543 0 l 451 357 q 434 441 442 399 q 419 524 426 483 l 415 524 q 401 441 408 483 q 382 357 393 399 l 294 0 l 147 0 l 13 911 m 292 988 q 238 1009 260 988 q 217 1064 217 1031 q 238 1117 217 1096 q 292 1139 260 1139 q 347 1117 325 1139 q 368 1064 368 1096 q 347 1009 368 1031 q 292 988 325 988 m 542 988 q 487 1009 508 988 q 465 1064 465 1031 q 487 1117 465 1096 q 542 1139 508 1139 q 595 1117 574 1139 q 617 1064 617 1096 q 595 1009 617 1031 q 542 988 574 988 z "},"Ỳ":{"ha":833,"x_min":46,"x_max":788,"o":"m 347 319 l 46 910 l 193 910 l 318 653 q 367 548 343 600 q 417 442 390 496 l 422 442 q 474 548 449 496 q 524 653 499 600 l 644 910 l 788 910 l 486 319 l 486 0 l 347 0 l 347 319 m 224 1138 l 376 1138 l 496 979 l 383 979 l 224 1138 z "},"Ý":{"ha":833,"x_min":46,"x_max":788,"o":"m 347 319 l 46 910 l 193 910 l 318 653 q 367 548 343 600 q 417 442 390 496 l 422 442 q 474 548 449 496 q 524 653 499 600 l 644 910 l 788 910 l 486 319 l 486 0 l 347 0 l 347 319 m 450 979 l 338 979 l 457 1138 l 610 1138 l 450 979 z "},"Ŷ":{"ha":833,"x_min":46,"x_max":788,"o":"m 347 319 l 46 910 l 193 910 l 318 653 q 367 548 343 600 q 417 442 390 496 l 422 442 q 474 548 449 496 q 524 653 499 600 l 644 910 l 788 910 l 486 319 l 486 0 l 347 0 l 347 319 m 217 979 l 350 1138 l 483 1138 l 617 979 l 507 979 l 419 1071 l 414 1071 l 326 979 l 217 979 z "},"Ÿ":{"ha":833,"x_min":46,"x_max":788,"o":"m 347 319 l 46 910 l 193 910 l 318 653 q 367 548 343 600 q 417 442 390 496 l 422 442 q 474 548 449 496 q 524 653 499 600 l 644 910 l 788 910 l 486 319 l 486 0 l 347 0 l 347 319 m 292 988 q 238 1009 260 988 q 217 1064 217 1031 q 238 1117 217 1096 q 292 1139 260 1139 q 347 1117 325 1139 q 368 1064 368 1096 q 347 1009 368 1031 q 292 988 325 988 m 542 988 q 487 1009 508 988 q 465 1064 465 1031 q 487 1117 465 1096 q 542 1139 508 1139 q 595 1117 574 1139 q 617 1064 617 1096 q 595 1009 617 1031 q 542 988 574 988 z "},"Ẏ":{"ha":833,"x_min":46,"x_max":788,"o":"m 347 319 l 46 910 l 193 910 l 318 653 q 367 548 343 600 q 417 442 390 496 l 422 442 q 474 548 449 496 q 524 653 499 600 l 644 910 l 788 910 l 486 319 l 486 0 l 347 0 l 347 319 m 417 986 q 353 1010 379 986 q 328 1071 328 1033 q 353 1130 328 1107 q 417 1153 379 1153 q 480 1130 454 1153 q 506 1071 506 1107 q 480 1010 506 1033 q 417 986 454 986 z "},"Ỵ":{"ha":833,"x_min":46,"x_max":788,"o":"m 347 319 l 46 910 l 193 910 l 318 653 q 367 548 343 600 q 417 442 390 496 l 422 442 q 474 548 449 496 q 524 653 499 600 l 644 910 l 788 910 l 486 319 l 486 0 l 347 0 l 347 319 m 417 -324 q 343 -297 372 -324 q 314 -226 314 -271 q 343 -155 314 -182 q 417 -128 372 -128 q 490 -155 461 -128 q 519 -226 519 -182 q 490 -297 519 -271 q 417 -324 461 -324 z "},"Ỷ":{"ha":833,"x_min":46,"x_max":788,"o":"m 347 319 l 46 910 l 193 910 l 318 653 q 367 548 343 600 q 417 442 390 496 l 422 442 q 474 548 449 496 q 524 653 499 600 l 644 910 l 788 910 l 486 319 l 486 0 l 347 0 l 347 319 m 361 1028 q 415 1048 393 1035 q 436 1085 436 1061 q 322 1140 436 1135 l 336 1217 q 539 1100 539 1210 q 526 1045 539 1068 q 490 1006 513 1022 q 438 981 467 990 q 375 967 408 971 l 361 1028 z "},"Ỹ":{"ha":833,"x_min":46,"x_max":788,"o":"m 347 319 l 46 910 l 193 910 l 318 653 q 367 548 343 600 q 417 442 390 496 l 422 442 q 474 548 449 496 q 524 653 499 600 l 644 910 l 788 910 l 486 319 l 486 0 l 347 0 l 347 319 m 501 985 q 451 996 474 985 q 410 1019 429 1007 q 372 1043 390 1032 q 336 1054 354 1054 q 281 985 293 1054 l 207 985 q 247 1101 214 1057 q 332 1144 281 1144 q 382 1133 360 1144 q 424 1110 404 1122 q 461 1086 443 1097 q 497 1075 479 1075 q 553 1144 540 1075 l 626 1144 q 586 1028 619 1072 q 501 985 553 985 z "},"Ź":{"ha":833,"x_min":88,"x_max":751,"o":"m 88 83 l 575 794 l 131 794 l 131 911 l 744 911 l 744 826 l 257 117 l 751 117 l 751 0 l 88 0 l 88 83 m 471 979 l 358 979 l 478 1138 l 631 1138 l 471 979 z "},"Ž":{"ha":833,"x_min":88,"x_max":751,"o":"m 88 83 l 575 794 l 131 794 l 131 911 l 744 911 l 744 826 l 257 117 l 751 117 l 751 0 l 88 0 l 88 83 m 638 1138 l 504 979 l 371 979 l 238 1138 l 347 1138 l 435 1046 l 440 1046 l 528 1138 l 638 1138 z "},"Ż":{"ha":833,"x_min":88,"x_max":751,"o":"m 88 83 l 575 794 l 131 794 l 131 911 l 744 911 l 744 826 l 257 117 l 751 117 l 751 0 l 88 0 l 88 83 m 438 986 q 374 1010 400 986 q 349 1071 349 1033 q 374 1130 349 1107 q 438 1153 400 1153 q 501 1130 475 1153 q 526 1071 526 1107 q 501 1010 526 1033 q 438 986 475 986 z "},"Ẓ":{"ha":833,"x_min":88,"x_max":751,"o":"m 88 83 l 575 794 l 131 794 l 131 911 l 744 911 l 744 826 l 257 117 l 751 117 l 751 0 l 88 0 l 88 83 m 432 -324 q 358 -297 388 -324 q 329 -226 329 -271 q 358 -155 329 -182 q 432 -128 388 -128 q 506 -155 476 -128 q 535 -226 535 -182 q 506 -297 535 -271 q 432 -324 476 -324 z "},"Ð":{"ha":833,"x_min":17,"x_max":774,"o":"m 119 439 l 17 439 l 17 506 l 119 513 l 119 910 l 349 910 q 663 796 551 910 q 774 458 774 682 q 664 118 774 236 q 356 0 554 0 l 119 0 l 119 439 m 339 113 q 556 200 482 113 q 631 458 631 288 q 556 713 631 629 q 339 797 482 797 l 258 797 l 258 513 l 444 513 l 444 439 l 258 439 l 258 113 l 339 113 z "},"Þ":{"ha":833,"x_min":131,"x_max":764,"o":"m 131 910 l 269 910 l 269 761 l 424 761 q 561 747 499 761 q 669 701 624 733 q 739 615 714 668 q 764 486 764 563 q 738 358 764 413 q 667 269 713 304 q 560 216 622 233 q 424 199 497 199 l 269 199 l 269 0 l 131 0 l 131 910 m 410 310 q 574 352 521 310 q 626 486 626 394 q 572 613 626 578 q 410 649 518 649 l 269 649 l 269 310 l 410 310 z "},"Ə":{"ha":833,"x_min":85,"x_max":768,"o":"m 226 386 q 287 176 235 250 q 422 101 339 101 q 560 177 506 101 q 628 388 615 253 l 226 386 m 179 825 q 284 898 224 869 q 428 926 344 926 q 569 894 506 926 q 676 802 632 863 q 744 654 721 742 q 768 457 768 567 q 743 260 768 347 q 672 110 718 172 q 563 16 626 49 q 422 -17 499 -17 q 283 17 344 -17 q 176 110 221 50 q 108 257 132 171 q 85 450 85 343 q 85 471 85 461 q 88 490 86 481 l 631 490 q 570 725 624 642 q 414 808 517 808 q 317 786 360 808 q 242 729 275 764 l 179 825 z "},"à":{"ha":833,"x_min":106,"x_max":722,"o":"m 106 179 q 133 279 106 236 q 217 353 160 322 q 366 403 275 383 q 585 432 457 422 q 544 539 582 494 q 415 583 506 583 q 294 560 353 583 q 185 507 235 536 l 133 600 q 196 634 161 617 q 270 665 231 651 q 352 688 310 679 q 439 696 394 696 q 651 619 581 696 q 722 408 722 543 l 722 0 l 610 0 l 599 88 l 594 88 q 473 15 540 46 q 335 -17 406 -17 q 244 -3 286 -17 q 171 37 201 11 q 123 99 140 63 q 106 179 106 135 m 239 189 q 278 115 239 138 q 374 93 318 93 q 480 117 428 93 q 585 183 532 140 l 585 344 q 418 323 485 336 q 312 290 351 310 q 256 244 272 269 q 239 189 239 219 m 258 1008 l 404 1008 l 529 796 l 426 796 l 258 1008 z "},"á":{"ha":833,"x_min":106,"x_max":722,"o":"m 106 179 q 133 279 106 236 q 217 353 160 322 q 366 403 275 383 q 585 432 457 422 q 544 539 582 494 q 415 583 506 583 q 294 560 353 583 q 185 507 235 536 l 133 600 q 196 634 161 617 q 270 665 231 651 q 352 688 310 679 q 439 696 394 696 q 651 619 581 696 q 722 408 722 543 l 722 0 l 610 0 l 599 88 l 594 88 q 473 15 540 46 q 335 -17 406 -17 q 244 -3 286 -17 q 171 37 201 11 q 123 99 140 63 q 106 179 106 135 m 239 189 q 278 115 239 138 q 374 93 318 93 q 480 117 428 93 q 585 183 532 140 l 585 344 q 418 323 485 336 q 312 290 351 310 q 256 244 272 269 q 239 189 239 219 m 440 796 l 338 796 l 463 1008 l 608 1008 l 440 796 z "},"â":{"ha":833,"x_min":106,"x_max":722,"o":"m 106 179 q 133 279 106 236 q 217 353 160 322 q 366 403 275 383 q 585 432 457 422 q 544 539 582 494 q 415 583 506 583 q 294 560 353 583 q 185 507 235 536 l 133 600 q 196 634 161 617 q 270 665 231 651 q 352 688 310 679 q 439 696 394 696 q 651 619 581 696 q 722 408 722 543 l 722 0 l 610 0 l 599 88 l 594 88 q 473 15 540 46 q 335 -17 406 -17 q 244 -3 286 -17 q 171 37 201 11 q 123 99 140 63 q 106 179 106 135 m 239 189 q 278 115 239 138 q 374 93 318 93 q 480 117 428 93 q 585 183 532 140 l 585 344 q 418 323 485 336 q 312 290 351 310 q 256 244 272 269 q 239 189 239 219 m 375 1008 l 492 1008 l 628 796 l 524 796 l 436 932 l 431 932 l 343 796 l 239 796 l 375 1008 z "},"ã":{"ha":833,"x_min":106,"x_max":722,"o":"m 106 179 q 133 279 106 236 q 217 353 160 322 q 366 403 275 383 q 585 432 457 422 q 544 539 582 494 q 415 583 506 583 q 294 560 353 583 q 185 507 235 536 l 133 600 q 196 634 161 617 q 270 665 231 651 q 352 688 310 679 q 439 696 394 696 q 651 619 581 696 q 722 408 722 543 l 722 0 l 610 0 l 599 88 l 594 88 q 473 15 540 46 q 335 -17 406 -17 q 244 -3 286 -17 q 171 37 201 11 q 123 99 140 63 q 106 179 106 135 m 239 189 q 278 115 239 138 q 374 93 318 93 q 480 117 428 93 q 585 183 532 140 l 585 344 q 418 323 485 336 q 312 290 351 310 q 256 244 272 269 q 239 189 239 219 m 226 803 q 267 922 235 878 q 358 967 300 967 q 404 955 383 967 q 442 929 425 943 q 476 903 460 915 q 508 892 492 892 q 565 967 551 892 l 640 967 q 599 847 632 892 q 508 803 567 803 q 463 815 483 803 q 424 840 442 826 q 391 866 407 854 q 358 878 375 878 q 322 860 335 878 q 301 803 308 843 l 226 803 l 226 803 z "},"ä":{"ha":833,"x_min":106,"x_max":722,"o":"m 106 179 q 133 279 106 236 q 217 353 160 322 q 366 403 275 383 q 585 432 457 422 q 544 539 582 494 q 415 583 506 583 q 294 560 353 583 q 185 507 235 536 l 133 600 q 196 634 161 617 q 270 665 231 651 q 352 688 310 679 q 439 696 394 696 q 651 619 581 696 q 722 408 722 543 l 722 0 l 610 0 l 599 88 l 594 88 q 473 15 540 46 q 335 -17 406 -17 q 244 -3 286 -17 q 171 37 201 11 q 123 99 140 63 q 106 179 106 135 m 239 189 q 278 115 239 138 q 374 93 318 93 q 480 117 428 93 q 585 183 532 140 l 585 344 q 418 323 485 336 q 312 290 351 310 q 256 244 272 269 q 239 189 239 219 m 294 811 q 235 835 258 811 q 211 896 211 860 q 235 956 211 932 q 294 981 258 981 q 356 956 332 981 q 379 896 379 932 q 356 835 379 860 q 294 811 332 811 m 572 811 q 511 835 535 811 q 488 896 488 860 q 511 956 488 932 q 572 981 535 981 q 632 956 608 981 q 656 896 656 932 q 632 835 656 860 q 572 811 608 811 z "},"ā":{"ha":833,"x_min":106,"x_max":722,"o":"m 106 179 q 133 279 106 236 q 217 353 160 322 q 366 403 275 383 q 585 432 457 422 q 544 539 582 494 q 415 583 506 583 q 294 560 353 583 q 185 507 235 536 l 133 600 q 196 634 161 617 q 270 665 231 651 q 352 688 310 679 q 439 696 394 696 q 651 619 581 696 q 722 408 722 543 l 722 0 l 610 0 l 599 88 l 594 88 q 473 15 540 46 q 335 -17 406 -17 q 244 -3 286 -17 q 171 37 201 11 q 123 99 140 63 q 106 179 106 135 m 239 189 q 278 115 239 138 q 374 93 318 93 q 480 117 428 93 q 585 183 532 140 l 585 344 q 418 323 485 336 q 312 290 351 310 q 256 244 272 269 q 239 189 239 219 m 257 924 l 610 924 l 610 831 l 257 831 l 257 924 z "},"ă":{"ha":833,"x_min":106,"x_max":722,"o":"m 106 179 q 133 279 106 236 q 217 353 160 322 q 366 403 275 383 q 585 432 457 422 q 544 539 582 494 q 415 583 506 583 q 294 560 353 583 q 185 507 235 536 l 133 600 q 196 634 161 617 q 270 665 231 651 q 352 688 310 679 q 439 696 394 696 q 651 619 581 696 q 722 408 722 543 l 722 0 l 610 0 l 599 88 l 594 88 q 473 15 540 46 q 335 -17 406 -17 q 244 -3 286 -17 q 171 37 201 11 q 123 99 140 63 q 106 179 106 135 m 239 189 q 278 115 239 138 q 374 93 318 93 q 480 117 428 93 q 585 183 532 140 l 585 344 q 418 323 485 336 q 312 290 351 310 q 256 244 272 269 q 239 189 239 219 m 433 799 q 352 816 386 799 q 295 860 318 833 q 260 922 272 888 q 247 992 249 957 l 329 992 q 360 913 335 947 q 433 879 385 879 q 507 913 482 879 q 538 992 532 947 l 619 992 q 606 922 617 957 q 572 860 594 888 q 515 816 549 833 q 433 799 481 799 z "},"å":{"ha":833,"x_min":106,"x_max":722,"o":"m 106 179 q 133 279 106 236 q 217 353 160 322 q 366 403 275 383 q 585 432 457 422 q 544 539 582 494 q 415 583 506 583 q 294 560 353 583 q 185 507 235 536 l 133 600 q 196 634 161 617 q 270 665 231 651 q 352 688 310 679 q 439 696 394 696 q 651 619 581 696 q 722 408 722 543 l 722 0 l 610 0 l 599 88 l 594 88 q 473 15 540 46 q 335 -17 406 -17 q 244 -3 286 -17 q 171 37 201 11 q 123 99 140 63 q 106 179 106 135 m 239 189 q 278 115 239 138 q 374 93 318 93 q 480 117 428 93 q 585 183 532 140 l 585 344 q 418 323 485 336 q 312 290 351 310 q 256 244 272 269 q 239 189 239 219 m 433 756 q 335 792 372 756 q 297 888 297 828 q 335 982 297 946 q 433 1018 372 1018 q 532 982 494 1018 q 569 888 569 946 q 532 792 569 828 q 433 756 494 756 m 433 813 q 479 833 461 813 q 497 888 497 853 q 479 941 497 921 q 433 961 461 961 q 388 941 406 961 q 369 888 369 921 q 388 833 369 853 q 433 813 406 813 z "},"ǎ":{"ha":833,"x_min":106,"x_max":722,"o":"m 106 179 q 133 279 106 236 q 217 353 160 322 q 366 403 275 383 q 585 432 457 422 q 544 539 582 494 q 415 583 506 583 q 294 560 353 583 q 185 507 235 536 l 133 600 q 196 634 161 617 q 270 665 231 651 q 352 688 310 679 q 439 696 394 696 q 651 619 581 696 q 722 408 722 543 l 722 0 l 610 0 l 599 88 l 594 88 q 473 15 540 46 q 335 -17 406 -17 q 244 -3 286 -17 q 171 37 201 11 q 123 99 140 63 q 106 179 106 135 m 239 189 q 278 115 239 138 q 374 93 318 93 q 480 117 428 93 q 585 183 532 140 l 585 344 q 418 323 485 336 q 312 290 351 310 q 256 244 272 269 q 239 189 239 219 m 239 1008 l 343 1008 l 431 872 l 436 872 l 524 1008 l 628 1008 l 492 796 l 375 796 l 239 1008 z "},"ạ":{"ha":833,"x_min":106,"x_max":722,"o":"m 106 179 q 133 279 106 236 q 217 353 160 322 q 366 403 275 383 q 585 432 457 422 q 544 539 582 494 q 415 583 506 583 q 294 560 353 583 q 185 507 235 536 l 133 600 q 196 634 161 617 q 270 665 231 651 q 352 688 310 679 q 439 696 394 696 q 651 619 581 696 q 722 408 722 543 l 722 0 l 610 0 l 599 88 l 594 88 q 473 15 540 46 q 335 -17 406 -17 q 244 -3 286 -17 q 171 37 201 11 q 123 99 140 63 q 106 179 106 135 m 239 189 q 278 115 239 138 q 374 93 318 93 q 480 117 428 93 q 585 183 532 140 l 585 344 q 418 323 485 336 q 312 290 351 310 q 256 244 272 269 q 239 189 239 219 m 424 -324 q 350 -297 379 -324 q 321 -226 321 -271 q 350 -155 321 -182 q 424 -128 379 -128 q 497 -155 468 -128 q 526 -226 526 -182 q 497 -297 526 -271 q 424 -324 468 -324 z "},"ả":{"ha":833,"x_min":106,"x_max":722,"o":"m 106 179 q 133 279 106 236 q 217 353 160 322 q 366 403 275 383 q 585 432 457 422 q 544 539 582 494 q 415 583 506 583 q 294 560 353 583 q 185 507 235 536 l 133 600 q 196 634 161 617 q 270 665 231 651 q 352 688 310 679 q 439 696 394 696 q 651 619 581 696 q 722 408 722 543 l 722 0 l 610 0 l 599 88 l 594 88 q 473 15 540 46 q 335 -17 406 -17 q 244 -3 286 -17 q 171 37 201 11 q 123 99 140 63 q 106 179 106 135 m 239 189 q 278 115 239 138 q 374 93 318 93 q 480 117 428 93 q 585 183 532 140 l 585 344 q 418 323 485 336 q 312 290 351 310 q 256 244 272 269 q 239 189 239 219 m 378 829 q 431 851 410 838 q 453 888 453 864 q 339 943 453 938 l 353 1018 q 556 903 556 1011 q 542 848 556 871 q 506 809 529 825 q 454 783 483 793 q 392 769 425 774 l 378 829 z "},"ấ":{"ha":833,"x_min":106,"x_max":774,"o":"m 106 179 q 133 279 106 236 q 217 353 160 322 q 366 403 275 383 q 585 432 457 422 q 544 539 582 494 q 415 583 506 583 q 294 560 353 583 q 185 507 235 536 l 133 600 q 196 634 161 617 q 270 665 231 651 q 352 688 310 679 q 439 696 394 696 q 651 619 581 696 q 722 408 722 543 l 722 0 l 610 0 l 599 88 l 594 88 q 473 15 540 46 q 335 -17 406 -17 q 244 -3 286 -17 q 171 37 201 11 q 123 99 140 63 q 106 179 106 135 m 239 189 q 278 115 239 138 q 374 93 318 93 q 480 117 428 93 q 585 183 532 140 l 585 344 q 418 323 485 336 q 312 290 351 310 q 256 244 272 269 q 239 189 239 219 m 378 965 l 489 965 l 603 796 l 513 796 l 436 894 l 431 894 l 354 796 l 264 796 l 378 965 m 664 1051 l 774 1051 l 644 892 l 563 892 l 664 1051 z "},"ầ":{"ha":833,"x_min":106,"x_max":731,"o":"m 106 179 q 133 279 106 236 q 217 353 160 322 q 366 403 275 383 q 585 432 457 422 q 544 539 582 494 q 415 583 506 583 q 294 560 353 583 q 185 507 235 536 l 133 600 q 196 634 161 617 q 270 665 231 651 q 352 688 310 679 q 439 696 394 696 q 651 619 581 696 q 722 408 722 543 l 722 0 l 610 0 l 599 88 l 594 88 q 473 15 540 46 q 335 -17 406 -17 q 244 -3 286 -17 q 171 37 201 11 q 123 99 140 63 q 106 179 106 135 m 239 189 q 278 115 239 138 q 374 93 318 93 q 480 117 428 93 q 585 183 532 140 l 585 344 q 418 323 485 336 q 312 290 351 310 q 256 244 272 269 q 239 189 239 219 m 378 965 l 489 965 l 603 796 l 513 796 l 436 894 l 431 894 l 354 796 l 264 796 l 378 965 m 731 892 l 647 892 l 519 1051 l 629 1051 l 731 892 z "},"ẩ":{"ha":833,"x_min":106,"x_max":740,"o":"m 106 179 q 133 279 106 236 q 217 353 160 322 q 366 403 275 383 q 585 432 457 422 q 544 539 582 494 q 415 583 506 583 q 294 560 353 583 q 185 507 235 536 l 133 600 q 196 634 161 617 q 270 665 231 651 q 352 688 310 679 q 439 696 394 696 q 651 619 581 696 q 722 408 722 543 l 722 0 l 610 0 l 599 88 l 594 88 q 473 15 540 46 q 335 -17 406 -17 q 244 -3 286 -17 q 171 37 201 11 q 123 99 140 63 q 106 179 106 135 m 239 189 q 278 115 239 138 q 374 93 318 93 q 480 117 428 93 q 585 183 532 140 l 585 344 q 418 323 485 336 q 312 290 351 310 q 256 244 272 269 q 239 189 239 219 m 378 965 l 489 965 l 603 796 l 513 796 l 436 894 l 431 894 l 354 796 l 264 796 l 378 965 m 589 926 q 629 944 614 933 q 644 976 644 956 q 623 1015 644 1001 q 550 1031 601 1028 l 561 1094 q 740 992 740 1088 q 728 942 740 963 q 698 908 717 921 q 653 886 679 894 q 601 872 628 878 l 589 926 z "},"ẫ":{"ha":833,"x_min":106,"x_max":722,"o":"m 106 179 q 133 279 106 236 q 217 353 160 322 q 366 403 275 383 q 585 432 457 422 q 544 539 582 494 q 415 583 506 583 q 294 560 353 583 q 185 507 235 536 l 133 600 q 196 634 161 617 q 270 665 231 651 q 352 688 310 679 q 439 696 394 696 q 651 619 581 696 q 722 408 722 543 l 722 0 l 610 0 l 599 88 l 594 88 q 473 15 540 46 q 335 -17 406 -17 q 244 -3 286 -17 q 171 37 201 11 q 123 99 140 63 q 106 179 106 135 m 239 189 q 278 115 239 138 q 374 93 318 93 q 480 117 428 93 q 585 183 532 140 l 585 344 q 418 323 485 336 q 312 290 351 310 q 256 244 272 269 q 239 189 239 219 m 371 942 l 496 942 l 614 794 l 519 794 l 436 882 l 431 882 l 347 794 l 253 794 l 371 942 m 246 992 q 283 1090 253 1054 q 360 1125 313 1125 q 406 1116 386 1125 q 441 1097 425 1107 q 471 1077 457 1086 q 501 1068 485 1068 q 554 1125 544 1068 l 621 1125 q 584 1027 614 1063 q 507 992 554 992 q 461 1001 481 992 q 426 1020 442 1010 q 396 1040 410 1031 q 365 1049 382 1049 q 313 992 322 1049 l 246 992 z "},"ậ":{"ha":833,"x_min":106,"x_max":722,"o":"m 106 179 q 133 279 106 236 q 217 353 160 322 q 366 403 275 383 q 585 432 457 422 q 544 539 582 494 q 415 583 506 583 q 294 560 353 583 q 185 507 235 536 l 133 600 q 196 634 161 617 q 270 665 231 651 q 352 688 310 679 q 439 696 394 696 q 651 619 581 696 q 722 408 722 543 l 722 0 l 610 0 l 599 88 l 594 88 q 473 15 540 46 q 335 -17 406 -17 q 244 -3 286 -17 q 171 37 201 11 q 123 99 140 63 q 106 179 106 135 m 239 189 q 278 115 239 138 q 374 93 318 93 q 480 117 428 93 q 585 183 532 140 l 585 344 q 418 323 485 336 q 312 290 351 310 q 256 244 272 269 q 239 189 239 219 m 375 1008 l 492 1008 l 628 796 l 524 796 l 436 932 l 431 932 l 343 796 l 239 796 l 375 1008 m 424 -324 q 350 -297 379 -324 q 321 -226 321 -271 q 350 -155 321 -182 q 424 -128 379 -128 q 497 -155 468 -128 q 526 -226 526 -182 q 497 -297 526 -271 q 424 -324 468 -324 z "},"ắ":{"ha":833,"x_min":106,"x_max":722,"o":"m 106 179 q 133 279 106 236 q 217 353 160 322 q 366 403 275 383 q 585 432 457 422 q 544 539 582 494 q 415 583 506 583 q 294 560 353 583 q 185 507 235 536 l 133 600 q 196 634 161 617 q 270 665 231 651 q 352 688 310 679 q 439 696 394 696 q 651 619 581 696 q 722 408 722 543 l 722 0 l 610 0 l 599 88 l 594 88 q 473 15 540 46 q 335 -17 406 -17 q 244 -3 286 -17 q 171 37 201 11 q 123 99 140 63 q 106 179 106 135 m 239 189 q 278 115 239 138 q 374 93 318 93 q 480 117 428 93 q 585 183 532 140 l 585 344 q 418 323 485 336 q 312 290 351 310 q 256 244 272 269 q 239 189 239 219 m 469 1103 l 576 1103 l 454 946 l 378 946 l 469 1103 m 433 799 q 354 815 388 799 q 299 856 321 831 q 266 914 278 882 q 253 979 254 946 l 322 979 q 355 905 329 938 q 433 872 381 872 q 512 905 486 872 q 544 979 538 938 l 614 979 q 600 914 611 946 q 567 856 589 882 q 513 815 546 831 q 433 799 479 799 z "},"ằ":{"ha":833,"x_min":106,"x_max":722,"o":"m 106 179 q 133 279 106 236 q 217 353 160 322 q 366 403 275 383 q 585 432 457 422 q 544 539 582 494 q 415 583 506 583 q 294 560 353 583 q 185 507 235 536 l 133 600 q 196 634 161 617 q 270 665 231 651 q 352 688 310 679 q 439 696 394 696 q 651 619 581 696 q 722 408 722 543 l 722 0 l 610 0 l 599 88 l 594 88 q 473 15 540 46 q 335 -17 406 -17 q 244 -3 286 -17 q 171 37 201 11 q 123 99 140 63 q 106 179 106 135 m 239 189 q 278 115 239 138 q 374 93 318 93 q 480 117 428 93 q 585 183 532 140 l 585 344 q 418 323 485 336 q 312 290 351 310 q 256 244 272 269 q 239 189 239 219 m 489 946 l 413 946 l 290 1103 l 397 1103 l 489 946 m 433 799 q 354 815 388 799 q 299 856 321 831 q 266 914 278 882 q 253 979 254 946 l 322 979 q 355 905 329 938 q 433 872 381 872 q 512 905 486 872 q 544 979 538 938 l 614 979 q 600 914 611 946 q 567 856 589 882 q 513 815 546 831 q 433 799 479 799 z "},"ẳ":{"ha":833,"x_min":106,"x_max":722,"o":"m 106 179 q 133 279 106 236 q 217 353 160 322 q 366 403 275 383 q 585 432 457 422 q 544 539 582 494 q 415 583 506 583 q 294 560 353 583 q 185 507 235 536 l 133 600 q 196 634 161 617 q 270 665 231 651 q 352 688 310 679 q 439 696 394 696 q 651 619 581 696 q 722 408 722 543 l 722 0 l 610 0 l 599 88 l 594 88 q 473 15 540 46 q 335 -17 406 -17 q 244 -3 286 -17 q 171 37 201 11 q 123 99 140 63 q 106 179 106 135 m 239 189 q 278 115 239 138 q 374 93 318 93 q 480 117 428 93 q 585 183 532 140 l 585 344 q 418 323 485 336 q 312 290 351 310 q 256 244 272 269 q 239 189 239 219 m 433 799 q 354 815 388 799 q 299 856 321 831 q 266 914 278 882 q 253 979 254 946 l 322 979 q 355 905 329 938 q 433 872 381 872 q 512 905 486 872 q 544 979 538 938 l 614 979 q 600 914 611 946 q 567 856 589 882 q 513 815 546 831 q 433 799 479 799 m 381 1008 q 420 1026 404 1015 q 436 1058 436 1038 q 415 1097 436 1083 q 342 1113 393 1110 l 353 1178 q 532 1074 532 1171 q 520 1024 532 1044 q 490 990 508 1003 q 445 968 471 976 q 393 954 419 960 l 381 1008 z "},"ẵ":{"ha":833,"x_min":106,"x_max":722,"o":"m 106 179 q 133 279 106 236 q 217 353 160 322 q 366 403 275 383 q 585 432 457 422 q 544 539 582 494 q 415 583 506 583 q 294 560 353 583 q 185 507 235 536 l 133 600 q 196 634 161 617 q 270 665 231 651 q 352 688 310 679 q 439 696 394 696 q 651 619 581 696 q 722 408 722 543 l 722 0 l 610 0 l 599 88 l 594 88 q 473 15 540 46 q 335 -17 406 -17 q 244 -3 286 -17 q 171 37 201 11 q 123 99 140 63 q 106 179 106 135 m 239 189 q 278 115 239 138 q 374 93 318 93 q 480 117 428 93 q 585 183 532 140 l 585 344 q 418 323 485 336 q 312 290 351 310 q 256 244 272 269 q 239 189 239 219 m 433 799 q 355 812 388 799 q 300 846 322 825 q 267 894 278 867 q 254 951 256 922 l 326 951 q 358 894 333 919 q 433 869 382 869 q 509 894 485 869 q 540 951 533 919 l 613 951 q 599 894 610 922 q 567 846 589 867 q 512 812 544 825 q 433 799 479 799 m 246 992 q 283 1090 253 1054 q 360 1125 313 1125 q 406 1116 386 1125 q 441 1097 425 1107 q 471 1077 457 1086 q 501 1068 485 1068 q 554 1125 544 1068 l 621 1125 q 584 1027 614 1063 q 507 992 554 992 q 461 1001 481 992 q 426 1020 442 1010 q 396 1040 410 1031 q 365 1049 382 1049 q 313 992 322 1049 l 246 992 z "},"ặ":{"ha":833,"x_min":106,"x_max":722,"o":"m 106 179 q 133 279 106 236 q 217 353 160 322 q 366 403 275 383 q 585 432 457 422 q 544 539 582 494 q 415 583 506 583 q 294 560 353 583 q 185 507 235 536 l 133 600 q 196 634 161 617 q 270 665 231 651 q 352 688 310 679 q 439 696 394 696 q 651 619 581 696 q 722 408 722 543 l 722 0 l 610 0 l 599 88 l 594 88 q 473 15 540 46 q 335 -17 406 -17 q 244 -3 286 -17 q 171 37 201 11 q 123 99 140 63 q 106 179 106 135 m 239 189 q 278 115 239 138 q 374 93 318 93 q 480 117 428 93 q 585 183 532 140 l 585 344 q 418 323 485 336 q 312 290 351 310 q 256 244 272 269 q 239 189 239 219 m 433 799 q 352 816 386 799 q 295 860 318 833 q 260 922 272 888 q 247 992 249 957 l 329 992 q 360 913 335 947 q 433 879 385 879 q 507 913 482 879 q 538 992 532 947 l 619 992 q 606 922 617 957 q 572 860 594 888 q 515 816 549 833 q 433 799 481 799 m 424 -324 q 350 -297 379 -324 q 321 -226 321 -271 q 350 -155 321 -182 q 424 -128 379 -128 q 497 -155 468 -128 q 526 -226 526 -182 q 497 -297 526 -271 q 424 -324 468 -324 z "},"ą":{"ha":833,"x_min":106,"x_max":751,"o":"m 106 179 q 133 279 106 236 q 217 353 160 322 q 366 403 275 383 q 585 432 457 422 q 544 539 582 494 q 415 583 506 583 q 294 560 353 583 q 185 507 235 536 l 133 600 q 196 634 161 617 q 270 665 231 651 q 352 688 310 679 q 439 696 394 696 q 651 619 581 696 q 722 408 722 543 l 722 0 q 632 -61 663 -22 q 601 -139 601 -100 q 621 -185 601 -171 q 665 -200 640 -200 q 719 -182 694 -200 l 751 -247 q 697 -276 731 -265 q 635 -287 663 -287 q 542 -258 579 -287 q 504 -167 504 -228 q 514 -112 504 -137 q 540 -65 524 -86 q 574 -26 556 -43 q 611 3 593 -8 l 599 88 l 594 88 q 473 15 540 46 q 335 -17 406 -17 q 244 -3 286 -17 q 171 37 201 11 q 123 99 140 63 q 106 179 106 135 m 239 189 q 278 115 239 138 q 374 93 318 93 q 480 117 428 93 q 585 183 532 140 l 585 344 q 418 323 485 336 q 312 290 351 310 q 256 244 272 269 q 239 189 239 219 z "},"æ":{"ha":833,"x_min":24,"x_max":828,"o":"m 24 183 q 108 345 24 286 q 360 432 192 404 q 333 542 357 500 q 250 585 308 585 q 172 569 215 585 q 94 531 128 553 l 44 622 q 145 674 90 651 q 263 696 200 696 q 369 660 328 696 q 429 568 410 624 q 509 663 463 629 q 621 696 556 696 q 711 670 672 696 q 776 601 750 644 q 815 501 801 558 q 828 381 828 444 q 826 340 828 358 q 821 304 824 321 l 474 304 q 519 150 481 207 q 632 93 558 93 q 699 104 668 93 q 758 135 731 115 l 807 44 q 724 1 771 18 q 628 -17 678 -17 q 503 15 553 -17 q 419 104 453 47 q 207 -17 306 -17 q 72 38 121 -17 q 24 183 24 92 m 715 392 q 710 467 715 431 q 693 529 706 503 q 660 572 681 556 q 608 588 639 588 q 515 537 551 588 q 472 392 479 486 l 715 392 m 149 190 q 174 117 149 142 q 242 92 199 92 q 311 114 274 92 q 381 178 349 136 q 366 240 371 206 q 360 311 361 275 l 358 344 q 197 287 246 325 q 149 190 149 249 z "},"ƀ":{"ha":833,"x_min":22,"x_max":756,"o":"m 260 168 q 347 113 303 129 q 425 97 392 97 q 560 159 506 97 q 614 335 614 221 q 572 494 614 435 q 439 553 531 553 q 351 531 397 553 q 260 461 306 510 l 260 168 m 256 571 q 359 642 301 615 q 475 668 417 668 q 594 644 542 668 q 683 578 647 621 q 737 473 718 535 q 756 336 756 411 q 731 187 756 253 q 663 76 706 121 q 566 7 621 31 q 451 -17 511 -17 q 348 7 403 -17 q 247 75 293 31 l 243 75 l 231 0 l 122 0 l 122 788 l 22 788 l 22 856 l 122 863 l 122 985 l 260 985 l 260 863 l 543 863 l 543 788 l 260 788 l 260 696 l 256 571 z "},"ç":{"ha":833,"x_min":106,"x_max":751,"o":"m 106 339 q 136 490 106 424 q 219 603 167 557 q 341 672 272 649 q 488 696 410 696 q 633 667 571 696 q 738 599 696 639 l 671 511 q 588 563 631 544 q 494 582 544 582 q 394 565 440 582 q 316 515 349 547 q 265 438 283 483 q 247 339 247 393 q 265 240 247 285 q 315 163 282 194 q 392 113 347 131 q 490 96 436 96 q 603 119 553 96 q 693 176 653 143 l 751 88 q 624 10 693 38 q 479 -17 554 -17 q 331 7 400 -17 q 213 76 263 31 q 134 188 163 122 q 106 339 106 254 m 442 4 l 528 4 l 493 -67 q 551 -101 528 -78 q 575 -167 575 -124 q 558 -222 575 -199 q 511 -262 540 -246 q 443 -287 482 -278 q 363 -299 404 -296 l 351 -235 q 438 -212 404 -228 q 472 -169 472 -197 q 451 -131 472 -146 q 386 -104 429 -115 l 442 4 z "},"ć":{"ha":833,"x_min":106,"x_max":751,"o":"m 106 339 q 136 490 106 424 q 219 603 167 557 q 341 672 272 649 q 488 696 410 696 q 633 667 571 696 q 738 599 696 639 l 671 511 q 588 563 631 544 q 494 582 544 582 q 394 565 440 582 q 316 515 349 547 q 265 438 283 483 q 247 339 247 393 q 265 240 247 285 q 315 163 282 194 q 392 113 347 131 q 490 96 436 96 q 603 119 553 96 q 693 176 653 143 l 751 88 q 624 10 693 38 q 479 -17 554 -17 q 331 7 400 -17 q 213 76 263 31 q 134 188 163 122 q 106 339 106 254 m 483 796 l 381 796 l 506 1008 l 651 1008 l 483 796 z "},"ĉ":{"ha":833,"x_min":106,"x_max":751,"o":"m 106 339 q 136 490 106 424 q 219 603 167 557 q 341 672 272 649 q 488 696 410 696 q 633 667 571 696 q 738 599 696 639 l 671 511 q 588 563 631 544 q 494 582 544 582 q 394 565 440 582 q 316 515 349 547 q 265 438 283 483 q 247 339 247 393 q 265 240 247 285 q 315 163 282 194 q 392 113 347 131 q 490 96 436 96 q 603 119 553 96 q 693 176 653 143 l 751 88 q 624 10 693 38 q 479 -17 554 -17 q 331 7 400 -17 q 213 76 263 31 q 134 188 163 122 q 106 339 106 254 m 418 1008 l 535 1008 l 671 796 l 567 796 l 479 932 l 474 932 l 386 796 l 282 796 l 418 1008 z "},"č":{"ha":833,"x_min":106,"x_max":751,"o":"m 106 339 q 136 490 106 424 q 219 603 167 557 q 341 672 272 649 q 488 696 410 696 q 633 667 571 696 q 738 599 696 639 l 671 511 q 588 563 631 544 q 494 582 544 582 q 394 565 440 582 q 316 515 349 547 q 265 438 283 483 q 247 339 247 393 q 265 240 247 285 q 315 163 282 194 q 392 113 347 131 q 490 96 436 96 q 603 119 553 96 q 693 176 653 143 l 751 88 q 624 10 693 38 q 479 -17 554 -17 q 331 7 400 -17 q 213 76 263 31 q 134 188 163 122 q 106 339 106 254 m 282 1008 l 386 1008 l 474 872 l 479 872 l 567 1008 l 671 1008 l 535 796 l 418 796 l 282 1008 z "},"ċ":{"ha":833,"x_min":106,"x_max":751,"o":"m 106 339 q 136 490 106 424 q 219 603 167 557 q 341 672 272 649 q 488 696 410 696 q 633 667 571 696 q 738 599 696 639 l 671 511 q 588 563 631 544 q 494 582 544 582 q 394 565 440 582 q 316 515 349 547 q 265 438 283 483 q 247 339 247 393 q 265 240 247 285 q 315 163 282 194 q 392 113 347 131 q 490 96 436 96 q 603 119 553 96 q 693 176 653 143 l 751 88 q 624 10 693 38 q 479 -17 554 -17 q 331 7 400 -17 q 213 76 263 31 q 134 188 163 122 q 106 339 106 254 m 476 808 q 403 835 432 808 q 374 906 374 861 q 403 977 374 950 q 476 1004 432 1004 q 550 977 521 1004 q 579 906 579 950 q 550 835 579 861 q 476 808 521 808 z "},"ď":{"ha":833,"x_min":61,"x_max":842,"o":"m 61 339 q 87 488 61 422 q 155 600 113 554 q 252 671 197 646 q 365 696 307 696 q 473 674 428 696 q 563 611 518 651 l 557 732 l 557 985 l 694 985 l 694 0 l 582 0 l 571 83 l 567 83 q 471 13 526 43 q 354 -17 415 -17 q 234 7 288 -17 q 142 76 181 31 q 82 188 103 122 q 61 339 61 254 m 203 340 q 251 160 203 222 q 386 97 299 97 q 557 189 478 97 l 557 511 q 476 565 517 550 q 396 581 436 581 q 321 564 356 581 q 260 516 286 547 q 218 440 233 485 q 203 340 203 396 m 753 761 l 747 1060 l 842 1060 l 840 975 l 817 761 l 753 761 z "},"ḍ":{"ha":833,"x_min":78,"x_max":711,"o":"m 78 339 q 103 488 78 422 q 172 600 129 554 q 269 671 214 646 q 382 696 324 696 q 490 674 444 696 q 579 611 535 651 l 574 732 l 574 985 l 711 985 l 711 0 l 599 0 l 588 83 l 583 83 q 488 13 543 43 q 371 -17 432 -17 q 251 7 304 -17 q 158 76 197 31 q 99 188 119 122 q 78 339 78 254 m 219 340 q 267 160 219 222 q 403 97 315 97 q 574 189 494 97 l 574 511 q 493 565 533 550 q 413 581 453 581 q 338 564 372 581 q 276 516 303 547 q 235 440 250 485 q 219 340 219 396 m 426 -324 q 353 -297 382 -324 q 324 -226 324 -271 q 353 -155 324 -182 q 426 -128 382 -128 q 500 -155 471 -128 q 529 -226 529 -182 q 500 -297 529 -271 q 426 -324 471 -324 z "},"ḏ":{"ha":833,"x_min":78,"x_max":711,"o":"m 78 339 q 103 488 78 422 q 172 600 129 554 q 269 671 214 646 q 382 696 324 696 q 490 674 444 696 q 579 611 535 651 l 574 732 l 574 985 l 711 985 l 711 0 l 599 0 l 588 83 l 583 83 q 488 13 543 43 q 371 -17 432 -17 q 251 7 304 -17 q 158 76 197 31 q 99 188 119 122 q 78 339 78 254 m 219 340 q 267 160 219 222 q 403 97 315 97 q 574 189 494 97 l 574 511 q 493 565 533 550 q 413 581 453 581 q 338 564 372 581 q 276 516 303 547 q 235 440 250 485 q 219 340 219 396 m 603 -243 l 249 -243 l 249 -151 l 603 -151 l 603 -243 z "},"đ":{"ha":833,"x_min":78,"x_max":810,"o":"m 574 483 q 494 537 533 521 q 414 553 454 553 q 338 537 374 553 q 276 491 303 521 q 235 419 250 461 q 219 326 219 378 q 267 157 219 217 q 403 97 315 97 q 574 189 494 97 l 574 483 m 810 794 l 711 788 l 711 0 l 599 0 l 588 83 l 583 83 q 488 13 543 43 q 371 -17 432 -17 q 251 6 304 -17 q 158 73 197 29 q 99 180 119 117 q 78 325 78 243 q 103 468 78 404 q 172 576 129 532 q 269 644 214 621 q 382 668 324 668 q 490 646 444 668 q 579 583 535 624 l 574 704 l 574 788 l 340 788 l 340 863 l 574 863 l 574 985 l 711 985 l 711 863 l 810 863 l 810 794 z "},"è":{"ha":833,"x_min":90,"x_max":750,"o":"m 90 339 q 119 488 90 422 q 197 601 149 554 q 308 672 246 647 q 438 696 371 696 q 570 672 513 696 q 668 606 628 649 q 729 505 708 564 q 750 375 750 446 q 748 335 750 354 q 743 304 746 317 l 232 304 q 306 148 239 204 q 476 92 374 92 q 580 107 532 92 q 674 150 628 122 l 722 63 q 603 6 669 29 q 458 -17 538 -17 q 315 8 382 -17 q 197 78 247 32 q 119 190 147 124 q 90 339 90 256 m 622 399 q 575 539 622 490 q 440 588 528 588 q 304 539 364 588 q 231 399 244 490 l 622 399 m 261 1008 l 407 1008 l 532 796 l 429 796 l 261 1008 z "},"é":{"ha":833,"x_min":90,"x_max":750,"o":"m 90 339 q 119 488 90 422 q 197 601 149 554 q 308 672 246 647 q 438 696 371 696 q 570 672 513 696 q 668 606 628 649 q 729 505 708 564 q 750 375 750 446 q 748 335 750 354 q 743 304 746 317 l 232 304 q 306 148 239 204 q 476 92 374 92 q 580 107 532 92 q 674 150 628 122 l 722 63 q 603 6 669 29 q 458 -17 538 -17 q 315 8 382 -17 q 197 78 247 32 q 119 190 147 124 q 90 339 90 256 m 622 399 q 575 539 622 490 q 440 588 528 588 q 304 539 364 588 q 231 399 244 490 l 622 399 m 443 796 l 340 796 l 465 1008 l 611 1008 l 443 796 z "},"ê":{"ha":833,"x_min":90,"x_max":750,"o":"m 90 339 q 119 488 90 422 q 197 601 149 554 q 308 672 246 647 q 438 696 371 696 q 570 672 513 696 q 668 606 628 649 q 729 505 708 564 q 750 375 750 446 q 748 335 750 354 q 743 304 746 317 l 232 304 q 306 148 239 204 q 476 92 374 92 q 580 107 532 92 q 674 150 628 122 l 722 63 q 603 6 669 29 q 458 -17 538 -17 q 315 8 382 -17 q 197 78 247 32 q 119 190 147 124 q 90 339 90 256 m 622 399 q 575 539 622 490 q 440 588 528 588 q 304 539 364 588 q 231 399 244 490 l 622 399 m 378 1008 l 494 1008 l 631 796 l 526 796 l 439 932 l 433 932 l 346 796 l 242 796 l 378 1008 z "},"ě":{"ha":833,"x_min":90,"x_max":750,"o":"m 90 339 q 119 488 90 422 q 197 601 149 554 q 308 672 246 647 q 438 696 371 696 q 570 672 513 696 q 668 606 628 649 q 729 505 708 564 q 750 375 750 446 q 748 335 750 354 q 743 304 746 317 l 232 304 q 306 148 239 204 q 476 92 374 92 q 580 107 532 92 q 674 150 628 122 l 722 63 q 603 6 669 29 q 458 -17 538 -17 q 315 8 382 -17 q 197 78 247 32 q 119 190 147 124 q 90 339 90 256 m 622 399 q 575 539 622 490 q 440 588 528 588 q 304 539 364 588 q 231 399 244 490 l 622 399 m 242 1008 l 346 1008 l 433 872 l 439 872 l 526 1008 l 631 1008 l 494 796 l 378 796 l 242 1008 z "},"ë":{"ha":833,"x_min":90,"x_max":750,"o":"m 90 339 q 119 488 90 422 q 197 601 149 554 q 308 672 246 647 q 438 696 371 696 q 570 672 513 696 q 668 606 628 649 q 729 505 708 564 q 750 375 750 446 q 748 335 750 354 q 743 304 746 317 l 232 304 q 306 148 239 204 q 476 92 374 92 q 580 107 532 92 q 674 150 628 122 l 722 63 q 603 6 669 29 q 458 -17 538 -17 q 315 8 382 -17 q 197 78 247 32 q 119 190 147 124 q 90 339 90 256 m 622 399 q 575 539 622 490 q 440 588 528 588 q 304 539 364 588 q 231 399 244 490 l 622 399 m 297 811 q 238 835 261 811 q 214 896 214 860 q 238 956 214 932 q 297 981 261 981 q 358 956 335 981 q 382 896 382 932 q 358 835 382 860 q 297 811 335 811 m 575 811 q 514 835 538 811 q 490 896 490 860 q 514 956 490 932 q 575 981 538 981 q 635 956 611 981 q 658 896 658 932 q 635 835 658 860 q 575 811 611 811 z "},"ē":{"ha":833,"x_min":90,"x_max":750,"o":"m 90 339 q 119 488 90 422 q 197 601 149 554 q 308 672 246 647 q 438 696 371 696 q 570 672 513 696 q 668 606 628 649 q 729 505 708 564 q 750 375 750 446 q 748 335 750 354 q 743 304 746 317 l 232 304 q 306 148 239 204 q 476 92 374 92 q 580 107 532 92 q 674 150 628 122 l 722 63 q 603 6 669 29 q 458 -17 538 -17 q 315 8 382 -17 q 197 78 247 32 q 119 190 147 124 q 90 339 90 256 m 622 399 q 575 539 622 490 q 440 588 528 588 q 304 539 364 588 q 231 399 244 490 l 622 399 m 260 924 l 613 924 l 613 831 l 260 831 l 260 924 z "},"ĕ":{"ha":833,"x_min":90,"x_max":750,"o":"m 90 339 q 119 488 90 422 q 197 601 149 554 q 308 672 246 647 q 438 696 371 696 q 570 672 513 696 q 668 606 628 649 q 729 505 708 564 q 750 375 750 446 q 748 335 750 354 q 743 304 746 317 l 232 304 q 306 148 239 204 q 476 92 374 92 q 580 107 532 92 q 674 150 628 122 l 722 63 q 603 6 669 29 q 458 -17 538 -17 q 315 8 382 -17 q 197 78 247 32 q 119 190 147 124 q 90 339 90 256 m 622 399 q 575 539 622 490 q 440 588 528 588 q 304 539 364 588 q 231 399 244 490 l 622 399 m 436 799 q 355 816 389 799 q 298 860 321 833 q 263 922 275 888 q 250 992 251 957 l 332 992 q 363 913 338 947 q 436 879 388 879 q 510 913 485 879 q 540 992 535 947 l 622 992 q 608 922 619 957 q 574 860 597 888 q 517 816 551 833 q 436 799 483 799 z "},"ė":{"ha":833,"x_min":90,"x_max":750,"o":"m 90 339 q 119 488 90 422 q 197 601 149 554 q 308 672 246 647 q 438 696 371 696 q 570 672 513 696 q 668 606 628 649 q 729 505 708 564 q 750 375 750 446 q 748 335 750 354 q 743 304 746 317 l 232 304 q 306 148 239 204 q 476 92 374 92 q 580 107 532 92 q 674 150 628 122 l 722 63 q 603 6 669 29 q 458 -17 538 -17 q 315 8 382 -17 q 197 78 247 32 q 119 190 147 124 q 90 339 90 256 m 622 399 q 575 539 622 490 q 440 588 528 588 q 304 539 364 588 q 231 399 244 490 l 622 399 m 436 808 q 363 835 392 808 q 333 906 333 861 q 363 977 333 950 q 436 1004 392 1004 q 510 977 481 1004 q 539 906 539 950 q 510 835 539 861 q 436 808 481 808 z "},"ẹ":{"ha":833,"x_min":90,"x_max":750,"o":"m 90 339 q 119 488 90 422 q 197 601 149 554 q 308 672 246 647 q 438 696 371 696 q 570 672 513 696 q 668 606 628 649 q 729 505 708 564 q 750 375 750 446 q 748 335 750 354 q 743 304 746 317 l 232 304 q 306 148 239 204 q 476 92 374 92 q 580 107 532 92 q 674 150 628 122 l 722 63 q 603 6 669 29 q 458 -17 538 -17 q 315 8 382 -17 q 197 78 247 32 q 119 190 147 124 q 90 339 90 256 m 622 399 q 575 539 622 490 q 440 588 528 588 q 304 539 364 588 q 231 399 244 490 l 622 399 m 436 -324 q 363 -297 392 -324 q 333 -226 333 -271 q 363 -155 333 -182 q 436 -128 392 -128 q 510 -155 481 -128 q 539 -226 539 -182 q 510 -297 539 -271 q 436 -324 481 -324 z "},"ẻ":{"ha":833,"x_min":90,"x_max":750,"o":"m 90 339 q 119 488 90 422 q 197 601 149 554 q 308 672 246 647 q 438 696 371 696 q 570 672 513 696 q 668 606 628 649 q 729 505 708 564 q 750 375 750 446 q 748 335 750 354 q 743 304 746 317 l 232 304 q 306 148 239 204 q 476 92 374 92 q 580 107 532 92 q 674 150 628 122 l 722 63 q 603 6 669 29 q 458 -17 538 -17 q 315 8 382 -17 q 197 78 247 32 q 119 190 147 124 q 90 339 90 256 m 622 399 q 575 539 622 490 q 440 588 528 588 q 304 539 364 588 q 231 399 244 490 l 622 399 m 381 829 q 434 851 413 838 q 456 888 456 864 q 342 943 456 938 l 356 1018 q 558 903 558 1011 q 545 848 558 871 q 509 809 532 825 q 457 783 486 793 q 394 769 428 774 l 381 829 z "},"ẽ":{"ha":833,"x_min":90,"x_max":750,"o":"m 90 339 q 119 488 90 422 q 197 601 149 554 q 308 672 246 647 q 438 696 371 696 q 570 672 513 696 q 668 606 628 649 q 729 505 708 564 q 750 375 750 446 q 748 335 750 354 q 743 304 746 317 l 232 304 q 306 148 239 204 q 476 92 374 92 q 580 107 532 92 q 674 150 628 122 l 722 63 q 603 6 669 29 q 458 -17 538 -17 q 315 8 382 -17 q 197 78 247 32 q 119 190 147 124 q 90 339 90 256 m 622 399 q 575 539 622 490 q 440 588 528 588 q 304 539 364 588 q 231 399 244 490 l 622 399 m 229 803 q 270 922 238 878 q 361 967 303 967 q 407 955 386 967 q 445 929 428 943 q 478 903 463 915 q 511 892 494 892 q 568 967 554 892 l 643 967 q 602 847 635 892 q 511 803 569 803 q 465 815 486 803 q 427 840 444 826 q 394 866 410 854 q 361 878 378 878 q 324 860 338 878 q 304 803 311 843 l 229 803 l 229 803 z "},"ế":{"ha":833,"x_min":90,"x_max":776,"o":"m 90 339 q 119 488 90 422 q 197 601 149 554 q 308 672 246 647 q 438 696 371 696 q 570 672 513 696 q 668 606 628 649 q 729 505 708 564 q 750 375 750 446 q 748 335 750 354 q 743 304 746 317 l 232 304 q 306 148 239 204 q 476 92 374 92 q 580 107 532 92 q 674 150 628 122 l 722 63 q 603 6 669 29 q 458 -17 538 -17 q 315 8 382 -17 q 197 78 247 32 q 119 190 147 124 q 90 339 90 256 m 622 399 q 575 539 622 490 q 440 588 528 588 q 304 539 364 588 q 231 399 244 490 l 622 399 m 381 965 l 492 965 l 606 796 l 515 796 l 439 894 l 433 894 l 357 796 l 267 796 l 381 965 m 667 1051 l 776 1051 l 647 892 l 565 892 l 667 1051 z "},"ề":{"ha":833,"x_min":90,"x_max":750,"o":"m 90 339 q 119 488 90 422 q 197 601 149 554 q 308 672 246 647 q 438 696 371 696 q 570 672 513 696 q 668 606 628 649 q 729 505 708 564 q 750 375 750 446 q 748 335 750 354 q 743 304 746 317 l 232 304 q 306 148 239 204 q 476 92 374 92 q 580 107 532 92 q 674 150 628 122 l 722 63 q 603 6 669 29 q 458 -17 538 -17 q 315 8 382 -17 q 197 78 247 32 q 119 190 147 124 q 90 339 90 256 m 622 399 q 575 539 622 490 q 440 588 528 588 q 304 539 364 588 q 231 399 244 490 l 622 399 m 381 965 l 492 965 l 606 796 l 515 796 l 439 894 l 433 894 l 357 796 l 267 796 l 381 965 m 733 892 l 650 892 l 522 1051 l 632 1051 l 733 892 z "},"ể":{"ha":833,"x_min":90,"x_max":750,"o":"m 90 339 q 119 488 90 422 q 197 601 149 554 q 308 672 246 647 q 438 696 371 696 q 570 672 513 696 q 668 606 628 649 q 729 505 708 564 q 750 375 750 446 q 748 335 750 354 q 743 304 746 317 l 232 304 q 306 148 239 204 q 476 92 374 92 q 580 107 532 92 q 674 150 628 122 l 722 63 q 603 6 669 29 q 458 -17 538 -17 q 315 8 382 -17 q 197 78 247 32 q 119 190 147 124 q 90 339 90 256 m 622 399 q 575 539 622 490 q 440 588 528 588 q 304 539 364 588 q 231 399 244 490 l 622 399 m 381 965 l 492 965 l 606 796 l 515 796 l 439 894 l 433 894 l 357 796 l 267 796 l 381 965 m 592 926 q 632 944 617 933 q 647 976 647 956 q 626 1015 647 1001 q 553 1031 604 1028 l 564 1094 q 743 992 743 1088 q 731 942 743 963 q 701 908 719 921 q 656 886 682 894 q 604 872 631 878 l 592 926 z "},"ễ":{"ha":833,"x_min":90,"x_max":750,"o":"m 90 339 q 119 488 90 422 q 197 601 149 554 q 308 672 246 647 q 438 696 371 696 q 570 672 513 696 q 668 606 628 649 q 729 505 708 564 q 750 375 750 446 q 748 335 750 354 q 743 304 746 317 l 232 304 q 306 148 239 204 q 476 92 374 92 q 580 107 532 92 q 674 150 628 122 l 722 63 q 603 6 669 29 q 458 -17 538 -17 q 315 8 382 -17 q 197 78 247 32 q 119 190 147 124 q 90 339 90 256 m 622 399 q 575 539 622 490 q 440 588 528 588 q 304 539 364 588 q 231 399 244 490 l 622 399 m 374 942 l 499 942 l 617 794 l 522 794 l 439 882 l 433 882 l 350 794 l 256 794 l 374 942 m 249 992 q 285 1090 256 1054 q 363 1125 315 1125 q 408 1116 389 1125 q 444 1097 428 1107 q 474 1077 460 1086 q 504 1068 488 1068 q 557 1125 547 1068 l 624 1125 q 587 1027 617 1063 q 510 992 557 992 q 464 1001 483 992 q 428 1020 444 1010 q 399 1040 413 1031 q 368 1049 385 1049 q 315 992 325 1049 l 249 992 z "},"ệ":{"ha":833,"x_min":90,"x_max":750,"o":"m 90 339 q 119 488 90 422 q 197 601 149 554 q 308 672 246 647 q 438 696 371 696 q 570 672 513 696 q 668 606 628 649 q 729 505 708 564 q 750 375 750 446 q 748 335 750 354 q 743 304 746 317 l 232 304 q 306 148 239 204 q 476 92 374 92 q 580 107 532 92 q 674 150 628 122 l 722 63 q 603 6 669 29 q 458 -17 538 -17 q 315 8 382 -17 q 197 78 247 32 q 119 190 147 124 q 90 339 90 256 m 622 399 q 575 539 622 490 q 440 588 528 588 q 304 539 364 588 q 231 399 244 490 l 622 399 m 378 1008 l 494 1008 l 631 796 l 526 796 l 439 932 l 433 932 l 346 796 l 242 796 l 378 1008 m 436 -324 q 363 -297 392 -324 q 333 -226 333 -271 q 363 -155 333 -182 q 436 -128 392 -128 q 510 -155 481 -128 q 539 -226 539 -182 q 510 -297 539 -271 q 436 -324 481 -324 z "},"ę":{"ha":833,"x_min":90,"x_max":750,"o":"m 722 63 q 644 2 675 29 q 594 -49 613 -25 q 569 -95 576 -74 q 561 -139 561 -117 q 581 -185 561 -169 q 625 -200 600 -200 q 653 -195 640 -200 q 679 -182 667 -190 l 711 -247 q 656 -276 690 -265 q 594 -287 622 -287 q 502 -258 539 -287 q 465 -167 465 -228 q 474 -116 465 -140 q 494 -71 482 -92 q 523 -33 507 -50 q 554 -3 539 -15 q 503 -15 525 -12 q 458 -17 482 -17 q 315 8 382 -17 q 197 78 247 32 q 119 190 147 124 q 90 339 90 256 q 119 488 90 422 q 197 601 149 554 q 308 672 246 647 q 438 696 371 696 q 570 672 513 696 q 668 606 628 649 q 729 505 708 564 q 750 375 750 446 q 748 335 750 354 q 743 304 746 317 l 232 304 q 306 148 239 204 q 476 92 374 92 q 580 107 532 92 q 674 150 628 122 l 722 63 m 622 399 q 575 539 622 490 q 440 588 528 588 q 304 539 364 588 q 231 399 244 490 l 622 399 z "},"ĝ":{"ha":833,"x_min":93,"x_max":788,"o":"m 210 -106 q 263 -184 210 -154 q 418 -214 317 -214 q 516 -203 472 -214 q 591 -176 560 -193 q 639 -136 622 -158 q 656 -89 656 -114 q 619 -30 656 -44 q 508 -15 582 -15 l 389 -15 q 332 -13 357 -15 q 285 -4 307 -11 q 226 -53 243 -28 q 210 -106 210 -78 m 93 -122 q 122 -44 93 -82 q 203 25 150 -6 l 203 31 q 154 73 175 46 q 133 143 133 100 q 155 210 133 176 q 215 271 176 244 l 215 276 q 154 347 179 303 q 129 451 129 390 q 151 553 129 508 q 211 631 174 599 q 298 679 249 663 q 403 696 347 696 q 506 679 460 696 l 785 679 l 785 575 l 615 575 q 653 520 636 553 q 669 447 669 488 q 649 349 669 392 q 592 276 628 306 q 507 231 556 246 q 403 215 458 215 q 349 221 378 215 q 293 238 321 226 q 246 167 246 207 q 281 113 246 129 q 381 96 315 96 l 525 96 q 723 58 658 96 q 788 -68 788 19 q 760 -160 788 -117 q 683 -235 733 -203 q 563 -287 633 -268 q 404 -306 492 -306 q 176 -259 260 -306 q 93 -122 93 -212 m 403 304 q 503 343 461 304 q 544 451 544 382 q 503 558 544 518 q 403 599 461 599 q 303 558 344 599 q 261 451 261 518 q 303 343 261 382 q 403 304 344 304 m 368 1008 l 485 1008 l 621 796 l 517 796 l 429 932 l 424 932 l 336 796 l 232 796 l 368 1008 z "},"ğ":{"ha":833,"x_min":93,"x_max":788,"o":"m 210 -106 q 263 -184 210 -154 q 418 -214 317 -214 q 516 -203 472 -214 q 591 -176 560 -193 q 639 -136 622 -158 q 656 -89 656 -114 q 619 -30 656 -44 q 508 -15 582 -15 l 389 -15 q 332 -13 357 -15 q 285 -4 307 -11 q 226 -53 243 -28 q 210 -106 210 -78 m 93 -122 q 122 -44 93 -82 q 203 25 150 -6 l 203 31 q 154 73 175 46 q 133 143 133 100 q 155 210 133 176 q 215 271 176 244 l 215 276 q 154 347 179 303 q 129 451 129 390 q 151 553 129 508 q 211 631 174 599 q 298 679 249 663 q 403 696 347 696 q 506 679 460 696 l 785 679 l 785 575 l 615 575 q 653 520 636 553 q 669 447 669 488 q 649 349 669 392 q 592 276 628 306 q 507 231 556 246 q 403 215 458 215 q 349 221 378 215 q 293 238 321 226 q 246 167 246 207 q 281 113 246 129 q 381 96 315 96 l 525 96 q 723 58 658 96 q 788 -68 788 19 q 760 -160 788 -117 q 683 -235 733 -203 q 563 -287 633 -268 q 404 -306 492 -306 q 176 -259 260 -306 q 93 -122 93 -212 m 403 304 q 503 343 461 304 q 544 451 544 382 q 503 558 544 518 q 403 599 461 599 q 303 558 344 599 q 261 451 261 518 q 303 343 261 382 q 403 304 344 304 m 426 799 q 345 816 379 799 q 288 860 311 833 q 253 922 265 888 q 240 992 242 957 l 322 992 q 353 913 328 947 q 426 879 378 879 q 500 913 475 879 q 531 992 525 947 l 613 992 q 599 922 610 957 q 565 860 588 888 q 508 816 542 833 q 426 799 474 799 z "},"ġ":{"ha":833,"x_min":93,"x_max":788,"o":"m 210 -106 q 263 -184 210 -154 q 418 -214 317 -214 q 516 -203 472 -214 q 591 -176 560 -193 q 639 -136 622 -158 q 656 -89 656 -114 q 619 -30 656 -44 q 508 -15 582 -15 l 389 -15 q 332 -13 357 -15 q 285 -4 307 -11 q 226 -53 243 -28 q 210 -106 210 -78 m 93 -122 q 122 -44 93 -82 q 203 25 150 -6 l 203 31 q 154 73 175 46 q 133 143 133 100 q 155 210 133 176 q 215 271 176 244 l 215 276 q 154 347 179 303 q 129 451 129 390 q 151 553 129 508 q 211 631 174 599 q 298 679 249 663 q 403 696 347 696 q 506 679 460 696 l 785 679 l 785 575 l 615 575 q 653 520 636 553 q 669 447 669 488 q 649 349 669 392 q 592 276 628 306 q 507 231 556 246 q 403 215 458 215 q 349 221 378 215 q 293 238 321 226 q 246 167 246 207 q 281 113 246 129 q 381 96 315 96 l 525 96 q 723 58 658 96 q 788 -68 788 19 q 760 -160 788 -117 q 683 -235 733 -203 q 563 -287 633 -268 q 404 -306 492 -306 q 176 -259 260 -306 q 93 -122 93 -212 m 403 304 q 503 343 461 304 q 544 451 544 382 q 503 558 544 518 q 403 599 461 599 q 303 558 344 599 q 261 451 261 518 q 303 343 261 382 q 403 304 344 304 m 426 808 q 353 835 382 808 q 324 906 324 861 q 353 977 324 950 q 426 1004 382 1004 q 500 977 471 1004 q 529 906 529 950 q 500 835 529 861 q 426 808 471 808 z "},"ģ":{"ha":833,"x_min":93,"x_max":788,"o":"m 210 -106 q 263 -184 210 -154 q 418 -214 317 -214 q 516 -203 472 -214 q 591 -176 560 -193 q 639 -136 622 -158 q 656 -89 656 -114 q 619 -30 656 -44 q 508 -15 582 -15 l 389 -15 q 332 -13 357 -15 q 285 -4 307 -11 q 226 -53 243 -28 q 210 -106 210 -78 m 93 -122 q 122 -44 93 -82 q 203 25 150 -6 l 203 31 q 154 73 175 46 q 133 143 133 100 q 155 210 133 176 q 215 271 176 244 l 215 276 q 154 347 179 303 q 129 451 129 390 q 151 553 129 508 q 211 631 174 599 q 298 679 249 663 q 403 696 347 696 q 506 679 460 696 l 785 679 l 785 575 l 615 575 q 653 520 636 553 q 669 447 669 488 q 649 349 669 392 q 592 276 628 306 q 507 231 556 246 q 403 215 458 215 q 349 221 378 215 q 293 238 321 226 q 246 167 246 207 q 281 113 246 129 q 381 96 315 96 l 525 96 q 723 58 658 96 q 788 -68 788 19 q 760 -160 788 -117 q 683 -235 733 -203 q 563 -287 633 -268 q 404 -306 492 -306 q 176 -259 260 -306 q 93 -122 93 -212 m 403 304 q 503 343 461 304 q 544 451 544 382 q 503 558 544 518 q 403 599 461 599 q 303 558 344 599 q 261 451 261 518 q 303 343 261 382 q 403 304 344 304 m 468 753 q 358 789 390 764 q 325 863 325 814 q 342 917 325 893 q 389 956 360 940 q 456 981 418 972 q 536 993 494 990 l 549 931 q 462 910 496 924 q 428 871 428 897 q 447 831 428 844 q 496 811 465 818 l 468 753 l 468 753 z "},"ǧ":{"ha":833,"x_min":93,"x_max":788,"o":"m 210 -106 q 263 -184 210 -154 q 418 -214 317 -214 q 516 -203 472 -214 q 591 -176 560 -193 q 639 -136 622 -158 q 656 -89 656 -114 q 619 -30 656 -44 q 508 -15 582 -15 l 389 -15 q 332 -13 357 -15 q 285 -4 307 -11 q 226 -53 243 -28 q 210 -106 210 -78 m 93 -122 q 122 -44 93 -82 q 203 25 150 -6 l 203 31 q 154 73 175 46 q 133 143 133 100 q 155 210 133 176 q 215 271 176 244 l 215 276 q 154 347 179 303 q 129 451 129 390 q 151 553 129 508 q 211 631 174 599 q 298 679 249 663 q 403 696 347 696 q 506 679 460 696 l 785 679 l 785 575 l 615 575 q 653 520 636 553 q 669 447 669 488 q 649 349 669 392 q 592 276 628 306 q 507 231 556 246 q 403 215 458 215 q 349 221 378 215 q 293 238 321 226 q 246 167 246 207 q 281 113 246 129 q 381 96 315 96 l 525 96 q 723 58 658 96 q 788 -68 788 19 q 760 -160 788 -117 q 683 -235 733 -203 q 563 -287 633 -268 q 404 -306 492 -306 q 176 -259 260 -306 q 93 -122 93 -212 m 403 304 q 503 343 461 304 q 544 451 544 382 q 503 558 544 518 q 403 599 461 599 q 303 558 344 599 q 261 451 261 518 q 303 343 261 382 q 403 304 344 304 m 232 1008 l 336 1008 l 424 872 l 429 872 l 517 1008 l 621 1008 l 485 796 l 368 796 l 232 1008 z "},"ḡ":{"ha":833,"x_min":93,"x_max":788,"o":"m 210 -106 q 263 -184 210 -154 q 418 -214 317 -214 q 516 -203 472 -214 q 591 -176 560 -193 q 639 -136 622 -158 q 656 -89 656 -114 q 619 -30 656 -44 q 508 -15 582 -15 l 389 -15 q 332 -13 357 -15 q 285 -4 307 -11 q 226 -53 243 -28 q 210 -106 210 -78 m 93 -122 q 122 -44 93 -82 q 203 25 150 -6 l 203 31 q 154 73 175 46 q 133 143 133 100 q 155 210 133 176 q 215 271 176 244 l 215 276 q 154 347 179 303 q 129 451 129 390 q 151 553 129 508 q 211 631 174 599 q 298 679 249 663 q 403 696 347 696 q 506 679 460 696 l 785 679 l 785 575 l 615 575 q 653 520 636 553 q 669 447 669 488 q 649 349 669 392 q 592 276 628 306 q 507 231 556 246 q 403 215 458 215 q 349 221 378 215 q 293 238 321 226 q 246 167 246 207 q 281 113 246 129 q 381 96 315 96 l 525 96 q 723 58 658 96 q 788 -68 788 19 q 760 -160 788 -117 q 683 -235 733 -203 q 563 -287 633 -268 q 404 -306 492 -306 q 176 -259 260 -306 q 93 -122 93 -212 m 403 304 q 503 343 461 304 q 544 451 544 382 q 503 558 544 518 q 403 599 461 599 q 303 558 344 599 q 261 451 261 518 q 303 343 261 382 q 403 304 344 304 m 250 924 l 603 924 l 603 831 l 250 831 l 250 924 z "},"ĥ":{"ha":833,"x_min":4,"x_max":732,"o":"m 122 985 l 260 985 l 260 724 l 251 571 q 363 660 303 624 q 501 696 422 696 q 676 625 621 696 q 732 421 732 554 l 732 0 l 594 0 l 594 403 q 563 534 594 492 q 453 576 531 576 q 356 549 399 576 q 260 468 313 522 l 260 0 l 122 0 l 122 985 m 4 1040 l 138 1199 l 271 1199 l 404 1040 l 294 1040 l 207 1132 l 201 1132 l 114 1040 l 4 1040 z "},"ḥ":{"ha":833,"x_min":122,"x_max":732,"o":"m 122 985 l 260 985 l 260 724 l 251 571 q 363 660 303 624 q 501 696 422 696 q 676 625 621 696 q 732 421 732 554 l 732 0 l 594 0 l 594 403 q 563 534 594 492 q 453 576 531 576 q 356 549 399 576 q 260 468 313 522 l 260 0 l 122 0 l 122 985 m 433 -324 q 360 -297 389 -324 q 331 -226 331 -271 q 360 -155 331 -182 q 433 -128 389 -128 q 507 -155 478 -128 q 536 -226 536 -182 q 507 -297 536 -271 q 433 -324 478 -324 z "},"ḫ":{"ha":833,"x_min":122,"x_max":732,"o":"m 122 985 l 260 985 l 260 724 l 251 571 q 363 660 303 624 q 501 696 422 696 q 676 625 621 696 q 732 421 732 554 l 732 0 l 594 0 l 594 403 q 563 534 594 492 q 453 576 531 576 q 356 549 399 576 q 260 468 313 522 l 260 0 l 122 0 l 122 985 m 433 -287 q 354 -272 388 -287 q 299 -230 321 -256 q 266 -172 278 -204 q 253 -107 254 -140 l 335 -107 q 364 -176 340 -146 q 433 -207 388 -207 q 503 -176 479 -207 q 532 -107 526 -146 l 614 -107 q 600 -172 611 -140 q 567 -230 589 -204 q 513 -272 546 -256 q 433 -287 479 -287 z "},"ħ":{"ha":833,"x_min":22,"x_max":732,"o":"m 251 543 q 363 632 303 596 q 501 668 422 668 q 676 597 621 668 q 732 393 732 526 l 732 0 l 594 0 l 594 375 q 563 506 594 464 q 453 549 531 549 q 356 522 399 549 q 260 440 313 494 l 260 0 l 122 0 l 122 788 l 22 788 l 22 856 l 122 863 l 122 985 l 260 985 l 260 863 l 543 863 l 543 788 l 260 788 l 260 696 l 251 543 z "},"ì":{"ha":833,"x_min":121,"x_max":578,"o":"m 121 679 l 563 679 l 563 0 l 425 0 l 425 568 l 121 568 l 121 679 m 307 1008 l 453 1008 l 578 796 l 475 796 l 307 1008 z "},"í":{"ha":833,"x_min":121,"x_max":657,"o":"m 121 679 l 563 679 l 563 0 l 425 0 l 425 568 l 121 568 l 121 679 m 489 796 l 386 796 l 511 1008 l 657 1008 l 489 796 z "},"î":{"ha":833,"x_min":121,"x_max":676,"o":"m 121 679 l 563 679 l 563 0 l 425 0 l 425 568 l 121 568 l 121 679 m 424 1008 l 540 1008 l 676 796 l 572 796 l 485 932 l 479 932 l 392 796 l 288 796 l 424 1008 z "},"ĩ":{"ha":833,"x_min":121,"x_max":689,"o":"m 121 679 l 563 679 l 563 0 l 425 0 l 425 568 l 121 568 l 121 679 m 275 803 q 316 922 283 878 q 407 967 349 967 q 453 955 432 967 q 491 929 474 943 q 524 903 508 915 q 557 892 540 892 q 614 967 600 892 l 689 967 q 648 847 681 892 q 557 803 615 803 q 511 815 532 803 q 473 840 490 826 q 440 866 456 854 q 407 878 424 878 q 370 860 383 878 q 350 803 357 843 l 275 803 l 275 803 z "},"ï":{"ha":833,"x_min":121,"x_max":704,"o":"m 121 679 l 563 679 l 563 0 l 425 0 l 425 568 l 121 568 l 121 679 m 343 811 q 283 835 307 811 q 260 896 260 860 q 283 956 260 932 q 343 981 307 981 q 404 956 381 981 q 428 896 428 932 q 404 835 428 860 q 343 811 381 811 m 621 811 q 560 835 583 811 q 536 896 536 860 q 560 956 536 932 q 621 981 583 981 q 681 956 657 981 q 704 896 704 932 q 681 835 704 860 q 621 811 657 811 z "},"ī":{"ha":833,"x_min":121,"x_max":658,"o":"m 121 679 l 563 679 l 563 0 l 425 0 l 425 568 l 121 568 l 121 679 m 306 924 l 658 924 l 658 831 l 306 831 l 306 924 z "},"ĭ":{"ha":833,"x_min":121,"x_max":668,"o":"m 121 679 l 563 679 l 563 0 l 425 0 l 425 568 l 121 568 l 121 679 m 482 799 q 401 816 435 799 q 344 860 367 833 q 309 922 321 888 q 296 992 297 957 l 378 992 q 408 913 383 947 q 482 879 433 879 q 556 913 531 879 q 586 992 581 947 l 668 992 q 654 922 665 957 q 620 860 643 888 q 563 816 597 833 q 482 799 529 799 z "},"ǐ":{"ha":833,"x_min":121,"x_max":676,"o":"m 121 679 l 563 679 l 563 0 l 425 0 l 425 568 l 121 568 l 121 679 m 288 1008 l 392 1008 l 479 872 l 485 872 l 572 1008 l 676 1008 l 540 796 l 424 796 l 288 1008 z "},"ỉ":{"ha":833,"x_min":121,"x_max":604,"o":"m 121 679 l 563 679 l 563 0 l 425 0 l 425 568 l 121 568 l 121 679 m 426 829 q 480 851 458 838 q 501 888 501 864 q 388 943 501 938 l 401 1018 q 604 903 604 1011 q 591 848 604 871 q 555 809 578 825 q 503 783 532 793 q 440 769 474 774 l 426 829 z "},"ị":{"ha":833,"x_min":121,"x_max":585,"o":"m 121 679 l 563 679 l 563 0 l 425 0 l 425 568 l 121 568 l 121 679 m 482 808 q 408 835 438 808 q 379 906 379 861 q 408 977 379 950 q 482 1004 438 1004 q 556 977 526 1004 q 585 906 585 950 q 556 835 585 861 q 482 808 526 808 m 482 -324 q 408 -297 438 -324 q 379 -226 379 -271 q 408 -155 379 -182 q 482 -128 438 -128 q 556 -155 526 -128 q 585 -226 585 -182 q 556 -297 585 -271 q 482 -324 526 -324 z "},"į":{"ha":833,"x_min":121,"x_max":619,"o":"m 425 568 l 121 568 l 121 679 l 563 679 l 563 0 q 494 -64 518 -28 q 469 -139 469 -100 q 489 -185 469 -169 q 533 -200 508 -200 q 561 -195 549 -200 q 588 -182 574 -190 l 619 -247 q 565 -276 599 -265 q 503 -287 531 -287 q 410 -258 447 -287 q 372 -167 372 -228 q 381 -115 372 -139 q 402 -69 389 -90 q 431 -31 415 -49 q 460 0 446 -14 l 425 0 l 425 568 m 482 808 q 408 835 438 808 q 379 906 379 861 q 408 977 379 950 q 482 1004 438 1004 q 556 977 526 1004 q 585 906 585 950 q 556 835 585 861 q 482 808 526 808 z "},"ı":{"ha":833,"x_min":121,"x_max":563,"o":"m 121 679 l 563 679 l 563 0 l 425 0 l 425 568 l 121 568 l 121 679 z "},"ĵ":{"ha":833,"x_min":72,"x_max":676,"o":"m 121 679 l 563 679 l 563 -1 q 549 -117 563 -64 q 501 -210 535 -171 q 410 -272 467 -250 q 269 -294 354 -294 q 163 -281 214 -294 q 72 -249 113 -268 l 115 -147 q 265 -183 192 -183 q 392 -138 358 -183 q 425 -10 425 -93 l 425 568 l 121 568 l 121 679 m 424 1008 l 540 1008 l 676 796 l 572 796 l 485 932 l 479 932 l 392 796 l 288 796 l 424 1008 z "},"ķ":{"ha":833,"x_min":136,"x_max":801,"o":"m 136 985 l 274 985 l 274 343 l 279 343 l 614 679 l 768 679 l 503 407 l 801 0 l 650 0 l 418 322 l 274 181 l 274 0 l 136 0 l 136 985 m 418 -64 q 528 -100 496 -75 q 561 -174 561 -125 q 544 -229 561 -206 q 497 -269 526 -253 q 429 -294 468 -285 q 349 -306 390 -303 l 338 -242 q 424 -222 390 -235 q 458 -182 458 -208 q 439 -144 458 -157 q 390 -124 419 -131 l 418 -64 l 418 -64 z "},"ĸ":{"ha":833,"x_min":136,"x_max":801,"o":"m 136 679 l 274 679 l 274 344 l 278 346 l 614 679 l 768 679 l 503 407 l 801 0 l 650 0 l 419 317 l 274 178 l 274 0 l 136 0 l 136 679 z "},"ĺ":{"ha":833,"x_min":106,"x_max":749,"o":"m 106 985 l 465 985 l 465 229 q 501 127 465 158 q 593 96 536 96 q 650 103 621 96 q 715 125 679 110 l 749 22 q 703 7 725 14 q 660 -5 682 0 q 613 -13 638 -10 q 560 -17 589 -17 q 387 49 446 -17 q 328 238 328 114 l 328 875 l 106 875 l 106 985 m 414 1053 l 301 1053 l 421 1211 l 574 1211 l 414 1053 z "},"ľ":{"ha":833,"x_min":106,"x_max":749,"o":"m 106 985 l 465 985 l 465 229 q 501 127 465 158 q 593 96 536 96 q 650 103 621 96 q 715 125 679 110 l 749 22 q 703 7 725 14 q 660 -5 682 0 q 613 -13 638 -10 q 560 -17 589 -17 q 387 49 446 -17 q 328 238 328 114 l 328 875 l 106 875 l 106 985 m 563 761 l 557 1060 l 651 1060 l 650 975 l 626 761 l 563 761 z "},"ŀ":{"ha":833,"x_min":49,"x_max":722,"o":"m 49 985 l 408 985 l 408 229 q 444 127 408 158 q 536 96 479 96 q 593 103 564 96 q 658 125 622 110 l 692 22 q 647 7 668 14 q 603 -5 625 0 q 556 -13 581 -10 q 503 -17 532 -17 q 330 49 389 -17 q 271 238 271 114 l 271 875 l 49 875 l 49 985 m 619 388 q 546 414 575 388 q 517 485 517 440 q 546 556 517 529 q 619 583 575 583 q 693 556 664 583 q 722 485 722 529 q 693 414 722 440 q 619 388 664 388 z "},"ļ":{"ha":833,"x_min":106,"x_max":749,"o":"m 106 985 l 465 985 l 465 229 q 501 127 465 158 q 593 96 536 96 q 650 103 621 96 q 715 125 679 110 l 749 22 q 703 7 725 14 q 660 -5 682 0 q 613 -13 638 -10 q 560 -17 589 -17 q 387 49 446 -17 q 328 238 328 114 l 328 875 l 106 875 l 106 985 m 468 -64 q 578 -100 546 -75 q 611 -174 611 -125 q 594 -229 611 -206 q 547 -269 576 -253 q 479 -294 518 -285 q 399 -306 440 -303 l 388 -242 q 474 -222 440 -235 q 508 -182 508 -208 q 489 -144 508 -157 q 440 -124 469 -131 l 468 -64 l 468 -64 z "},"ḷ":{"ha":833,"x_min":106,"x_max":749,"o":"m 106 985 l 465 985 l 465 229 q 501 127 465 158 q 593 96 536 96 q 650 103 621 96 q 715 125 679 110 l 749 22 q 703 7 725 14 q 660 -5 682 0 q 613 -13 638 -10 q 560 -17 589 -17 q 387 49 446 -17 q 328 238 328 114 l 328 875 l 106 875 l 106 985 m 511 -324 q 438 -297 467 -324 q 408 -226 408 -271 q 438 -155 408 -182 q 511 -128 467 -128 q 585 -155 556 -128 q 614 -226 614 -182 q 585 -297 614 -271 q 511 -324 556 -324 z "},"ḹ":{"ha":833,"x_min":106,"x_max":749,"o":"m 106 985 l 465 985 l 465 229 q 501 127 465 158 q 593 96 536 96 q 650 103 621 96 q 715 125 679 110 l 749 22 q 703 7 725 14 q 660 -5 682 0 q 613 -13 638 -10 q 560 -17 589 -17 q 387 49 446 -17 q 328 238 328 114 l 328 875 l 106 875 l 106 985 m 214 1228 l 567 1228 l 567 1135 l 214 1135 l 214 1228 m 511 -324 q 438 -297 467 -324 q 408 -226 408 -271 q 438 -155 408 -182 q 511 -128 467 -128 q 585 -155 556 -128 q 614 -226 614 -182 q 585 -297 614 -271 q 511 -324 556 -324 z "},"ḻ":{"ha":833,"x_min":106,"x_max":749,"o":"m 106 985 l 465 985 l 465 229 q 501 127 465 158 q 593 96 536 96 q 650 103 621 96 q 715 125 679 110 l 749 22 q 703 7 725 14 q 660 -5 682 0 q 613 -13 638 -10 q 560 -17 589 -17 q 387 49 446 -17 q 328 238 328 114 l 328 875 l 106 875 l 106 985 m 688 -243 l 333 -243 l 333 -151 l 688 -151 l 688 -243 z "},"ł":{"ha":833,"x_min":106,"x_max":749,"o":"m 749 22 q 703 7 725 14 q 660 -5 682 0 q 613 -13 638 -10 q 560 -17 589 -17 q 387 49 446 -17 q 328 238 328 114 l 328 442 l 160 344 l 160 460 l 328 556 l 328 875 l 106 875 l 106 985 l 465 985 l 465 625 l 686 749 l 686 633 l 465 511 l 465 229 q 501 127 465 158 q 593 96 536 96 q 650 103 621 96 q 715 125 679 110 l 749 22 z "},"ṃ":{"ha":833,"x_min":75,"x_max":778,"o":"m 75 679 l 181 679 l 192 590 l 196 590 q 253 666 219 636 q 346 696 288 696 q 472 581 447 696 q 536 664 500 632 q 629 696 572 696 q 739 641 700 696 q 778 483 778 586 l 778 0 l 647 0 l 647 472 q 583 576 647 576 q 528 553 551 576 q 481 483 504 531 l 481 0 l 372 0 l 372 472 q 306 576 372 576 q 251 553 274 576 q 206 483 229 531 l 206 0 l 75 0 l 75 679 m 424 -324 q 350 -297 379 -324 q 321 -226 321 -271 q 350 -155 321 -182 q 424 -128 379 -128 q 497 -155 468 -128 q 526 -226 526 -182 q 497 -297 526 -271 q 424 -324 468 -324 z "},"ń":{"ha":833,"x_min":122,"x_max":732,"o":"m 122 679 l 235 679 l 246 569 l 251 569 q 363 659 303 622 q 501 696 422 696 q 676 625 621 696 q 732 421 732 554 l 732 0 l 594 0 l 594 403 q 563 534 594 492 q 453 576 531 576 q 356 549 399 576 q 260 468 313 522 l 260 0 l 122 0 l 122 679 m 447 796 l 344 796 l 469 1008 l 615 1008 l 447 796 z "},"ň":{"ha":833,"x_min":122,"x_max":732,"o":"m 122 679 l 235 679 l 246 569 l 251 569 q 363 659 303 622 q 501 696 422 696 q 676 625 621 696 q 732 421 732 554 l 732 0 l 594 0 l 594 403 q 563 534 594 492 q 453 576 531 576 q 356 549 399 576 q 260 468 313 522 l 260 0 l 122 0 l 122 679 m 246 1008 l 350 1008 l 438 872 l 443 872 l 531 1008 l 635 1008 l 499 796 l 382 796 l 246 1008 z "},"ñ":{"ha":833,"x_min":122,"x_max":732,"o":"m 122 679 l 235 679 l 246 569 l 251 569 q 363 659 303 622 q 501 696 422 696 q 676 625 621 696 q 732 421 732 554 l 732 0 l 594 0 l 594 403 q 563 534 594 492 q 453 576 531 576 q 356 549 399 576 q 260 468 313 522 l 260 0 l 122 0 l 122 679 m 233 803 q 274 922 242 878 q 365 967 307 967 q 411 955 390 967 q 449 929 432 943 q 483 903 467 915 q 515 892 499 892 q 572 967 558 892 l 647 967 q 606 847 639 892 q 515 803 574 803 q 469 815 490 803 q 431 840 449 826 q 398 866 414 854 q 365 878 382 878 q 328 860 342 878 q 308 803 315 843 l 233 803 l 233 803 z "},"ņ":{"ha":833,"x_min":122,"x_max":732,"o":"m 122 679 l 235 679 l 246 569 l 251 569 q 363 659 303 622 q 501 696 422 696 q 676 625 621 696 q 732 421 732 554 l 732 0 l 594 0 l 594 403 q 563 534 594 492 q 453 576 531 576 q 356 549 399 576 q 260 468 313 522 l 260 0 l 122 0 l 122 679 m 389 -64 q 499 -100 467 -75 q 532 -174 532 -125 q 515 -229 532 -206 q 468 -269 497 -253 q 400 -294 439 -285 q 319 -306 361 -303 l 308 -242 q 395 -222 361 -235 q 429 -182 429 -208 q 410 -144 429 -157 q 361 -124 390 -131 l 389 -64 l 389 -64 z "},"ṅ":{"ha":833,"x_min":122,"x_max":732,"o":"m 122 679 l 235 679 l 246 569 l 251 569 q 363 659 303 622 q 501 696 422 696 q 676 625 621 696 q 732 421 732 554 l 732 0 l 594 0 l 594 403 q 563 534 594 492 q 453 576 531 576 q 356 549 399 576 q 260 468 313 522 l 260 0 l 122 0 l 122 679 m 440 808 q 367 835 396 808 q 338 906 338 861 q 367 977 338 950 q 440 1004 396 1004 q 514 977 485 1004 q 543 906 543 950 q 514 835 543 861 q 440 808 485 808 z "},"ṇ":{"ha":833,"x_min":122,"x_max":732,"o":"m 122 679 l 235 679 l 246 569 l 251 569 q 363 659 303 622 q 501 696 422 696 q 676 625 621 696 q 732 421 732 554 l 732 0 l 594 0 l 594 403 q 563 534 594 492 q 453 576 531 576 q 356 549 399 576 q 260 468 313 522 l 260 0 l 122 0 l 122 679 m 432 -324 q 358 -297 388 -324 q 329 -226 329 -271 q 358 -155 329 -182 q 432 -128 388 -128 q 506 -155 476 -128 q 535 -226 535 -182 q 506 -297 535 -271 q 432 -324 476 -324 z "},"ṉ":{"ha":833,"x_min":122,"x_max":732,"o":"m 122 679 l 235 679 l 246 569 l 251 569 q 363 659 303 622 q 501 696 422 696 q 676 625 621 696 q 732 421 732 554 l 732 0 l 594 0 l 594 403 q 563 534 594 492 q 453 576 531 576 q 356 549 399 576 q 260 468 313 522 l 260 0 l 122 0 l 122 679 m 608 -243 l 254 -243 l 254 -151 l 608 -151 l 608 -243 z "},"ŉ":{"ha":833,"x_min":-39,"x_max":847,"o":"m -39 542 q 66 631 28 578 q 108 754 104 683 q 74 747 90 747 q -2 776 28 747 q -32 854 -32 806 q -1 938 -32 906 q 79 969 31 969 q 177 922 140 969 q 214 788 214 875 q 159 597 214 681 q 3 464 104 514 l -39 542 m 410 576 q 510 661 457 626 q 636 696 564 696 q 796 627 744 696 q 847 428 847 558 l 847 0 l 710 0 l 710 410 q 681 536 710 496 q 588 576 653 576 q 502 551 539 576 q 417 475 465 526 l 417 0 l 279 0 l 279 679 l 393 679 l 404 576 l 410 576 z "},"ò":{"ha":833,"x_min":78,"x_max":756,"o":"m 78 339 q 106 490 78 424 q 181 603 133 557 q 289 672 228 649 q 417 696 350 696 q 544 672 483 696 q 653 603 606 649 q 728 490 700 557 q 756 339 756 424 q 728 188 756 254 q 653 76 700 122 q 544 7 606 31 q 417 -17 483 -17 q 289 7 350 -17 q 181 76 228 31 q 106 188 133 122 q 78 339 78 254 m 219 339 q 272 163 219 229 q 417 96 325 96 q 561 163 508 96 q 614 339 614 229 q 561 515 614 449 q 417 582 508 582 q 272 515 325 582 q 219 339 219 449 m 242 1008 l 388 1008 l 513 796 l 410 796 l 242 1008 z "},"ó":{"ha":833,"x_min":78,"x_max":756,"o":"m 78 339 q 106 490 78 424 q 181 603 133 557 q 289 672 228 649 q 417 696 350 696 q 544 672 483 696 q 653 603 606 649 q 728 490 700 557 q 756 339 756 424 q 728 188 756 254 q 653 76 700 122 q 544 7 606 31 q 417 -17 483 -17 q 289 7 350 -17 q 181 76 228 31 q 106 188 133 122 q 78 339 78 254 m 219 339 q 272 163 219 229 q 417 96 325 96 q 561 163 508 96 q 614 339 614 229 q 561 515 614 449 q 417 582 508 582 q 272 515 325 582 q 219 339 219 449 m 424 796 l 321 796 l 446 1008 l 592 1008 l 424 796 z "},"ô":{"ha":833,"x_min":78,"x_max":756,"o":"m 78 339 q 106 490 78 424 q 181 603 133 557 q 289 672 228 649 q 417 696 350 696 q 544 672 483 696 q 653 603 606 649 q 728 490 700 557 q 756 339 756 424 q 728 188 756 254 q 653 76 700 122 q 544 7 606 31 q 417 -17 483 -17 q 289 7 350 -17 q 181 76 228 31 q 106 188 133 122 q 78 339 78 254 m 219 339 q 272 163 219 229 q 417 96 325 96 q 561 163 508 96 q 614 339 614 229 q 561 515 614 449 q 417 582 508 582 q 272 515 325 582 q 219 339 219 449 m 358 1008 l 475 1008 l 611 796 l 507 796 l 419 932 l 414 932 l 326 796 l 222 796 l 358 1008 z "},"õ":{"ha":833,"x_min":78,"x_max":756,"o":"m 78 339 q 106 490 78 424 q 181 603 133 557 q 289 672 228 649 q 417 696 350 696 q 544 672 483 696 q 653 603 606 649 q 728 490 700 557 q 756 339 756 424 q 728 188 756 254 q 653 76 700 122 q 544 7 606 31 q 417 -17 483 -17 q 289 7 350 -17 q 181 76 228 31 q 106 188 133 122 q 78 339 78 254 m 219 339 q 272 163 219 229 q 417 96 325 96 q 561 163 508 96 q 614 339 614 229 q 561 515 614 449 q 417 582 508 582 q 272 515 325 582 q 219 339 219 449 m 210 803 q 251 922 218 878 q 342 967 283 967 q 388 955 367 967 q 426 929 408 943 q 459 903 443 915 q 492 892 475 892 q 549 967 535 892 l 624 967 q 583 847 615 892 q 492 803 550 803 q 446 815 467 803 q 408 840 425 826 q 374 866 390 854 q 342 878 358 878 q 305 860 318 878 q 285 803 292 843 l 210 803 l 210 803 z "},"ö":{"ha":833,"x_min":78,"x_max":756,"o":"m 78 339 q 106 490 78 424 q 181 603 133 557 q 289 672 228 649 q 417 696 350 696 q 544 672 483 696 q 653 603 606 649 q 728 490 700 557 q 756 339 756 424 q 728 188 756 254 q 653 76 700 122 q 544 7 606 31 q 417 -17 483 -17 q 289 7 350 -17 q 181 76 228 31 q 106 188 133 122 q 78 339 78 254 m 219 339 q 272 163 219 229 q 417 96 325 96 q 561 163 508 96 q 614 339 614 229 q 561 515 614 449 q 417 582 508 582 q 272 515 325 582 q 219 339 219 449 m 278 811 q 218 835 242 811 q 194 896 194 860 q 218 956 194 932 q 278 981 242 981 q 339 956 315 981 q 363 896 363 932 q 339 835 363 860 q 278 811 315 811 m 556 811 q 494 835 518 811 q 471 896 471 860 q 494 956 471 932 q 556 981 518 981 q 615 956 592 981 q 639 896 639 932 q 615 835 639 860 q 556 811 592 811 z "},"ō":{"ha":833,"x_min":78,"x_max":756,"o":"m 78 339 q 106 490 78 424 q 181 603 133 557 q 289 672 228 649 q 417 696 350 696 q 544 672 483 696 q 653 603 606 649 q 728 490 700 557 q 756 339 756 424 q 728 188 756 254 q 653 76 700 122 q 544 7 606 31 q 417 -17 483 -17 q 289 7 350 -17 q 181 76 228 31 q 106 188 133 122 q 78 339 78 254 m 219 339 q 272 163 219 229 q 417 96 325 96 q 561 163 508 96 q 614 339 614 229 q 561 515 614 449 q 417 582 508 582 q 272 515 325 582 q 219 339 219 449 m 240 924 l 593 924 l 593 831 l 240 831 l 240 924 z "},"ŏ":{"ha":833,"x_min":78,"x_max":756,"o":"m 78 339 q 106 490 78 424 q 181 603 133 557 q 289 672 228 649 q 417 696 350 696 q 544 672 483 696 q 653 603 606 649 q 728 490 700 557 q 756 339 756 424 q 728 188 756 254 q 653 76 700 122 q 544 7 606 31 q 417 -17 483 -17 q 289 7 350 -17 q 181 76 228 31 q 106 188 133 122 q 78 339 78 254 m 219 339 q 272 163 219 229 q 417 96 325 96 q 561 163 508 96 q 614 339 614 229 q 561 515 614 449 q 417 582 508 582 q 272 515 325 582 q 219 339 219 449 m 417 799 q 335 816 369 799 q 278 860 301 833 q 244 922 256 888 q 231 992 232 957 l 313 992 q 343 913 318 947 q 417 879 368 879 q 490 913 465 879 q 521 992 515 947 l 603 992 q 589 922 600 957 q 555 860 578 888 q 498 816 532 833 q 417 799 464 799 z "},"ő":{"ha":833,"x_min":78,"x_max":756,"o":"m 78 339 q 106 490 78 424 q 181 603 133 557 q 289 672 228 649 q 417 696 350 696 q 544 672 483 696 q 653 603 606 649 q 728 490 700 557 q 756 339 756 424 q 728 188 756 254 q 653 76 700 122 q 544 7 606 31 q 417 -17 483 -17 q 289 7 350 -17 q 181 76 228 31 q 106 188 133 122 q 78 339 78 254 m 219 339 q 272 163 219 229 q 417 96 325 96 q 561 163 508 96 q 614 339 614 229 q 561 515 614 449 q 417 582 508 582 q 272 515 325 582 q 219 339 219 449 m 368 996 l 485 996 l 360 794 l 271 794 l 368 996 m 581 996 l 697 996 l 572 794 l 483 794 l 581 996 z "},"ǒ":{"ha":833,"x_min":78,"x_max":756,"o":"m 78 339 q 106 490 78 424 q 181 603 133 557 q 289 672 228 649 q 417 696 350 696 q 544 672 483 696 q 653 603 606 649 q 728 490 700 557 q 756 339 756 424 q 728 188 756 254 q 653 76 700 122 q 544 7 606 31 q 417 -17 483 -17 q 289 7 350 -17 q 181 76 228 31 q 106 188 133 122 q 78 339 78 254 m 219 339 q 272 163 219 229 q 417 96 325 96 q 561 163 508 96 q 614 339 614 229 q 561 515 614 449 q 417 582 508 582 q 272 515 325 582 q 219 339 219 449 m 222 1008 l 326 1008 l 414 872 l 419 872 l 507 1008 l 611 1008 l 475 796 l 358 796 l 222 1008 z "},"ọ":{"ha":833,"x_min":78,"x_max":756,"o":"m 78 339 q 106 490 78 424 q 181 603 133 557 q 289 672 228 649 q 417 696 350 696 q 544 672 483 696 q 653 603 606 649 q 728 490 700 557 q 756 339 756 424 q 728 188 756 254 q 653 76 700 122 q 544 7 606 31 q 417 -17 483 -17 q 289 7 350 -17 q 181 76 228 31 q 106 188 133 122 q 78 339 78 254 m 219 339 q 272 163 219 229 q 417 96 325 96 q 561 163 508 96 q 614 339 614 229 q 561 515 614 449 q 417 582 508 582 q 272 515 325 582 q 219 339 219 449 m 418 -324 q 344 -297 374 -324 q 315 -226 315 -271 q 344 -155 315 -182 q 418 -128 374 -128 q 492 -155 463 -128 q 521 -226 521 -182 q 492 -297 521 -271 q 418 -324 463 -324 z "},"ỏ":{"ha":833,"x_min":78,"x_max":756,"o":"m 78 339 q 106 490 78 424 q 181 603 133 557 q 289 672 228 649 q 417 696 350 696 q 544 672 483 696 q 653 603 606 649 q 728 490 700 557 q 756 339 756 424 q 728 188 756 254 q 653 76 700 122 q 544 7 606 31 q 417 -17 483 -17 q 289 7 350 -17 q 181 76 228 31 q 106 188 133 122 q 78 339 78 254 m 219 339 q 272 163 219 229 q 417 96 325 96 q 561 163 508 96 q 614 339 614 229 q 561 515 614 449 q 417 582 508 582 q 272 515 325 582 q 219 339 219 449 m 361 829 q 415 851 393 838 q 436 888 436 864 q 322 943 436 938 l 336 1018 q 539 903 539 1011 q 526 848 539 871 q 490 809 513 825 q 438 783 467 793 q 375 769 408 774 l 361 829 z "},"ố":{"ha":833,"x_min":78,"x_max":757,"o":"m 78 339 q 106 490 78 424 q 181 603 133 557 q 289 672 228 649 q 417 696 350 696 q 544 672 483 696 q 653 603 606 649 q 728 490 700 557 q 756 339 756 424 q 728 188 756 254 q 653 76 700 122 q 544 7 606 31 q 417 -17 483 -17 q 289 7 350 -17 q 181 76 228 31 q 106 188 133 122 q 78 339 78 254 m 219 339 q 272 163 219 229 q 417 96 325 96 q 561 163 508 96 q 614 339 614 229 q 561 515 614 449 q 417 582 508 582 q 272 515 325 582 q 219 339 219 449 m 361 965 l 472 965 l 586 796 l 496 796 l 419 894 l 414 894 l 338 796 l 247 796 l 361 965 m 647 1051 l 757 1051 l 628 892 l 546 892 l 647 1051 z "},"ồ":{"ha":833,"x_min":78,"x_max":756,"o":"m 78 339 q 106 490 78 424 q 181 603 133 557 q 289 672 228 649 q 417 696 350 696 q 544 672 483 696 q 653 603 606 649 q 728 490 700 557 q 756 339 756 424 q 728 188 756 254 q 653 76 700 122 q 544 7 606 31 q 417 -17 483 -17 q 289 7 350 -17 q 181 76 228 31 q 106 188 133 122 q 78 339 78 254 m 219 339 q 272 163 219 229 q 417 96 325 96 q 561 163 508 96 q 614 339 614 229 q 561 515 614 449 q 417 582 508 582 q 272 515 325 582 q 219 339 219 449 m 361 965 l 472 965 l 586 796 l 496 796 l 419 894 l 414 894 l 338 796 l 247 796 l 361 965 m 714 892 l 631 892 l 503 1051 l 613 1051 l 714 892 z "},"ổ":{"ha":833,"x_min":78,"x_max":756,"o":"m 78 339 q 106 490 78 424 q 181 603 133 557 q 289 672 228 649 q 417 696 350 696 q 544 672 483 696 q 653 603 606 649 q 728 490 700 557 q 756 339 756 424 q 728 188 756 254 q 653 76 700 122 q 544 7 606 31 q 417 -17 483 -17 q 289 7 350 -17 q 181 76 228 31 q 106 188 133 122 q 78 339 78 254 m 219 339 q 272 163 219 229 q 417 96 325 96 q 561 163 508 96 q 614 339 614 229 q 561 515 614 449 q 417 582 508 582 q 272 515 325 582 q 219 339 219 449 m 361 965 l 472 965 l 586 796 l 496 796 l 419 894 l 414 894 l 338 796 l 247 796 l 361 965 m 572 926 q 613 944 597 933 q 628 976 628 956 q 606 1015 628 1001 q 533 1031 585 1028 l 544 1094 q 724 992 724 1088 q 712 942 724 963 q 681 908 700 921 q 637 886 663 894 q 585 872 611 878 l 572 926 z "},"ỗ":{"ha":833,"x_min":78,"x_max":756,"o":"m 78 339 q 106 490 78 424 q 181 603 133 557 q 289 672 228 649 q 417 696 350 696 q 544 672 483 696 q 653 603 606 649 q 728 490 700 557 q 756 339 756 424 q 728 188 756 254 q 653 76 700 122 q 544 7 606 31 q 417 -17 483 -17 q 289 7 350 -17 q 181 76 228 31 q 106 188 133 122 q 78 339 78 254 m 219 339 q 272 163 219 229 q 417 96 325 96 q 561 163 508 96 q 614 339 614 229 q 561 515 614 449 q 417 582 508 582 q 272 515 325 582 q 219 339 219 449 m 354 942 l 479 942 l 597 794 l 503 794 l 419 882 l 414 882 l 331 794 l 236 794 l 354 942 m 229 992 q 266 1090 236 1054 q 343 1125 296 1125 q 389 1116 369 1125 q 424 1097 408 1107 q 454 1077 440 1086 q 485 1068 468 1068 q 538 1125 528 1068 l 604 1125 q 567 1027 597 1063 q 490 992 538 992 q 444 1001 464 992 q 409 1020 425 1010 q 379 1040 393 1031 q 349 1049 365 1049 q 296 992 306 1049 l 229 992 z "},"ộ":{"ha":833,"x_min":78,"x_max":756,"o":"m 78 339 q 106 490 78 424 q 181 603 133 557 q 289 672 228 649 q 417 696 350 696 q 544 672 483 696 q 653 603 606 649 q 728 490 700 557 q 756 339 756 424 q 728 188 756 254 q 653 76 700 122 q 544 7 606 31 q 417 -17 483 -17 q 289 7 350 -17 q 181 76 228 31 q 106 188 133 122 q 78 339 78 254 m 219 339 q 272 163 219 229 q 417 96 325 96 q 561 163 508 96 q 614 339 614 229 q 561 515 614 449 q 417 582 508 582 q 272 515 325 582 q 219 339 219 449 m 358 1008 l 475 1008 l 611 796 l 507 796 l 419 932 l 414 932 l 326 796 l 222 796 l 358 1008 m 417 -324 q 343 -297 372 -324 q 314 -226 314 -271 q 343 -155 314 -182 q 417 -128 372 -128 q 490 -155 461 -128 q 519 -226 519 -182 q 490 -297 519 -271 q 417 -324 461 -324 z "},"ø":{"ha":833,"x_min":78,"x_max":756,"o":"m 294 139 q 417 93 344 93 q 561 161 508 93 q 614 339 614 229 q 606 415 614 379 q 585 479 599 450 l 294 139 m 539 540 q 417 586 489 586 q 335 568 371 586 q 273 517 299 550 q 233 439 247 485 q 219 339 219 393 q 249 199 219 257 l 539 540 m 671 582 q 733 476 711 538 q 756 339 756 415 q 728 188 756 254 q 653 76 700 122 q 544 7 606 31 q 417 -17 483 -17 q 311 -1 363 -17 q 217 47 260 15 l 149 -33 l 90 13 l 161 97 q 100 202 122 142 q 78 339 78 263 q 106 490 78 424 q 181 603 133 557 q 289 672 228 649 q 417 696 350 696 q 522 680 471 696 q 617 632 574 664 l 685 713 l 743 667 l 671 582 z "},"œ":{"ha":833,"x_min":15,"x_max":826,"o":"m 142 339 q 174 163 142 231 q 271 94 207 94 q 359 163 326 94 q 392 339 392 231 q 359 516 392 449 q 271 583 326 583 q 174 516 207 583 q 142 339 142 449 m 15 339 q 35 490 15 424 q 88 603 54 557 q 166 672 121 649 q 264 696 211 696 q 374 656 328 696 q 447 544 419 615 q 519 656 475 615 q 626 696 564 696 q 713 671 675 696 q 775 603 750 646 q 813 502 800 560 q 826 381 826 444 q 825 342 826 358 q 821 304 824 326 l 493 304 q 538 150 500 207 q 644 93 576 93 q 705 104 678 93 q 760 135 732 115 l 807 44 q 729 1 772 18 q 640 -17 686 -17 q 528 19 578 -17 q 449 126 478 56 q 372 19 418 56 q 263 -17 326 -17 q 165 7 210 -17 q 86 76 119 31 q 34 188 53 122 q 15 339 15 254 m 715 392 q 710 466 715 431 q 694 528 706 501 q 663 572 682 556 q 617 588 644 588 q 530 536 561 588 q 492 392 499 485 l 715 392 z "},"ơ":{"ha":833,"x_min":78,"x_max":782,"o":"m 417 96 q 561 163 508 96 q 614 339 614 229 q 561 515 614 449 q 417 582 508 582 q 272 515 325 582 q 219 339 219 449 q 272 163 219 229 q 417 96 325 96 m 747 860 q 772 817 763 840 q 782 765 782 793 q 743 665 782 701 q 642 613 704 628 q 725 498 694 567 q 756 339 756 429 q 728 188 756 254 q 653 76 700 122 q 544 7 606 31 q 417 -17 483 -17 q 289 7 350 -17 q 181 76 228 31 q 106 188 133 122 q 78 339 78 254 q 106 490 78 424 q 181 603 133 557 q 289 672 228 649 q 417 696 350 696 q 561 665 492 696 q 644 693 617 672 q 672 756 672 714 q 666 787 672 772 q 651 815 660 801 l 747 860 z "},"ớ":{"ha":833,"x_min":78,"x_max":782,"o":"m 417 96 q 561 163 508 96 q 614 339 614 229 q 561 515 614 449 q 417 582 508 582 q 272 515 325 582 q 219 339 219 449 q 272 163 219 229 q 417 96 325 96 m 747 860 q 772 817 763 840 q 782 765 782 793 q 743 665 782 701 q 642 613 704 628 q 725 498 694 567 q 756 339 756 429 q 728 188 756 254 q 653 76 700 122 q 544 7 606 31 q 417 -17 483 -17 q 289 7 350 -17 q 181 76 228 31 q 106 188 133 122 q 78 339 78 254 q 106 490 78 424 q 181 603 133 557 q 289 672 228 649 q 417 696 350 696 q 561 665 492 696 q 644 693 617 672 q 672 756 672 714 q 666 787 672 772 q 651 815 660 801 l 747 860 m 424 796 l 321 796 l 446 1008 l 592 1008 l 424 796 z "},"ờ":{"ha":833,"x_min":78,"x_max":782,"o":"m 417 96 q 561 163 508 96 q 614 339 614 229 q 561 515 614 449 q 417 582 508 582 q 272 515 325 582 q 219 339 219 449 q 272 163 219 229 q 417 96 325 96 m 747 860 q 772 817 763 840 q 782 765 782 793 q 743 665 782 701 q 642 613 704 628 q 725 498 694 567 q 756 339 756 429 q 728 188 756 254 q 653 76 700 122 q 544 7 606 31 q 417 -17 483 -17 q 289 7 350 -17 q 181 76 228 31 q 106 188 133 122 q 78 339 78 254 q 106 490 78 424 q 181 603 133 557 q 289 672 228 649 q 417 696 350 696 q 561 665 492 696 q 644 693 617 672 q 672 756 672 714 q 666 787 672 772 q 651 815 660 801 l 747 860 m 242 1008 l 388 1008 l 513 796 l 410 796 l 242 1008 z "},"ở":{"ha":833,"x_min":78,"x_max":782,"o":"m 417 96 q 561 163 508 96 q 614 339 614 229 q 561 515 614 449 q 417 582 508 582 q 272 515 325 582 q 219 339 219 449 q 272 163 219 229 q 417 96 325 96 m 747 860 q 772 817 763 840 q 782 765 782 793 q 743 665 782 701 q 642 613 704 628 q 725 498 694 567 q 756 339 756 429 q 728 188 756 254 q 653 76 700 122 q 544 7 606 31 q 417 -17 483 -17 q 289 7 350 -17 q 181 76 228 31 q 106 188 133 122 q 78 339 78 254 q 106 490 78 424 q 181 603 133 557 q 289 672 228 649 q 417 696 350 696 q 561 665 492 696 q 644 693 617 672 q 672 756 672 714 q 666 787 672 772 q 651 815 660 801 l 747 860 m 361 829 q 415 851 393 838 q 436 888 436 864 q 322 943 436 938 l 336 1018 q 539 903 539 1011 q 526 848 539 871 q 490 809 513 825 q 438 783 467 793 q 375 769 408 774 l 361 829 z "},"ỡ":{"ha":833,"x_min":78,"x_max":782,"o":"m 417 96 q 561 163 508 96 q 614 339 614 229 q 561 515 614 449 q 417 582 508 582 q 272 515 325 582 q 219 339 219 449 q 272 163 219 229 q 417 96 325 96 m 747 860 q 772 817 763 840 q 782 765 782 793 q 743 665 782 701 q 642 613 704 628 q 725 498 694 567 q 756 339 756 429 q 728 188 756 254 q 653 76 700 122 q 544 7 606 31 q 417 -17 483 -17 q 289 7 350 -17 q 181 76 228 31 q 106 188 133 122 q 78 339 78 254 q 106 490 78 424 q 181 603 133 557 q 289 672 228 649 q 417 696 350 696 q 561 665 492 696 q 644 693 617 672 q 672 756 672 714 q 666 787 672 772 q 651 815 660 801 l 747 860 m 210 803 q 251 922 218 878 q 342 967 283 967 q 388 955 367 967 q 426 929 408 943 q 459 903 443 915 q 492 892 475 892 q 549 967 535 892 l 624 967 q 583 847 615 892 q 492 803 550 803 q 446 815 467 803 q 408 840 425 826 q 374 866 390 854 q 342 878 358 878 q 305 860 318 878 q 285 803 292 843 l 210 803 l 210 803 z "},"ợ":{"ha":833,"x_min":78,"x_max":782,"o":"m 417 96 q 561 163 508 96 q 614 339 614 229 q 561 515 614 449 q 417 582 508 582 q 272 515 325 582 q 219 339 219 449 q 272 163 219 229 q 417 96 325 96 m 747 860 q 772 817 763 840 q 782 765 782 793 q 743 665 782 701 q 642 613 704 628 q 725 498 694 567 q 756 339 756 429 q 728 188 756 254 q 653 76 700 122 q 544 7 606 31 q 417 -17 483 -17 q 289 7 350 -17 q 181 76 228 31 q 106 188 133 122 q 78 339 78 254 q 106 490 78 424 q 181 603 133 557 q 289 672 228 649 q 417 696 350 696 q 561 665 492 696 q 644 693 617 672 q 672 756 672 714 q 666 787 672 772 q 651 815 660 801 l 747 860 m 418 -324 q 344 -297 374 -324 q 315 -226 315 -271 q 344 -155 315 -182 q 418 -128 374 -128 q 492 -155 463 -128 q 521 -226 521 -182 q 492 -297 521 -271 q 418 -324 463 -324 z "},"ǫ":{"ha":833,"x_min":78,"x_max":756,"o":"m 318 -167 q 326 -117 318 -140 q 344 -75 333 -94 q 369 -40 356 -56 q 394 -15 382 -25 q 272 15 329 -11 q 171 85 214 40 q 103 194 128 131 q 78 339 78 258 q 106 490 78 424 q 180 603 133 557 q 288 672 226 649 q 417 696 350 696 q 545 672 483 696 q 653 603 607 649 q 728 490 700 557 q 756 339 756 424 q 738 215 756 269 q 690 120 721 161 q 613 49 658 79 q 514 -4 568 18 q 440 -65 465 -28 q 415 -139 415 -101 q 435 -185 415 -171 q 479 -200 454 -200 q 508 -195 494 -200 q 533 -182 521 -190 l 565 -247 q 510 -276 544 -265 q 449 -287 476 -287 q 356 -258 393 -287 q 318 -167 318 -228 m 219 339 q 272 163 219 229 q 417 96 325 96 q 561 163 508 96 q 614 339 614 229 q 561 515 614 449 q 417 582 508 582 q 272 515 325 582 q 219 339 219 449 z "},"ŕ":{"ha":833,"x_min":192,"x_max":750,"o":"m 192 679 l 306 679 l 317 521 l 321 521 q 449 650 374 604 q 617 696 525 696 q 688 690 657 696 q 750 668 718 683 l 719 550 q 660 567 685 561 q 596 572 635 572 q 454 531 522 572 q 329 386 386 489 l 329 0 l 192 0 l 192 679 m 481 796 l 378 796 l 503 1008 l 649 1008 l 481 796 z "},"ŗ":{"ha":833,"x_min":157,"x_max":750,"o":"m 192 679 l 306 679 l 317 521 l 321 521 q 449 650 374 604 q 617 696 525 696 q 688 690 657 696 q 750 668 718 683 l 719 550 q 660 567 685 561 q 596 572 635 572 q 454 531 522 572 q 329 386 386 489 l 329 0 l 192 0 l 192 679 m 238 -64 q 348 -100 315 -75 q 381 -174 381 -125 q 363 -229 381 -206 q 317 -269 346 -253 q 249 -294 288 -285 q 168 -306 210 -303 l 157 -242 q 244 -222 210 -235 q 278 -182 278 -208 q 258 -144 278 -157 q 210 -124 239 -131 l 238 -64 l 238 -64 z "},"ř":{"ha":833,"x_min":192,"x_max":750,"o":"m 192 679 l 306 679 l 317 521 l 321 521 q 449 650 374 604 q 617 696 525 696 q 688 690 657 696 q 750 668 718 683 l 719 550 q 660 567 685 561 q 596 572 635 572 q 454 531 522 572 q 329 386 386 489 l 329 0 l 192 0 l 192 679 m 279 1008 l 383 1008 l 471 872 l 476 872 l 564 1008 l 668 1008 l 532 796 l 415 796 l 279 1008 z "},"ṛ":{"ha":833,"x_min":178,"x_max":750,"o":"m 192 679 l 306 679 l 317 521 l 321 521 q 449 650 374 604 q 617 696 525 696 q 688 690 657 696 q 750 668 718 683 l 719 550 q 660 567 685 561 q 596 572 635 572 q 454 531 522 572 q 329 386 386 489 l 329 0 l 192 0 l 192 679 m 281 -324 q 207 -297 236 -324 q 178 -226 178 -271 q 207 -155 178 -182 q 281 -128 236 -128 q 354 -155 325 -128 q 383 -226 383 -182 q 354 -297 383 -271 q 281 -324 325 -324 z "},"ṝ":{"ha":833,"x_min":178,"x_max":750,"o":"m 192 679 l 306 679 l 317 521 l 321 521 q 449 650 374 604 q 617 696 525 696 q 688 690 657 696 q 750 668 718 683 l 719 550 q 660 567 685 561 q 596 572 635 572 q 454 531 522 572 q 329 386 386 489 l 329 0 l 192 0 l 192 679 m 297 924 l 650 924 l 650 831 l 297 831 l 297 924 m 281 -324 q 207 -297 236 -324 q 178 -226 178 -271 q 207 -155 178 -182 q 281 -128 236 -128 q 354 -155 325 -128 q 383 -226 383 -182 q 354 -297 383 -271 q 281 -324 325 -324 z "},"ṟ":{"ha":833,"x_min":103,"x_max":750,"o":"m 192 679 l 306 679 l 317 521 l 321 521 q 449 650 374 604 q 617 696 525 696 q 688 690 657 696 q 750 668 718 683 l 719 550 q 660 567 685 561 q 596 572 635 572 q 454 531 522 572 q 329 386 386 489 l 329 0 l 192 0 l 192 679 m 457 -243 l 103 -243 l 103 -151 l 457 -151 l 457 -243 z "},"ś":{"ha":833,"x_min":93,"x_max":736,"o":"m 158 178 q 281 113 217 138 q 429 89 344 89 q 557 115 517 89 q 597 182 597 142 q 549 247 597 219 q 388 303 500 275 q 291 333 338 315 q 210 376 244 351 q 154 430 175 400 q 133 497 133 460 q 152 576 133 540 q 208 639 171 613 q 300 681 246 665 q 425 696 354 696 q 578 669 506 696 q 703 607 651 642 l 639 521 q 540 571 593 551 q 426 590 488 590 q 306 565 340 590 q 272 504 272 540 q 328 440 272 465 q 471 393 383 415 q 667 316 599 361 q 736 190 736 271 q 715 110 736 147 q 655 44 694 72 q 558 -1 615 15 q 425 -17 500 -17 q 242 15 328 -17 q 93 89 156 46 l 158 178 m 432 796 l 329 796 l 454 1008 l 600 1008 l 432 796 z "},"ŝ":{"ha":833,"x_min":93,"x_max":736,"o":"m 158 178 q 281 113 217 138 q 429 89 344 89 q 557 115 517 89 q 597 182 597 142 q 549 247 597 219 q 388 303 500 275 q 291 333 338 315 q 210 376 244 351 q 154 430 175 400 q 133 497 133 460 q 152 576 133 540 q 208 639 171 613 q 300 681 246 665 q 425 696 354 696 q 578 669 506 696 q 703 607 651 642 l 639 521 q 540 571 593 551 q 426 590 488 590 q 306 565 340 590 q 272 504 272 540 q 328 440 272 465 q 471 393 383 415 q 667 316 599 361 q 736 190 736 271 q 715 110 736 147 q 655 44 694 72 q 558 -1 615 15 q 425 -17 500 -17 q 242 15 328 -17 q 93 89 156 46 l 158 178 m 367 1008 l 483 1008 l 619 796 l 515 796 l 428 932 l 422 932 l 335 796 l 231 796 l 367 1008 z "},"š":{"ha":833,"x_min":93,"x_max":736,"o":"m 158 178 q 281 113 217 138 q 429 89 344 89 q 557 115 517 89 q 597 182 597 142 q 549 247 597 219 q 388 303 500 275 q 291 333 338 315 q 210 376 244 351 q 154 430 175 400 q 133 497 133 460 q 152 576 133 540 q 208 639 171 613 q 300 681 246 665 q 425 696 354 696 q 578 669 506 696 q 703 607 651 642 l 639 521 q 540 571 593 551 q 426 590 488 590 q 306 565 340 590 q 272 504 272 540 q 328 440 272 465 q 471 393 383 415 q 667 316 599 361 q 736 190 736 271 q 715 110 736 147 q 655 44 694 72 q 558 -1 615 15 q 425 -17 500 -17 q 242 15 328 -17 q 93 89 156 46 l 158 178 m 231 1008 l 335 1008 l 422 872 l 428 872 l 515 1008 l 619 1008 l 483 796 l 367 796 l 231 1008 z "},"ş":{"ha":833,"x_min":93,"x_max":736,"o":"m 158 178 q 281 113 217 138 q 429 89 344 89 q 557 115 517 89 q 597 182 597 142 q 549 247 597 219 q 388 303 500 275 q 291 333 338 315 q 210 376 244 351 q 154 430 175 400 q 133 497 133 460 q 152 576 133 540 q 208 639 171 613 q 300 681 246 665 q 425 696 354 696 q 578 669 506 696 q 703 607 651 642 l 639 521 q 540 571 593 551 q 426 590 488 590 q 306 565 340 590 q 272 504 272 540 q 328 440 272 465 q 471 393 383 415 q 667 316 599 361 q 736 190 736 271 q 715 110 736 147 q 655 44 694 72 q 558 -1 615 15 q 425 -17 500 -17 q 242 15 328 -17 q 93 89 156 46 l 158 178 m 401 4 l 488 4 l 453 -67 q 511 -101 488 -78 q 535 -167 535 -124 q 517 -222 535 -199 q 471 -262 500 -246 q 403 -287 442 -278 q 322 -299 364 -296 l 311 -235 q 398 -212 364 -228 q 432 -169 432 -197 q 410 -131 432 -146 q 346 -104 389 -115 l 401 4 z "},"ș":{"ha":833,"x_min":93,"x_max":736,"o":"m 158 178 q 281 113 217 138 q 429 89 344 89 q 557 115 517 89 q 597 182 597 142 q 549 247 597 219 q 388 303 500 275 q 291 333 338 315 q 210 376 244 351 q 154 430 175 400 q 133 497 133 460 q 152 576 133 540 q 208 639 171 613 q 300 681 246 665 q 425 696 354 696 q 578 669 506 696 q 703 607 651 642 l 639 521 q 540 571 593 551 q 426 590 488 590 q 306 565 340 590 q 272 504 272 540 q 328 440 272 465 q 471 393 383 415 q 667 316 599 361 q 736 190 736 271 q 715 110 736 147 q 655 44 694 72 q 558 -1 615 15 q 425 -17 500 -17 q 242 15 328 -17 q 93 89 156 46 l 158 178 m 386 -64 q 497 -100 464 -75 q 529 -174 529 -125 q 512 -229 529 -206 q 465 -269 494 -253 q 397 -294 436 -285 q 317 -306 358 -303 l 306 -242 q 392 -222 358 -235 q 426 -182 426 -208 q 407 -144 426 -157 q 358 -124 388 -131 l 386 -64 l 386 -64 z "},"ṡ":{"ha":833,"x_min":93,"x_max":736,"o":"m 158 178 q 281 113 217 138 q 429 89 344 89 q 557 115 517 89 q 597 182 597 142 q 549 247 597 219 q 388 303 500 275 q 291 333 338 315 q 210 376 244 351 q 154 430 175 400 q 133 497 133 460 q 152 576 133 540 q 208 639 171 613 q 300 681 246 665 q 425 696 354 696 q 578 669 506 696 q 703 607 651 642 l 639 521 q 540 571 593 551 q 426 590 488 590 q 306 565 340 590 q 272 504 272 540 q 328 440 272 465 q 471 393 383 415 q 667 316 599 361 q 736 190 736 271 q 715 110 736 147 q 655 44 694 72 q 558 -1 615 15 q 425 -17 500 -17 q 242 15 328 -17 q 93 89 156 46 l 158 178 m 425 808 q 351 835 381 808 q 322 906 322 861 q 351 977 322 950 q 425 1004 381 1004 q 499 977 469 1004 q 528 906 528 950 q 499 835 528 861 q 425 808 469 808 z "},"ṣ":{"ha":833,"x_min":93,"x_max":736,"o":"m 158 178 q 281 113 217 138 q 429 89 344 89 q 557 115 517 89 q 597 182 597 142 q 549 247 597 219 q 388 303 500 275 q 291 333 338 315 q 210 376 244 351 q 154 430 175 400 q 133 497 133 460 q 152 576 133 540 q 208 639 171 613 q 300 681 246 665 q 425 696 354 696 q 578 669 506 696 q 703 607 651 642 l 639 521 q 540 571 593 551 q 426 590 488 590 q 306 565 340 590 q 272 504 272 540 q 328 440 272 465 q 471 393 383 415 q 667 316 599 361 q 736 190 736 271 q 715 110 736 147 q 655 44 694 72 q 558 -1 615 15 q 425 -17 500 -17 q 242 15 328 -17 q 93 89 156 46 l 158 178 m 429 -324 q 356 -297 385 -324 q 326 -226 326 -271 q 356 -155 326 -182 q 429 -128 385 -128 q 503 -155 474 -128 q 532 -226 532 -182 q 503 -297 532 -271 q 429 -324 474 -324 z "},"ß":{"ha":833,"x_min":113,"x_max":786,"o":"m 113 713 q 132 830 113 776 q 188 922 151 883 q 278 981 225 960 q 401 1001 332 1001 q 503 984 460 1001 q 577 938 547 967 q 622 869 607 908 q 638 789 638 831 q 619 701 638 738 q 580 635 601 665 q 540 578 558 606 q 522 517 522 550 q 542 465 522 486 q 590 426 561 444 q 654 390 619 408 q 718 347 689 372 q 767 286 747 322 q 786 196 786 250 q 770 113 786 151 q 724 45 754 74 q 652 0 694 17 q 556 -17 610 -17 q 449 -1 497 -17 q 357 43 401 15 l 408 139 q 480 101 446 113 q 551 89 514 89 q 630 117 603 89 q 657 185 657 144 q 638 245 657 221 q 589 289 618 269 q 525 326 560 308 q 461 366 490 343 q 413 421 432 389 q 393 500 393 453 q 411 579 393 546 q 451 643 429 613 q 490 706 472 674 q 508 781 508 738 q 480 860 508 828 q 400 892 451 892 q 290 842 329 892 q 250 697 250 793 l 250 0 l 113 0 l 113 713 z "},"ť":{"ha":833,"x_min":89,"x_max":760,"o":"m 275 568 l 89 568 l 89 672 l 281 679 l 299 867 l 413 867 l 413 679 l 733 679 l 733 568 l 413 568 l 413 268 q 448 138 413 181 q 576 94 483 94 q 659 102 621 94 q 732 124 697 110 l 760 22 q 658 -5 714 7 q 544 -17 603 -17 q 417 4 469 -17 q 334 63 365 25 q 289 152 303 100 q 275 268 275 204 l 275 568 m 547 761 l 542 1060 l 636 1060 l 635 975 l 611 761 l 547 761 z "}}}
